<svg width="346" height="277" viewBox="0 0 346 277" fill="none" xmlns="http://www.w3.org/2000/svg">
<circle cx="122.542" cy="148.505" r="2.93034" transform="rotate(90 122.542 148.505)" fill="white" stroke="#B1B1B1"/>
<circle cx="163.708" cy="148.505" r="2.93034" transform="rotate(90 163.708 148.505)" fill="white" stroke="#B1B1B1"/>
<circle cx="143.126" cy="148.505" r="2.93034" transform="rotate(90 143.126 148.505)" fill="white" stroke="#B1B1B1"/>
<circle cx="122.691" cy="169.529" r="2.93034" transform="rotate(90 122.691 169.529)" fill="white" stroke="#B1B1B1"/>
<circle cx="163.855" cy="169.529" r="2.93034" transform="rotate(90 163.855 169.529)" fill="white" stroke="#B1B1B1"/>
<circle cx="143.271" cy="169.529" r="2.93034" transform="rotate(90 143.271 169.529)" fill="white" stroke="#B1B1B1"/>
<circle cx="122.691" cy="127.43" r="2.93034" transform="rotate(90 122.691 127.43)" fill="white" stroke="#B1B1B1"/>
<circle cx="163.855" cy="127.43" r="2.93034" transform="rotate(90 163.855 127.43)" fill="white" stroke="#B1B1B1"/>
<circle cx="143.271" cy="127.43" r="2.93034" transform="rotate(90 143.271 127.43)" fill="white" stroke="#B1B1B1"/>
<circle cx="122.542" cy="209.704" r="2.93034" transform="rotate(90 122.542 209.704)" fill="white" stroke="#B1B1B1"/>
<circle cx="163.708" cy="209.704" r="2.93034" transform="rotate(90 163.708 209.704)" fill="white" stroke="#B1B1B1"/>
<circle cx="143.126" cy="209.704" r="2.93034" transform="rotate(90 143.126 209.704)" fill="white" stroke="#B1B1B1"/>
<circle cx="122.691" cy="230.729" r="2.93034" transform="rotate(90 122.691 230.729)" fill="white" stroke="#B1B1B1"/>
<circle cx="163.855" cy="230.729" r="2.93034" transform="rotate(90 163.855 230.729)" fill="white" stroke="#B1B1B1"/>
<circle cx="143.271" cy="230.729" r="2.93034" transform="rotate(90 143.271 230.729)" fill="white" stroke="#B1B1B1"/>
<circle cx="122.691" cy="188.63" r="2.93034" transform="rotate(90 122.691 188.63)" fill="white" stroke="#B1B1B1"/>
<circle cx="163.855" cy="188.63" r="2.93034" transform="rotate(90 163.855 188.63)" fill="white" stroke="#B1B1B1"/>
<circle cx="143.271" cy="188.63" r="2.93034" transform="rotate(90 143.271 188.63)" fill="white" stroke="#B1B1B1"/>
<circle cx="181.708" cy="148.505" r="2.93034" transform="rotate(90 181.708 148.505)" fill="white" stroke="#B1B1B1"/>
<circle cx="222.874" cy="148.505" r="2.93034" transform="rotate(90 222.874 148.505)" fill="white" stroke="#B1B1B1"/>
<circle cx="202.292" cy="148.505" r="2.93034" transform="rotate(90 202.292 148.505)" fill="white" stroke="#B1B1B1"/>
<circle cx="181.857" cy="169.529" r="2.93034" transform="rotate(90 181.857 169.529)" fill="white" stroke="#B1B1B1"/>
<circle cx="223.021" cy="169.529" r="2.93034" transform="rotate(90 223.021 169.529)" fill="white" stroke="#B1B1B1"/>
<circle cx="202.437" cy="169.529" r="2.93034" transform="rotate(90 202.437 169.529)" fill="white" stroke="#B1B1B1"/>
<circle cx="181.857" cy="127.43" r="2.93034" transform="rotate(90 181.857 127.43)" fill="white" stroke="#B1B1B1"/>
<circle cx="223.021" cy="127.43" r="2.93034" transform="rotate(90 223.021 127.43)" fill="white" stroke="#B1B1B1"/>
<circle cx="202.437" cy="127.43" r="2.93034" transform="rotate(90 202.437 127.43)" fill="white" stroke="#B1B1B1"/>
<circle cx="3.54231" cy="273.505" r="2.93034" transform="rotate(90 3.54231 273.505)" fill="white" stroke="#B1B1B1"/>
<circle cx="44.7083" cy="273.505" r="2.93034" transform="rotate(90 44.7083 273.505)" fill="white" stroke="#B1B1B1"/>
<circle cx="24.1263" cy="273.505" r="2.93034" transform="rotate(90 24.1263 273.505)" fill="white" stroke="#B1B1B1"/>
<circle cx="3.69075" cy="252.43" r="2.93034" transform="rotate(90 3.69075 252.43)" fill="white" stroke="#B1B1B1"/>
<circle cx="44.8548" cy="252.43" r="2.93034" transform="rotate(90 44.8548 252.43)" fill="white" stroke="#B1B1B1"/>
<circle cx="24.2708" cy="252.43" r="2.93034" transform="rotate(90 24.2708 252.43)" fill="white" stroke="#B1B1B1"/>
<circle cx="62.5423" cy="273.505" r="2.93034" transform="rotate(90 62.5423 273.505)" fill="white" stroke="#B1B1B1"/>
<circle cx="103.708" cy="273.505" r="2.93034" transform="rotate(90 103.708 273.505)" fill="white" stroke="#B1B1B1"/>
<circle cx="83.1263" cy="273.505" r="2.93034" transform="rotate(90 83.1263 273.505)" fill="white" stroke="#B1B1B1"/>
<circle cx="62.6908" cy="252.43" r="2.93034" transform="rotate(90 62.6908 252.43)" fill="white" stroke="#B1B1B1"/>
<circle cx="103.855" cy="252.43" r="2.93034" transform="rotate(90 103.855 252.43)" fill="white" stroke="#B1B1B1"/>
<circle cx="83.2708" cy="252.43" r="2.93034" transform="rotate(90 83.2708 252.43)" fill="white" stroke="#B1B1B1"/>
<circle cx="122.542" cy="273.505" r="2.93034" transform="rotate(90 122.542 273.505)" fill="white" stroke="#B1B1B1"/>
<circle cx="163.708" cy="273.505" r="2.93034" transform="rotate(90 163.708 273.505)" fill="white" stroke="#B1B1B1"/>
<circle cx="143.126" cy="273.505" r="2.93034" transform="rotate(90 143.126 273.505)" fill="white" stroke="#B1B1B1"/>
<circle cx="122.691" cy="252.43" r="2.93034" transform="rotate(90 122.691 252.43)" fill="white" stroke="#B1B1B1"/>
<circle cx="163.855" cy="252.43" r="2.93034" transform="rotate(90 163.855 252.43)" fill="white" stroke="#B1B1B1"/>
<circle cx="143.271" cy="252.43" r="2.93034" transform="rotate(90 143.271 252.43)" fill="white" stroke="#B1B1B1"/>
<circle cx="181.542" cy="273.505" r="2.93034" transform="rotate(90 181.542 273.505)" fill="white" stroke="#B1B1B1"/>
<circle cx="222.708" cy="273.505" r="2.93034" transform="rotate(90 222.708 273.505)" fill="white" stroke="#B1B1B1"/>
<circle cx="202.126" cy="273.505" r="2.93034" transform="rotate(90 202.126 273.505)" fill="white" stroke="#B1B1B1"/>
<circle cx="181.691" cy="252.43" r="2.93034" transform="rotate(90 181.691 252.43)" fill="white" stroke="#B1B1B1"/>
<circle cx="222.855" cy="252.43" r="2.93034" transform="rotate(90 222.855 252.43)" fill="white" stroke="#B1B1B1"/>
<circle cx="202.271" cy="252.43" r="2.93034" transform="rotate(90 202.271 252.43)" fill="white" stroke="#B1B1B1"/>
<circle cx="241.542" cy="273.505" r="2.93034" transform="rotate(90 241.542 273.505)" fill="white" stroke="#B1B1B1"/>
<circle cx="282.708" cy="273.505" r="2.93034" transform="rotate(90 282.708 273.505)" fill="white" stroke="#B1B1B1"/>
<circle cx="262.126" cy="273.505" r="2.93034" transform="rotate(90 262.126 273.505)" fill="white" stroke="#B1B1B1"/>
<circle cx="241.691" cy="252.43" r="2.93034" transform="rotate(90 241.691 252.43)" fill="white" stroke="#B1B1B1"/>
<circle cx="282.855" cy="252.43" r="2.93034" transform="rotate(90 282.855 252.43)" fill="white" stroke="#B1B1B1"/>
<circle cx="262.271" cy="252.43" r="2.93034" transform="rotate(90 262.271 252.43)" fill="white" stroke="#B1B1B1"/>
<circle cx="300.542" cy="273.505" r="2.93034" transform="rotate(90 300.542 273.505)" fill="white" stroke="#B1B1B1"/>
<circle cx="341.708" cy="273.505" r="2.93034" transform="rotate(90 341.708 273.505)" fill="white" stroke="#B1B1B1"/>
<circle cx="321.126" cy="273.505" r="2.93034" transform="rotate(90 321.126 273.505)" fill="white" stroke="#B1B1B1"/>
<circle cx="300.691" cy="252.43" r="2.93034" transform="rotate(90 300.691 252.43)" fill="white" stroke="#B1B1B1"/>
<circle cx="341.855" cy="252.43" r="2.93034" transform="rotate(90 341.855 252.43)" fill="white" stroke="#B1B1B1"/>
<circle cx="321.271" cy="252.43" r="2.93034" transform="rotate(90 321.271 252.43)" fill="white" stroke="#B1B1B1"/>
<circle cx="3.54231" cy="24.5046" r="2.93034" transform="rotate(90 3.54231 24.5046)" fill="white" stroke="#B1B1B1"/>
<circle cx="44.7083" cy="24.5046" r="2.93034" transform="rotate(90 44.7083 24.5046)" fill="white" stroke="#B1B1B1"/>
<circle cx="24.1263" cy="24.5046" r="2.93034" transform="rotate(90 24.1263 24.5046)" fill="white" stroke="#B1B1B1"/>
<circle cx="3.69075" cy="45.5295" r="2.93034" transform="rotate(90 3.69075 45.5295)" fill="white" stroke="#B1B1B1"/>
<circle cx="44.8548" cy="45.5295" r="2.93034" transform="rotate(90 44.8548 45.5295)" fill="white" stroke="#B1B1B1"/>
<circle cx="24.2708" cy="45.5295" r="2.93034" transform="rotate(90 24.2708 45.5295)" fill="white" stroke="#B1B1B1"/>
<circle cx="3.69075" cy="3.43034" r="2.93034" transform="rotate(90 3.69075 3.43034)" fill="white" stroke="#B1B1B1"/>
<circle cx="44.8548" cy="3.43034" r="2.93034" transform="rotate(90 44.8548 3.43034)" fill="white" stroke="#B1B1B1"/>
<circle cx="24.2708" cy="3.43034" r="2.93034" transform="rotate(90 24.2708 3.43034)" fill="white" stroke="#B1B1B1"/>
<circle cx="3.54231" cy="85.7043" r="2.93034" transform="rotate(90 3.54231 85.7043)" fill="white" stroke="#B1B1B1"/>
<circle cx="44.7083" cy="85.7043" r="2.93034" transform="rotate(90 44.7083 85.7043)" fill="white" stroke="#B1B1B1"/>
<circle cx="24.1263" cy="85.7043" r="2.93034" transform="rotate(90 24.1263 85.7043)" fill="white" stroke="#B1B1B1"/>
<circle cx="3.69075" cy="106.729" r="2.93034" transform="rotate(90 3.69075 106.729)" fill="white" stroke="#B1B1B1"/>
<circle cx="44.8548" cy="106.729" r="2.93034" transform="rotate(90 44.8548 106.729)" fill="white" stroke="#B1B1B1"/>
<circle cx="24.2708" cy="106.729" r="2.93034" transform="rotate(90 24.2708 106.729)" fill="white" stroke="#B1B1B1"/>
<circle cx="3.69075" cy="64.6301" r="2.93034" transform="rotate(90 3.69075 64.6301)" fill="white" stroke="#B1B1B1"/>
<circle cx="44.8548" cy="64.6301" r="2.93034" transform="rotate(90 44.8548 64.6301)" fill="white" stroke="#B1B1B1"/>
<circle cx="24.2708" cy="64.6301" r="2.93034" transform="rotate(90 24.2708 64.6301)" fill="white" stroke="#B1B1B1"/>
<circle cx="62.7083" cy="24.5046" r="2.93034" transform="rotate(90 62.7083 24.5046)" fill="white" stroke="#B1B1B1"/>
<circle cx="103.874" cy="24.5046" r="2.93034" transform="rotate(90 103.874 24.5046)" fill="white" stroke="#B1B1B1"/>
<circle cx="83.2923" cy="24.5046" r="2.93034" transform="rotate(90 83.2923 24.5046)" fill="white" stroke="#B1B1B1"/>
<circle cx="62.8568" cy="45.5295" r="2.93034" transform="rotate(90 62.8568 45.5295)" fill="white" stroke="#B1B1B1"/>
<circle cx="104.021" cy="45.5295" r="2.93034" transform="rotate(90 104.021 45.5295)" fill="white" stroke="#B1B1B1"/>
<circle cx="83.4368" cy="45.5295" r="2.93034" transform="rotate(90 83.4368 45.5295)" fill="white" stroke="#B1B1B1"/>
<circle cx="62.8568" cy="3.43034" r="2.93034" transform="rotate(90 62.8568 3.43034)" fill="white" stroke="#B1B1B1"/>
<circle cx="104.021" cy="3.43034" r="2.93034" transform="rotate(90 104.021 3.43034)" fill="white" stroke="#B1B1B1"/>
<circle cx="83.4368" cy="3.43034" r="2.93034" transform="rotate(90 83.4368 3.43034)" fill="white" stroke="#B1B1B1"/>
<circle cx="62.5423" cy="86.5046" r="2.93034" transform="rotate(90 62.5423 86.5046)" fill="white" stroke="#B1B1B1"/>
<circle cx="103.708" cy="86.5046" r="2.93034" transform="rotate(90 103.708 86.5046)" fill="white" stroke="#B1B1B1"/>
<circle cx="83.1263" cy="86.5046" r="2.93034" transform="rotate(90 83.1263 86.5046)" fill="white" stroke="#B1B1B1"/>
<circle cx="62.6908" cy="107.529" r="2.93034" transform="rotate(90 62.6908 107.529)" fill="white" stroke="#B1B1B1"/>
<circle cx="103.855" cy="107.529" r="2.93034" transform="rotate(90 103.855 107.529)" fill="white" stroke="#B1B1B1"/>
<circle cx="83.2708" cy="107.529" r="2.93034" transform="rotate(90 83.2708 107.529)" fill="white" stroke="#B1B1B1"/>
<circle cx="62.6908" cy="65.4303" r="2.93034" transform="rotate(90 62.6908 65.4303)" fill="white" stroke="#B1B1B1"/>
<circle cx="103.855" cy="65.4303" r="2.93034" transform="rotate(90 103.855 65.4303)" fill="white" stroke="#B1B1B1"/>
<circle cx="83.2708" cy="65.4303" r="2.93034" transform="rotate(90 83.2708 65.4303)" fill="white" stroke="#B1B1B1"/>
<circle cx="122.542" cy="24.5046" r="2.93034" transform="rotate(90 122.542 24.5046)" fill="white" stroke="#B1B1B1"/>
<circle cx="163.708" cy="24.5046" r="2.93034" transform="rotate(90 163.708 24.5046)" fill="white" stroke="#B1B1B1"/>
<circle cx="143.126" cy="24.5046" r="2.93034" transform="rotate(90 143.126 24.5046)" fill="white" stroke="#B1B1B1"/>
<circle cx="122.691" cy="45.5295" r="2.93034" transform="rotate(90 122.691 45.5295)" fill="white" stroke="#B1B1B1"/>
<circle cx="163.855" cy="45.5295" r="2.93034" transform="rotate(90 163.855 45.5295)" fill="white" stroke="#B1B1B1"/>
<circle cx="143.271" cy="45.5295" r="2.93034" transform="rotate(90 143.271 45.5295)" fill="white" stroke="#B1B1B1"/>
<circle cx="122.691" cy="3.43034" r="2.93034" transform="rotate(90 122.691 3.43034)" fill="white" stroke="#B1B1B1"/>
<circle cx="163.855" cy="3.43034" r="2.93034" transform="rotate(90 163.855 3.43034)" fill="white" stroke="#B1B1B1"/>
<circle cx="143.271" cy="3.43034" r="2.93034" transform="rotate(90 143.271 3.43034)" fill="white" stroke="#B1B1B1"/>
<circle cx="122.542" cy="85.7043" r="2.93034" transform="rotate(90 122.542 85.7043)" fill="white" stroke="#B1B1B1"/>
<circle cx="163.708" cy="85.7043" r="2.93034" transform="rotate(90 163.708 85.7043)" fill="white" stroke="#B1B1B1"/>
<circle cx="143.126" cy="85.7043" r="2.93034" transform="rotate(90 143.126 85.7043)" fill="white" stroke="#B1B1B1"/>
<circle cx="122.691" cy="106.729" r="2.93034" transform="rotate(90 122.691 106.729)" fill="white" stroke="#B1B1B1"/>
<circle cx="163.855" cy="106.729" r="2.93034" transform="rotate(90 163.855 106.729)" fill="white" stroke="#B1B1B1"/>
<circle cx="143.271" cy="106.729" r="2.93034" transform="rotate(90 143.271 106.729)" fill="white" stroke="#B1B1B1"/>
<circle cx="122.691" cy="64.6301" r="2.93034" transform="rotate(90 122.691 64.6301)" fill="white" stroke="#B1B1B1"/>
<circle cx="163.855" cy="64.6301" r="2.93034" transform="rotate(90 163.855 64.6301)" fill="white" stroke="#B1B1B1"/>
<circle cx="143.271" cy="64.6301" r="2.93034" transform="rotate(90 143.271 64.6301)" fill="white" stroke="#B1B1B1"/>
<circle cx="181.708" cy="24.5046" r="2.93034" transform="rotate(90 181.708 24.5046)" fill="white" stroke="#B1B1B1"/>
<circle cx="222.874" cy="24.5046" r="2.93034" transform="rotate(90 222.874 24.5046)" fill="white" stroke="#B1B1B1"/>
<circle cx="202.292" cy="24.5046" r="2.93034" transform="rotate(90 202.292 24.5046)" fill="white" stroke="#B1B1B1"/>
<circle cx="181.857" cy="45.5295" r="2.93034" transform="rotate(90 181.857 45.5295)" fill="white" stroke="#B1B1B1"/>
<circle cx="223.021" cy="45.5295" r="2.93034" transform="rotate(90 223.021 45.5295)" fill="white" stroke="#B1B1B1"/>
<circle cx="202.437" cy="45.5295" r="2.93034" transform="rotate(90 202.437 45.5295)" fill="white" stroke="#B1B1B1"/>
<circle cx="181.857" cy="3.43034" r="2.93034" transform="rotate(90 181.857 3.43034)" fill="white" stroke="#B1B1B1"/>
<circle cx="223.021" cy="3.43034" r="2.93034" transform="rotate(90 223.021 3.43034)" fill="white" stroke="#B1B1B1"/>
<circle cx="202.437" cy="3.43034" r="2.93034" transform="rotate(90 202.437 3.43034)" fill="white" stroke="#B1B1B1"/>
<circle cx="181.542" cy="86.5046" r="2.93034" transform="rotate(90 181.542 86.5046)" fill="white" stroke="#B1B1B1"/>
<circle cx="222.708" cy="86.5046" r="2.93034" transform="rotate(90 222.708 86.5046)" fill="white" stroke="#B1B1B1"/>
<circle cx="202.126" cy="86.5046" r="2.93034" transform="rotate(90 202.126 86.5046)" fill="white" stroke="#B1B1B1"/>
<circle cx="181.691" cy="107.529" r="2.93034" transform="rotate(90 181.691 107.529)" fill="white" stroke="#B1B1B1"/>
<circle cx="222.855" cy="107.529" r="2.93034" transform="rotate(90 222.855 107.529)" fill="white" stroke="#B1B1B1"/>
<circle cx="202.271" cy="107.529" r="2.93034" transform="rotate(90 202.271 107.529)" fill="white" stroke="#B1B1B1"/>
<circle cx="181.691" cy="65.4303" r="2.93034" transform="rotate(90 181.691 65.4303)" fill="white" stroke="#B1B1B1"/>
<circle cx="222.855" cy="65.4303" r="2.93034" transform="rotate(90 222.855 65.4303)" fill="white" stroke="#B1B1B1"/>
<circle cx="202.271" cy="65.4303" r="2.93034" transform="rotate(90 202.271 65.4303)" fill="white" stroke="#B1B1B1"/>
<circle cx="241.542" cy="24.5046" r="2.93034" transform="rotate(90 241.542 24.5046)" fill="white" stroke="#B1B1B1"/>
<circle cx="282.708" cy="24.5046" r="2.93034" transform="rotate(90 282.708 24.5046)" fill="white" stroke="#B1B1B1"/>
<circle cx="262.126" cy="24.5046" r="2.93034" transform="rotate(90 262.126 24.5046)" fill="white" stroke="#B1B1B1"/>
<circle cx="241.691" cy="45.5295" r="2.93034" transform="rotate(90 241.691 45.5295)" fill="white" stroke="#B1B1B1"/>
<circle cx="282.855" cy="45.5295" r="2.93034" transform="rotate(90 282.855 45.5295)" fill="white" stroke="#B1B1B1"/>
<circle cx="262.271" cy="45.5295" r="2.93034" transform="rotate(90 262.271 45.5295)" fill="white" stroke="#B1B1B1"/>
<circle cx="241.691" cy="3.43034" r="2.93034" transform="rotate(90 241.691 3.43034)" fill="white" stroke="#B1B1B1"/>
<circle cx="282.855" cy="3.43034" r="2.93034" transform="rotate(90 282.855 3.43034)" fill="white" stroke="#B1B1B1"/>
<circle cx="262.271" cy="3.43034" r="2.93034" transform="rotate(90 262.271 3.43034)" fill="white" stroke="#B1B1B1"/>
<circle cx="241.542" cy="85.7043" r="2.93034" transform="rotate(90 241.542 85.7043)" fill="white" stroke="#B1B1B1"/>
<circle cx="282.708" cy="85.7043" r="2.93034" transform="rotate(90 282.708 85.7043)" fill="white" stroke="#B1B1B1"/>
<circle cx="262.126" cy="85.7043" r="2.93034" transform="rotate(90 262.126 85.7043)" fill="white" stroke="#B1B1B1"/>
<circle cx="241.691" cy="106.729" r="2.93034" transform="rotate(90 241.691 106.729)" fill="white" stroke="#B1B1B1"/>
<circle cx="282.855" cy="106.729" r="2.93034" transform="rotate(90 282.855 106.729)" fill="white" stroke="#B1B1B1"/>
<circle cx="262.271" cy="106.729" r="2.93034" transform="rotate(90 262.271 106.729)" fill="white" stroke="#B1B1B1"/>
<circle cx="241.691" cy="64.6301" r="2.93034" transform="rotate(90 241.691 64.6301)" fill="white" stroke="#B1B1B1"/>
<circle cx="282.855" cy="64.6301" r="2.93034" transform="rotate(90 282.855 64.6301)" fill="white" stroke="#B1B1B1"/>
<circle cx="262.271" cy="64.6301" r="2.93034" transform="rotate(90 262.271 64.6301)" fill="white" stroke="#B1B1B1"/>
<circle cx="300.708" cy="24.5046" r="2.93034" transform="rotate(90 300.708 24.5046)" fill="white" stroke="#B1B1B1"/>
<circle cx="341.874" cy="24.5046" r="2.93034" transform="rotate(90 341.874 24.5046)" fill="white" stroke="#B1B1B1"/>
<circle cx="321.292" cy="24.5046" r="2.93034" transform="rotate(90 321.292 24.5046)" fill="white" stroke="#B1B1B1"/>
<circle cx="300.857" cy="45.5295" r="2.93034" transform="rotate(90 300.857 45.5295)" fill="white" stroke="#B1B1B1"/>
<circle cx="342.021" cy="45.5295" r="2.93034" transform="rotate(90 342.021 45.5295)" fill="white" stroke="#B1B1B1"/>
<circle cx="321.437" cy="45.5295" r="2.93034" transform="rotate(90 321.437 45.5295)" fill="white" stroke="#B1B1B1"/>
<circle cx="300.857" cy="3.43034" r="2.93034" transform="rotate(90 300.857 3.43034)" fill="white" stroke="#B1B1B1"/>
<circle cx="342.021" cy="3.43034" r="2.93034" transform="rotate(90 342.021 3.43034)" fill="white" stroke="#B1B1B1"/>
<circle cx="321.437" cy="3.43034" r="2.93034" transform="rotate(90 321.437 3.43034)" fill="white" stroke="#B1B1B1"/>
<circle cx="300.542" cy="86.5046" r="2.93034" transform="rotate(90 300.542 86.5046)" fill="white" stroke="#B1B1B1"/>
<circle cx="341.708" cy="86.5046" r="2.93034" transform="rotate(90 341.708 86.5046)" fill="white" stroke="#B1B1B1"/>
<circle cx="321.126" cy="86.5046" r="2.93034" transform="rotate(90 321.126 86.5046)" fill="white" stroke="#B1B1B1"/>
<circle cx="300.691" cy="107.529" r="2.93034" transform="rotate(90 300.691 107.529)" fill="white" stroke="#B1B1B1"/>
<circle cx="341.855" cy="107.529" r="2.93034" transform="rotate(90 341.855 107.529)" fill="white" stroke="#B1B1B1"/>
<circle cx="321.271" cy="107.529" r="2.93034" transform="rotate(90 321.271 107.529)" fill="white" stroke="#B1B1B1"/>
<circle cx="300.691" cy="65.4303" r="2.93034" transform="rotate(90 300.691 65.4303)" fill="white" stroke="#B1B1B1"/>
<circle cx="341.855" cy="65.4303" r="2.93034" transform="rotate(90 341.855 65.4303)" fill="white" stroke="#B1B1B1"/>
<circle cx="321.271" cy="65.4303" r="2.93034" transform="rotate(90 321.271 65.4303)" fill="white" stroke="#B1B1B1"/>
<circle cx="3.54231" cy="148.505" r="2.93034" transform="rotate(90 3.54231 148.505)" fill="white" stroke="#B1B1B1"/>
<circle cx="44.7083" cy="148.505" r="2.93034" transform="rotate(90 44.7083 148.505)" fill="white" stroke="#B1B1B1"/>
<circle cx="24.1263" cy="148.505" r="2.93034" transform="rotate(90 24.1263 148.505)" fill="white" stroke="#B1B1B1"/>
<circle cx="3.69075" cy="169.529" r="2.93034" transform="rotate(90 3.69075 169.529)" fill="white" stroke="#B1B1B1"/>
<circle cx="44.8548" cy="169.529" r="2.93034" transform="rotate(90 44.8548 169.529)" fill="white" stroke="#B1B1B1"/>
<circle cx="24.2708" cy="169.529" r="2.93034" transform="rotate(90 24.2708 169.529)" fill="white" stroke="#B1B1B1"/>
<circle cx="3.69075" cy="127.43" r="2.93034" transform="rotate(90 3.69075 127.43)" fill="white" stroke="#B1B1B1"/>
<circle cx="44.8548" cy="127.43" r="2.93034" transform="rotate(90 44.8548 127.43)" fill="white" stroke="#B1B1B1"/>
<circle cx="24.2708" cy="127.43" r="2.93034" transform="rotate(90 24.2708 127.43)" fill="white" stroke="#B1B1B1"/>
<circle cx="3.54231" cy="209.704" r="2.93034" transform="rotate(90 3.54231 209.704)" fill="white" stroke="#B1B1B1"/>
<circle cx="44.7083" cy="209.704" r="2.93034" transform="rotate(90 44.7083 209.704)" fill="white" stroke="#B1B1B1"/>
<circle cx="24.1263" cy="209.704" r="2.93034" transform="rotate(90 24.1263 209.704)" fill="white" stroke="#B1B1B1"/>
<circle cx="3.69075" cy="230.729" r="2.93034" transform="rotate(90 3.69075 230.729)" fill="white" stroke="#B1B1B1"/>
<circle cx="44.8548" cy="230.729" r="2.93034" transform="rotate(90 44.8548 230.729)" fill="white" stroke="#B1B1B1"/>
<circle cx="24.2708" cy="230.729" r="2.93034" transform="rotate(90 24.2708 230.729)" fill="white" stroke="#B1B1B1"/>
<circle cx="3.69075" cy="188.63" r="2.93034" transform="rotate(90 3.69075 188.63)" fill="white" stroke="#B1B1B1"/>
<circle cx="44.8548" cy="188.63" r="2.93034" transform="rotate(90 44.8548 188.63)" fill="white" stroke="#B1B1B1"/>
<circle cx="24.2708" cy="188.63" r="2.93034" transform="rotate(90 24.2708 188.63)" fill="white" stroke="#B1B1B1"/>
<circle cx="62.7083" cy="148.505" r="2.93034" transform="rotate(90 62.7083 148.505)" fill="white" stroke="#B1B1B1"/>
<circle cx="103.874" cy="148.505" r="2.93034" transform="rotate(90 103.874 148.505)" fill="white" stroke="#B1B1B1"/>
<circle cx="83.2923" cy="148.505" r="2.93034" transform="rotate(90 83.2923 148.505)" fill="white" stroke="#B1B1B1"/>
<circle cx="62.8568" cy="169.529" r="2.93034" transform="rotate(90 62.8568 169.529)" fill="white" stroke="#B1B1B1"/>
<circle cx="104.021" cy="169.529" r="2.93034" transform="rotate(90 104.021 169.529)" fill="white" stroke="#B1B1B1"/>
<circle cx="83.4368" cy="169.529" r="2.93034" transform="rotate(90 83.4368 169.529)" fill="white" stroke="#B1B1B1"/>
<circle cx="62.8568" cy="127.43" r="2.93034" transform="rotate(90 62.8568 127.43)" fill="white" stroke="#B1B1B1"/>
<circle cx="104.021" cy="127.43" r="2.93034" transform="rotate(90 104.021 127.43)" fill="white" stroke="#B1B1B1"/>
<circle cx="83.4368" cy="127.43" r="2.93034" transform="rotate(90 83.4368 127.43)" fill="white" stroke="#B1B1B1"/>
<circle cx="62.5423" cy="210.505" r="2.93034" transform="rotate(90 62.5423 210.505)" fill="white" stroke="#B1B1B1"/>
<circle cx="103.708" cy="210.505" r="2.93034" transform="rotate(90 103.708 210.505)" fill="white" stroke="#B1B1B1"/>
<circle cx="83.1263" cy="210.505" r="2.93034" transform="rotate(90 83.1263 210.505)" fill="white" stroke="#B1B1B1"/>
<circle cx="62.6908" cy="231.529" r="2.93034" transform="rotate(90 62.6908 231.529)" fill="white" stroke="#B1B1B1"/>
<circle cx="103.855" cy="231.529" r="2.93034" transform="rotate(90 103.855 231.529)" fill="white" stroke="#B1B1B1"/>
<circle cx="83.2708" cy="231.529" r="2.93034" transform="rotate(90 83.2708 231.529)" fill="white" stroke="#B1B1B1"/>
<circle cx="62.6908" cy="189.43" r="2.93034" transform="rotate(90 62.6908 189.43)" fill="white" stroke="#B1B1B1"/>
<circle cx="103.855" cy="189.43" r="2.93034" transform="rotate(90 103.855 189.43)" fill="white" stroke="#B1B1B1"/>
<circle cx="83.2708" cy="189.43" r="2.93034" transform="rotate(90 83.2708 189.43)" fill="white" stroke="#B1B1B1"/>
<circle cx="241.542" cy="148.505" r="2.93034" transform="rotate(90 241.542 148.505)" fill="white" stroke="#B1B1B1"/>
<circle cx="282.708" cy="148.505" r="2.93034" transform="rotate(90 282.708 148.505)" fill="white" stroke="#B1B1B1"/>
<circle cx="262.126" cy="148.505" r="2.93034" transform="rotate(90 262.126 148.505)" fill="white" stroke="#B1B1B1"/>
<circle cx="241.691" cy="169.529" r="2.93034" transform="rotate(90 241.691 169.529)" fill="white" stroke="#B1B1B1"/>
<circle cx="282.855" cy="169.529" r="2.93034" transform="rotate(90 282.855 169.529)" fill="white" stroke="#B1B1B1"/>
<circle cx="262.271" cy="169.529" r="2.93034" transform="rotate(90 262.271 169.529)" fill="white" stroke="#B1B1B1"/>
<circle cx="241.691" cy="127.43" r="2.93034" transform="rotate(90 241.691 127.43)" fill="white" stroke="#B1B1B1"/>
<circle cx="282.855" cy="127.43" r="2.93034" transform="rotate(90 282.855 127.43)" fill="white" stroke="#B1B1B1"/>
<circle cx="262.271" cy="127.43" r="2.93034" transform="rotate(90 262.271 127.43)" fill="white" stroke="#B1B1B1"/>
<circle cx="241.542" cy="209.704" r="2.93034" transform="rotate(90 241.542 209.704)" fill="white" stroke="#B1B1B1"/>
<circle cx="282.708" cy="209.704" r="2.93034" transform="rotate(90 282.708 209.704)" fill="white" stroke="#B1B1B1"/>
<circle cx="262.126" cy="209.704" r="2.93034" transform="rotate(90 262.126 209.704)" fill="white" stroke="#B1B1B1"/>
<circle cx="241.691" cy="230.729" r="2.93034" transform="rotate(90 241.691 230.729)" fill="white" stroke="#B1B1B1"/>
<circle cx="282.855" cy="230.729" r="2.93034" transform="rotate(90 282.855 230.729)" fill="white" stroke="#B1B1B1"/>
<circle cx="262.271" cy="230.729" r="2.93034" transform="rotate(90 262.271 230.729)" fill="white" stroke="#B1B1B1"/>
<circle cx="241.691" cy="188.63" r="2.93034" transform="rotate(90 241.691 188.63)" fill="white" stroke="#B1B1B1"/>
<circle cx="282.855" cy="188.63" r="2.93034" transform="rotate(90 282.855 188.63)" fill="white" stroke="#B1B1B1"/>
<circle cx="262.271" cy="188.63" r="2.93034" transform="rotate(90 262.271 188.63)" fill="white" stroke="#B1B1B1"/>
<circle cx="181.542" cy="209.704" r="2.93034" transform="rotate(90 181.542 209.704)" fill="white" stroke="#B1B1B1"/>
<circle cx="222.708" cy="209.704" r="2.93034" transform="rotate(90 222.708 209.704)" fill="white" stroke="#B1B1B1"/>
<circle cx="202.126" cy="209.704" r="2.93034" transform="rotate(90 202.126 209.704)" fill="white" stroke="#B1B1B1"/>
<circle cx="181.691" cy="230.729" r="2.93034" transform="rotate(90 181.691 230.729)" fill="white" stroke="#B1B1B1"/>
<circle cx="222.855" cy="230.729" r="2.93034" transform="rotate(90 222.855 230.729)" fill="white" stroke="#B1B1B1"/>
<circle cx="202.271" cy="230.729" r="2.93034" transform="rotate(90 202.271 230.729)" fill="white" stroke="#B1B1B1"/>
<circle cx="181.691" cy="188.63" r="2.93034" transform="rotate(90 181.691 188.63)" fill="white" stroke="#B1B1B1"/>
<circle cx="222.855" cy="188.63" r="2.93034" transform="rotate(90 222.855 188.63)" fill="white" stroke="#B1B1B1"/>
<circle cx="202.271" cy="188.63" r="2.93034" transform="rotate(90 202.271 188.63)" fill="white" stroke="#B1B1B1"/>
<circle cx="300.708" cy="148.505" r="2.93034" transform="rotate(90 300.708 148.505)" fill="white" stroke="#B1B1B1"/>
<circle cx="341.874" cy="148.505" r="2.93034" transform="rotate(90 341.874 148.505)" fill="white" stroke="#B1B1B1"/>
<circle cx="321.292" cy="148.505" r="2.93034" transform="rotate(90 321.292 148.505)" fill="white" stroke="#B1B1B1"/>
<circle cx="300.857" cy="169.529" r="2.93034" transform="rotate(90 300.857 169.529)" fill="white" stroke="#B1B1B1"/>
<circle cx="342.021" cy="169.529" r="2.93034" transform="rotate(90 342.021 169.529)" fill="white" stroke="#B1B1B1"/>
<circle cx="321.437" cy="169.529" r="2.93034" transform="rotate(90 321.437 169.529)" fill="white" stroke="#B1B1B1"/>
<circle cx="300.857" cy="127.43" r="2.93034" transform="rotate(90 300.857 127.43)" fill="white" stroke="#B1B1B1"/>
<circle cx="342.021" cy="127.43" r="2.93034" transform="rotate(90 342.021 127.43)" fill="white" stroke="#B1B1B1"/>
<circle cx="321.437" cy="127.43" r="2.93034" transform="rotate(90 321.437 127.43)" fill="white" stroke="#B1B1B1"/>
<circle cx="300.542" cy="210.505" r="2.93034" transform="rotate(90 300.542 210.505)" fill="white" stroke="#B1B1B1"/>
<circle cx="341.708" cy="210.505" r="2.93034" transform="rotate(90 341.708 210.505)" fill="white" stroke="#B1B1B1"/>
<circle cx="321.126" cy="210.505" r="2.93034" transform="rotate(90 321.126 210.505)" fill="white" stroke="#B1B1B1"/>
<circle cx="300.691" cy="231.529" r="2.93034" transform="rotate(90 300.691 231.529)" fill="white" stroke="#B1B1B1"/>
<circle cx="341.855" cy="231.529" r="2.93034" transform="rotate(90 341.855 231.529)" fill="white" stroke="#B1B1B1"/>
<circle cx="321.271" cy="231.529" r="2.93034" transform="rotate(90 321.271 231.529)" fill="white" stroke="#B1B1B1"/>
<circle cx="300.691" cy="189.43" r="2.93034" transform="rotate(90 300.691 189.43)" fill="white" stroke="#B1B1B1"/>
<circle cx="341.855" cy="189.43" r="2.93034" transform="rotate(90 341.855 189.43)" fill="white" stroke="#B1B1B1"/>
<circle cx="321.271" cy="189.43" r="2.93034" transform="rotate(90 321.271 189.43)" fill="white" stroke="#B1B1B1"/>
</svg>
