<svg width="176" height="204" viewBox="0 0 176 204" fill="none" xmlns="http://www.w3.org/2000/svg">
<g clip-path="url(#clip0)">
<path d="M87.6133 204C135.938 204 175.113 181.674 175.113 154.135C175.113 126.595 135.938 104.27 87.6133 104.27C39.2884 104.27 0.113281 126.595 0.113281 154.135C0.113281 181.674 39.2884 204 87.6133 204Z" fill="#F5F5F5"/>
<path d="M124.026 185.58L58.7104 147.747C58.1359 147.415 57.6586 146.937 57.3268 146.361C56.995 145.785 56.8203 145.131 56.8203 144.466C56.8203 143.801 56.995 143.147 57.3268 142.571C57.6586 141.995 58.1359 141.517 58.7104 141.185L65.1536 137.109C66.2658 136.467 67.5268 136.128 68.8103 136.128C70.0939 136.128 71.3549 136.467 72.4671 137.109L137.791 174.947C138.366 175.279 138.843 175.757 139.175 176.333C139.507 176.909 139.681 177.563 139.681 178.228C139.681 178.893 139.507 179.547 139.175 180.122C138.843 180.698 138.366 181.177 137.791 181.509L131.348 185.58C130.235 186.226 128.973 186.566 127.687 186.566C126.401 186.566 125.138 186.226 124.026 185.58Z" fill="#E0E0E0"/>
<path d="M24.7131 151.088C32.5413 151.088 38.8872 147.432 38.8872 142.923C38.8872 138.413 32.5413 134.757 24.7131 134.757C16.885 134.757 10.5391 138.413 10.5391 142.923C10.5391 147.432 16.885 151.088 24.7131 151.088Z" fill="#E6E6E6"/>
<path d="M147.187 152.959L153.404 156.545C153.404 156.545 150.229 146.535 151.921 136.445C152.56 132.632 153.932 130.739 154.412 129.719C154.891 128.699 158.608 122.395 155.3 119.509C151.992 116.622 144.296 122.427 144.714 137.96C144.903 143.044 145.734 148.084 147.187 152.959Z" fill="#00B4D8"/>
<path opacity="0.5" d="M147.187 152.959L153.404 156.545C153.404 156.545 150.229 146.535 151.921 136.445C152.56 132.632 153.932 130.739 154.412 129.719C154.891 128.699 158.608 122.395 155.3 119.509C151.992 116.622 144.296 122.427 144.714 137.96C144.903 143.044 145.734 148.084 147.187 152.959Z" fill="black"/>
<path d="M150.078 154.848C150.033 154.848 149.988 154.835 149.951 154.81C149.913 154.784 149.885 154.748 149.869 154.705C149.847 154.638 147.471 148.125 147.547 137.657C147.622 127.189 153.106 121.505 153.159 121.451C153.18 121.43 153.205 121.414 153.232 121.402C153.259 121.391 153.288 121.385 153.317 121.385C153.346 121.385 153.375 121.391 153.402 121.402C153.43 121.414 153.454 121.43 153.475 121.451C153.496 121.472 153.512 121.496 153.523 121.524C153.535 121.551 153.54 121.58 153.54 121.609C153.54 121.639 153.535 121.668 153.523 121.695C153.512 121.722 153.496 121.747 153.475 121.767C153.421 121.821 148.066 127.336 147.991 137.662C147.915 147.987 150.26 154.491 150.286 154.554C150.306 154.609 150.304 154.67 150.279 154.724C150.254 154.777 150.209 154.819 150.153 154.839C150.129 154.846 150.103 154.849 150.078 154.848Z" fill="white"/>
<path d="M149.78 154.491L158.28 159.391C159.165 159.916 160.215 160.087 161.221 159.87C162.227 159.653 163.114 159.064 163.706 158.219C164.268 157.341 164.506 156.293 164.376 155.257C163.968 150.829 162.05 149.809 164.399 147.836C166.748 145.862 167.36 145.724 167.227 143.827C167.094 141.929 165.802 141.1 165.189 140.352C164.576 139.604 162.88 138.036 164.034 135.719C165.189 133.403 166.765 131.162 164.376 130.137C162.951 129.523 160.575 130.342 159.012 132.044C157.449 133.746 156.161 134.971 154.665 135.381C153.169 135.79 150.051 135.857 150.185 138.445C150.318 141.034 151.002 141.92 150.389 143.074C149.234 145.23 144.212 146.455 149.78 154.491Z" fill="#00B4D8"/>
<path d="M153.981 157.128C153.926 157.127 153.873 157.105 153.832 157.067C153.791 157.03 153.765 156.979 153.759 156.923C153.759 156.772 152.453 141.484 162.933 131.309C162.976 131.273 163.031 131.255 163.087 131.259C163.143 131.262 163.196 131.286 163.235 131.327C163.273 131.368 163.295 131.421 163.296 131.477C163.297 131.534 163.277 131.588 163.239 131.63C152.911 141.657 154.19 156.732 154.203 156.883C154.208 156.942 154.19 157 154.152 157.045C154.115 157.09 154.061 157.118 154.003 157.124L153.981 157.128Z" fill="white"/>
<path d="M155.664 143.969C155.608 143.969 155.554 143.948 155.513 143.91C155.472 143.872 155.446 143.82 155.442 143.764C155.349 142.58 155.016 141.426 154.464 140.375C153.912 139.323 153.152 138.395 152.231 137.648C152.207 137.631 152.187 137.61 152.171 137.585C152.155 137.56 152.145 137.532 152.14 137.503C152.135 137.474 152.136 137.445 152.142 137.416C152.149 137.387 152.161 137.36 152.178 137.336C152.194 137.312 152.215 137.292 152.24 137.276C152.264 137.261 152.291 137.25 152.32 137.245C152.349 137.24 152.378 137.241 152.406 137.247C152.434 137.254 152.461 137.266 152.484 137.283C153.466 138.064 154.275 139.041 154.861 140.152C155.446 141.263 155.795 142.484 155.886 143.738C155.891 143.797 155.872 143.856 155.834 143.902C155.796 143.948 155.741 143.977 155.682 143.983L155.664 143.969Z" fill="white"/>
<path d="M154.939 146.593C154.885 146.594 154.833 146.575 154.793 146.54C154.748 146.5 154.722 146.445 154.717 146.386C154.713 146.327 154.732 146.269 154.77 146.223C154.877 146.099 157.501 143.194 163.651 143.965C163.71 143.973 163.762 144.003 163.798 144.05C163.834 144.097 163.85 144.156 163.842 144.214C163.835 144.273 163.804 144.326 163.758 144.363C163.711 144.4 163.652 144.417 163.594 144.41C157.688 143.666 155.126 146.491 155.099 146.517C155.079 146.54 155.054 146.559 155.027 146.572C154.999 146.585 154.969 146.592 154.939 146.593Z" fill="white"/>
<path d="M122.036 181.059L64.594 147.787C60.5399 145.44 57.2539 139.141 57.2539 133.719V10.3261C57.2539 4.90477 60.5399 2.41463 64.594 4.76222L122.036 38.0339C126.09 40.3815 129.376 46.6803 129.376 52.1016V175.495C129.376 180.912 126.09 183.406 122.036 181.059Z" fill="#455A64"/>
<path d="M128.652 34.1536L71.2051 0.881906C69.4733 -0.120387 67.8836 -0.236208 66.6269 0.378532C66.4731 0.455823 66.3247 0.543638 66.1829 0.641355L59.7441 4.39661C61.0408 3.61705 62.737 3.67496 64.5976 4.75298L122.04 38.0247C126.094 40.3722 129.38 46.6711 129.38 52.0924V175.486C129.38 178.355 128.461 180.386 126.995 181.348L133.35 177.637C134.971 176.773 136.014 174.657 136.014 171.624V48.2302C136.014 42.8 132.706 36.5012 128.652 34.1536Z" fill="#37474F"/>
<path d="M129.377 52.0921V175.486C129.377 178.354 128.458 180.386 126.992 181.348L133.351 177.637C134.972 176.773 136.015 174.657 136.015 171.623V48.23L129.399 52.0832L129.377 52.0921Z" fill="#263238"/>
<path d="M133.094 77.7109C132.503 78.0539 132.023 77.6886 132.023 76.9001V70.4632C132.029 70.0608 132.129 69.6654 132.315 69.3088C132.501 68.9522 132.768 68.6442 133.094 68.4096C133.684 68.0666 134.164 68.4096 134.164 69.2203V75.6573C134.158 76.0597 134.058 76.4551 133.872 76.8117C133.686 77.1683 133.42 77.4763 133.094 77.7109Z" fill="#37474F"/>
<path d="M132.018 76.918V70.4632C132.024 70.0608 132.124 69.6655 132.31 69.3088C132.496 68.9522 132.763 68.6442 133.089 68.4096C133.186 68.3413 133.3 68.2996 133.418 68.2887C133.536 68.2777 133.655 68.2979 133.764 68.3473L132.96 67.933C132.85 67.8799 132.728 67.8569 132.606 67.8663C132.485 67.8757 132.368 67.9171 132.267 67.9865C131.941 68.2211 131.674 68.5289 131.487 68.8855C131.301 69.242 131.2 69.6374 131.193 70.04V76.4725C131.176 76.635 131.201 76.7991 131.264 76.9495C131.328 77.0998 131.429 77.2315 131.557 77.3323L132.396 77.7777C132.262 77.6812 132.157 77.5506 132.091 77.3994C132.024 77.2483 131.999 77.082 132.018 76.918Z" fill="#455A64"/>
<path d="M133.094 93.2889C132.503 93.6319 132.023 93.2889 132.023 92.4782V86.0412C132.03 85.6389 132.13 85.2437 132.316 84.8871C132.501 84.5305 132.768 84.2225 133.094 83.9876C133.684 83.6446 134.164 83.9877 134.164 84.8028V91.2353C134.158 91.6379 134.059 92.0335 133.873 92.3902C133.687 92.747 133.42 93.0548 133.094 93.2889Z" fill="#37474F"/>
<path d="M132.019 92.478V86.0411C132.025 85.6387 132.125 85.2435 132.311 84.8869C132.497 84.5303 132.763 84.2223 133.089 83.9875C133.187 83.9203 133.3 83.8794 133.418 83.8685C133.536 83.8575 133.655 83.877 133.764 83.9251L132.96 83.5064C132.851 83.451 132.728 83.4266 132.606 83.4361C132.484 83.4455 132.367 83.4883 132.267 83.5598C131.94 83.7937 131.673 84.1014 131.486 84.4581C131.299 84.8148 131.199 85.2106 131.193 85.6134V92.0637C131.176 92.2263 131.2 92.3905 131.264 92.5409C131.328 92.6913 131.428 92.823 131.557 92.9235L132.396 93.3689C132.257 93.2701 132.148 93.1345 132.082 92.9771C132.015 92.8198 131.993 92.647 132.019 92.478Z" fill="#455A64"/>
<path opacity="0.9" d="M120.029 41.4948L63.5818 8.78883C63.3462 8.65287 63.0793 8.58108 62.8075 8.58057C62.5357 8.58006 62.2685 8.65086 62.0324 8.78594C61.7963 8.92102 61.5996 9.11569 61.4616 9.35062C61.3237 9.58555 61.2494 9.85259 61.2461 10.1252V133.719C61.2461 137.844 64.1635 142.909 67.7248 144.971L122.787 176.88C123.048 177.031 123.344 177.11 123.645 177.11C123.947 177.109 124.243 177.03 124.503 176.879C124.764 176.727 124.981 176.51 125.132 176.248C125.283 175.987 125.362 175.69 125.362 175.388V50.7738C125.385 47.3704 122.978 43.1964 120.029 41.4948Z" fill="white"/>
<path d="M65.0059 62.1915C66.8076 59.9716 67.7145 57.1549 67.5478 54.2971C67.381 51.4393 66.1526 48.748 64.105 46.7542C62.0574 44.7604 59.3392 43.6088 56.4868 43.5267C53.6344 43.4446 50.8549 44.4379 48.6967 46.3107C46.5385 48.1834 45.1583 50.7996 44.8285 53.6431C44.4986 56.4866 45.243 59.3508 46.9149 61.6707C48.5868 63.9906 51.0646 65.5977 53.8596 66.1749C56.6546 66.752 59.5637 66.2574 62.013 64.7885L67.5725 67.2119L65.0059 62.1915Z" fill="#F3752B"/>
<path d="M51.9334 54.3513C51.9334 54.1776 51.809 54.0796 51.5826 54.0796C51.0573 54.1486 50.5667 54.3807 50.1794 54.7433L49.5488 53.5139C50.2126 53.0128 51.0143 52.7297 51.8446 52.7031C52.9103 52.7031 53.7185 53.2644 53.7185 54.1019C53.7185 54.6988 53.2744 55.2734 52.706 55.8481L51.9112 56.6366H53.7895V57.9462H49.7531V56.8727L51.5515 55.0062C51.7451 54.8343 51.8789 54.6049 51.9334 54.3513Z" fill="white"/>
<path d="M57.0742 52.7788L55.8486 55.7278H56.3504V54.7344H57.8957V55.7278H58.4818V56.9439H57.8957V57.9462H56.3504V56.9439H54.1523V55.8391L55.4845 52.7788H57.0742Z" fill="white"/>
<path d="M63.2526 55.3759V57.9463H61.6007V55.8526C61.6103 55.7844 61.6051 55.715 61.5856 55.649C61.5661 55.583 61.5327 55.5219 61.4876 55.47C61.4426 55.4181 61.387 55.3764 61.3245 55.3479C61.262 55.3194 61.1942 55.3046 61.1256 55.3047C60.8014 55.3047 60.5972 55.5586 60.5972 55.9506V57.9463H58.9453V52.4849H60.5972V54.4939C60.7264 54.289 60.9065 54.1213 61.1198 54.0073C61.3331 53.8933 61.5723 53.8369 61.8139 53.8435C62.0119 53.8384 62.2087 53.8753 62.3915 53.9517C62.5743 54.0281 62.739 54.1424 62.8748 54.287C63.0106 54.4316 63.1144 54.6034 63.1795 54.791C63.2446 54.9787 63.2695 55.178 63.2526 55.3759Z" fill="white"/>
<path d="M117.116 96.7682V152.117C117.117 152.743 116.953 153.358 116.642 153.901C116.33 154.443 115.882 154.894 115.342 155.207C114.802 155.521 114.189 155.686 113.565 155.686C112.941 155.686 112.328 155.522 111.787 155.209L82.0715 137.996L76.805 134.949C74.9916 133.897 73.4851 132.386 72.4362 130.567C71.3874 128.748 70.8329 126.684 70.8281 124.583V69.2296C70.8272 68.6036 70.9907 67.9884 71.3021 67.4459C71.6135 66.9034 72.0619 66.4528 72.6021 66.1394C73.1422 65.826 73.7552 65.6609 74.3792 65.6606C75.0032 65.6604 75.6163 65.8251 76.1567 66.1381L111.148 86.4022C112.962 87.4525 114.469 88.9634 115.516 90.783C116.564 92.6026 117.116 94.6669 117.116 96.7682Z" fill="#00B4D8"/>
<path opacity="0.5" d="M117.116 96.7682V152.117C117.117 152.743 116.953 153.358 116.642 153.901C116.33 154.443 115.882 154.894 115.342 155.207C114.802 155.521 114.189 155.686 113.565 155.686C112.941 155.686 112.328 155.522 111.787 155.209L82.0715 137.996L76.805 134.949C74.9916 133.897 73.4851 132.386 72.4362 130.567C71.3874 128.748 70.8329 126.684 70.8281 124.583V69.2296C70.8272 68.6036 70.9907 67.9884 71.3021 67.4459C71.6135 66.9034 72.0619 66.4528 72.6021 66.1394C73.1422 65.826 73.7552 65.6609 74.3792 65.6606C75.0032 65.6604 75.6163 65.8251 76.1567 66.1381L111.148 86.4022C112.962 87.4525 114.469 88.9634 115.516 90.783C116.564 92.6026 117.116 94.6669 117.116 96.7682Z" fill="white"/>
<path d="M99.9982 129.519C99.9982 129.519 105.562 138.775 101.543 149.212L82.0586 137.996L99.9982 129.519Z" fill="#263238"/>
<path d="M108.871 87.9244C109.292 84.4937 106.862 81.3701 103.442 80.9477C100.022 80.5252 96.9082 82.9639 96.4871 86.3946C96.066 89.8253 98.4969 92.9489 101.917 93.3714C105.337 93.7938 108.45 91.3551 108.871 87.9244Z" fill="#263238"/>
<path d="M102.711 69.6085C102.711 69.6085 104.625 66.4902 105.211 66.7174C105.797 66.9446 104.829 69.9158 104.829 69.9158C104.829 69.9158 107.724 70.5217 107.187 71.2522C106.65 71.9828 103.111 71.809 103.111 71.809L102.711 69.6085Z" fill="#263238"/>
<path d="M104.043 77.6446C102.711 87.6854 94.2736 87.6854 94.2736 87.6854L76.6004 79.8809C76.6004 79.8809 75.2683 78.7093 74.8597 76.0187C74.703 74.9166 74.703 73.7977 74.8597 72.6955C74.8597 72.6955 74.8597 72.6733 74.8597 72.6644C75.4237 68.4414 78.572 63.9021 85.4281 62.5078C86.9306 62.2035 88.4602 62.0542 89.993 62.0623C90.7345 62.0597 91.4756 62.0969 92.2132 62.1737C97.5418 62.6993 101.276 65.1939 103.057 69.0739C103.457 69.9496 103.755 70.869 103.945 71.8135C104.306 73.7377 104.339 75.7094 104.043 77.6446Z" fill="#263238"/>
<path d="M61.6139 97.0664C61.6139 97.0664 55.3395 96.8481 52.9238 102.982C52.9238 102.982 55.5881 104.786 59.0828 102.982C62.5775 101.178 61.6139 97.0664 61.6139 97.0664Z" fill="#00B4D8"/>
<path opacity="0.5" d="M61.6139 97.0664C61.6139 97.0664 55.3395 96.8481 52.9238 102.982C52.9238 102.982 55.5881 104.786 59.0828 102.982C62.5775 101.178 61.6139 97.0664 61.6139 97.0664Z" fill="black"/>
<path d="M61.4366 100.02C61.4366 100.02 59.6604 92.2779 58.7235 92.1844C57.7865 92.0908 57.6044 94.5453 57.6799 95.9307L55.4597 91.1376C55.3892 90.9886 55.2892 90.8557 55.1656 90.7471C55.042 90.6384 54.8975 90.5563 54.7411 90.5058C54.5846 90.4553 54.4196 90.4375 54.256 90.4534C54.0924 90.4694 53.9339 90.5188 53.7901 90.5985C51.5698 91.8236 47.6755 95.5476 55.886 104.755L61.4366 100.02Z" fill="#F3A68E"/>
<path d="M84.1723 94.6659L82.8402 94.4922C81.4976 94.3136 80.1319 94.4968 78.8833 95.0229C77.6347 95.5489 76.5482 96.399 75.7354 97.4857L67.8091 108.07L61.5924 97.067C61.5924 97.067 60.8464 104.551 52.9023 102.983L61.4325 117.385C61.9724 118.296 62.7238 119.064 63.6228 119.622C64.5218 120.179 65.5418 120.511 66.5961 120.589C67.6503 120.666 68.7076 120.487 69.678 120.066C70.6484 119.646 71.5032 118.996 72.1697 118.173L79.4698 109.17L84.1723 94.6659Z" fill="#00B4D8"/>
<path d="M101.09 119.367C99.3139 123.884 99.1185 124.766 100.202 127.024C100.957 128.692 101.551 130.429 101.978 132.21C101.978 132.21 93.7455 141.466 82.027 138.001L76.7606 134.954C75.6654 134.32 74.6789 133.514 73.8388 132.566L75.4418 120.574C75.5225 119.943 75.4587 119.301 75.2553 118.699L73.5723 113.75C72.7511 111.332 72.6289 108.731 73.2198 106.247C73.8108 103.763 75.0907 101.498 76.9116 99.713L82.5688 94.167L97.4267 96.0736L99.6469 96.7106C101.1 97.1323 102.353 98.066 103.176 99.3402C103.998 100.614 104.334 102.143 104.123 103.646C103.395 108.903 102.205 116.529 101.09 119.367Z" fill="#00B4D8"/>
<path opacity="0.5" d="M101.09 119.367C99.3139 123.884 99.1185 124.766 100.202 127.024C100.957 128.692 101.551 130.429 101.978 132.21C101.978 132.21 93.7455 141.466 82.027 138.001L76.7606 134.954C75.6654 134.32 74.6789 133.514 73.8388 132.566L75.4418 120.574C75.5225 119.943 75.4587 119.301 75.2553 118.699L73.5723 113.75C72.7511 111.332 72.6289 108.731 73.2198 106.247C73.8108 103.763 75.0907 101.498 76.9116 99.713L82.5688 94.167L97.4267 96.0736L99.6469 96.7106C101.1 97.1323 102.353 98.066 103.176 99.3402C103.998 100.614 104.334 102.143 104.123 103.646C103.395 108.903 102.205 116.529 101.09 119.367Z" fill="black"/>
<path d="M92.1299 105.873L89.1548 103.33C88.8397 103.059 88.4598 102.876 88.0525 102.798C87.6453 102.72 87.2247 102.75 86.8324 102.884L83.2356 104.127L82.7516 102.105C82.6761 101.79 82.5378 101.494 82.3451 101.235C82.1524 100.975 81.9093 100.757 81.6305 100.595C81.3516 100.432 81.0428 100.327 80.7226 100.288C80.4025 100.248 80.0776 100.273 79.7676 100.363L78.209 100.809L80.8466 95.7392C81.7079 94.0881 83.0345 92.7279 84.661 91.828L85.6957 91.2578L94.2436 91.7033C94.2436 91.7033 97.4275 93.0397 97.4275 96.0465L92.1299 105.847" fill="#00B4D8"/>
<path d="M94.2791 95.4987L85.709 102.198V80.8696H94.2791V95.4987Z" fill="#F3A68E"/>
<path d="M85.8409 93.7432L83.2344 104.14L94.2424 95.4983L85.8409 93.7432Z" fill="#F3A68E"/>
<path d="M85.7076 92.1978C87.6133 91.4879 89.3552 90.3969 90.8277 88.9909C92.3002 87.585 93.4725 85.8934 94.2733 84.0191V80.8696H85.7031L85.7076 92.1978Z" fill="#703838"/>
<path d="M87.5551 65.0601C84.3046 65.0601 77.3952 66.8775 76.5959 75.4126C75.7966 83.9477 76.5693 90.5584 80.9565 91.1999C85.3437 91.8413 95.5391 88.6473 96.9068 77.5999C98.2744 66.5524 90.7211 65.0601 87.5551 65.0601Z" fill="#F3A68E"/>
<path d="M82.4396 79.021V84.0547L79.5 83.1504L82.4396 79.021Z" fill="#703838"/>
<path d="M85.7088 80.9188C86.2729 80.9188 86.7301 80.4601 86.7301 79.8942C86.7301 79.3283 86.2729 78.8696 85.7088 78.8696C85.1448 78.8696 84.6875 79.3283 84.6875 79.8942C84.6875 80.4601 85.1448 80.9188 85.7088 80.9188Z" fill="#263238"/>
<path d="M80.0075 79.1814C80.0066 79.3838 79.9459 79.5815 79.8332 79.7494C79.7204 79.9173 79.5606 80.0479 79.3739 80.1248C79.1872 80.2016 78.982 80.2213 78.7842 80.1812C78.5864 80.1412 78.4048 80.0433 78.2624 79.8998C78.12 79.7563 78.0232 79.5738 77.9841 79.3752C77.9451 79.1765 77.9656 78.9708 78.043 78.7838C78.1204 78.5968 78.2513 78.4371 78.4192 78.3247C78.5871 78.2123 78.7843 78.1523 78.9862 78.1523C79.1207 78.1523 79.2538 78.179 79.378 78.2308C79.5022 78.2825 79.615 78.3584 79.7099 78.454C79.8048 78.5496 79.8799 78.6631 79.931 78.7879C79.9821 78.9127 80.0081 79.0464 80.0075 79.1814Z" fill="#263238"/>
<path d="M77.7369 77.0434L79.7351 75.854C79.7351 75.854 78.9714 75.0566 78.2076 75.5332C77.4438 76.0099 77.7369 77.0434 77.7369 77.0434Z" fill="#263238"/>
<path d="M81.0586 86.0949C82.0317 86.1662 83.0003 85.9056 83.8073 85.3555C83.8073 85.3555 83.9982 86.8121 82.7815 87.0883C81.5648 87.3645 81.0586 86.0949 81.0586 86.0949Z" fill="#703838"/>
<path d="M79.3145 67.9646C79.3145 67.9646 80.5356 79.7471 96.5081 80.1169C96.5081 80.1169 101.335 68.4056 91.7967 64.6014C82.2585 60.7971 79.3145 67.9646 79.3145 67.9646Z" fill="#263238"/>
<path d="M101.21 78.3526L99.247 77.2122C98.501 76.7668 97.4708 76.8291 96.3296 77.4884C94.0649 78.7981 92.2266 81.992 92.2266 84.6158C92.2266 85.9299 92.6706 86.8431 93.4344 87.2886L95.3615 88.4023L95.4726 88.4646L95.5392 88.5047C96.2674 88.8611 97.2399 88.7764 98.31 88.1573C100.575 86.8209 102.413 83.6536 102.413 81.0298C102.4 79.7024 101.942 78.7847 101.21 78.3526Z" fill="#00B4D8"/>
<path d="M101.195 85.0578C102.796 82.2752 102.796 79.2676 101.195 78.3401C99.5936 77.4126 96.9972 78.9164 95.3957 81.699C93.7943 84.4816 93.7943 87.4892 95.3957 88.4167C96.997 89.3442 99.5934 87.8404 101.195 85.0578Z" fill="#00B4D8"/>
<path opacity="0.5" d="M101.195 85.0578C102.796 82.2752 102.796 79.2676 101.195 78.3401C99.5936 77.4126 96.9972 78.9164 95.3957 81.699C93.7943 84.4816 93.7943 87.4892 95.3957 88.4167C96.997 89.3442 99.5934 87.8404 101.195 85.0578Z" fill="black"/>
<path d="M101.996 80.8249L100.663 80.0453C100.157 79.7424 99.4512 79.7825 98.6697 80.2324C97.8533 80.7676 97.1739 81.4881 96.6863 82.3354C96.1988 83.1828 95.9169 84.1333 95.8633 85.1102C95.8633 86.0012 96.1786 86.6382 96.6892 86.9322L98.0214 87.6939C98.045 87.7112 98.0703 87.7261 98.0968 87.7385L98.1413 87.7652C98.4535 87.884 98.79 87.9242 99.1214 87.8823C99.4527 87.8403 99.7687 87.7175 100.042 87.5246C100.858 86.9899 101.537 86.2701 102.024 85.4236C102.512 84.5771 102.794 83.6274 102.848 82.6513C102.813 81.747 102.502 81.1189 101.996 80.8249Z" fill="#00B4D8"/>
<path d="M102.813 82.6429C102.758 83.619 102.476 84.5687 101.989 85.4152C101.501 86.2618 100.822 86.9815 100.006 87.5163C98.452 88.4072 97.1953 87.6856 97.1953 85.8903C97.248 84.9133 97.5301 83.9626 98.0185 83.1157C98.507 82.2688 99.188 81.5497 100.006 81.017C101.556 80.1171 102.813 80.8432 102.813 82.6429Z" fill="#00B4D8"/>
<path opacity="0.3" d="M102.813 82.6429C102.758 83.619 102.476 84.5687 101.989 85.4152C101.501 86.2618 100.822 86.9815 100.006 87.5163C98.452 88.4072 97.1953 87.6856 97.1953 85.8903C97.248 84.9133 97.5301 83.9626 98.0185 83.1157C98.507 82.2688 99.188 81.5497 100.006 81.017C101.556 80.1171 102.813 80.8432 102.813 82.6429Z" fill="black"/>
<path d="M95.113 62.7615C93.84 61.7751 92.2809 61.2324 90.6725 61.2157H90.2773C88.6486 61.1981 87.0223 61.3474 85.4238 61.6612C85.7169 61.6612 86.01 61.6612 86.3119 61.6612H85.4238V62.4898H86.2498C89.0962 62.5869 91.7935 63.7906 93.7715 65.8463C95.7495 67.9021 96.8532 70.6489 96.8492 73.5061V77.0119C96.8491 77.1505 96.878 77.2875 96.9341 77.4142C96.9902 77.5408 97.0721 77.6543 97.1747 77.7471C97.2773 77.8399 97.3982 77.9101 97.5295 77.953C97.6609 77.996 97.7997 78.0107 97.9371 77.9964H98.0393L98.9274 77.7202C98.8682 77.7389 98.8071 77.7508 98.7453 77.7558C99.0101 77.7198 99.2523 77.5872 99.426 77.3835C99.5996 77.1798 99.6924 76.919 99.6867 76.6511V73.3992C99.6778 67.5146 97.1423 64.3518 95.113 62.7615Z" fill="#00B4D8"/>
<path d="M89.5224 90.9549C89.1562 90.9549 88.7942 90.8759 88.4611 90.7233L85.6858 89.4359C85.6424 89.4203 85.6027 89.3959 85.5691 89.3641C85.5356 89.3323 85.5091 89.2939 85.4911 89.2513C85.4732 89.2087 85.4642 89.1629 85.4649 89.1166C85.4655 89.0704 85.4757 89.0248 85.4949 88.9827C85.514 88.9406 85.5416 88.903 85.576 88.8721C85.6104 88.8413 85.6507 88.818 85.6946 88.8037C85.7384 88.7893 85.7847 88.7842 85.8306 88.7888C85.8765 88.7933 85.9209 88.8074 85.9611 88.83L88.7364 90.1174C89.0903 90.2826 89.4869 90.3327 89.8706 90.2608C90.2543 90.1889 90.606 89.9986 90.8767 89.7165L93.541 86.9546C93.6035 86.8921 93.6881 86.8569 93.7764 86.8569C93.8646 86.8569 93.9493 86.8921 94.0117 86.9546C94.073 87.0178 94.1073 87.1026 94.1073 87.1907C94.1073 87.2789 94.073 87.3636 94.0117 87.4268L91.3474 90.1887C91.1102 90.433 90.8264 90.6268 90.5128 90.7585C90.1992 90.8901 89.8623 90.9569 89.5224 90.9549Z" fill="#00B4D8"/>
<path opacity="0.5" d="M89.5224 90.9549C89.1562 90.9549 88.7942 90.8759 88.4611 90.7233L85.6858 89.4359C85.6424 89.4203 85.6027 89.3959 85.5691 89.3641C85.5356 89.3323 85.5091 89.2939 85.4911 89.2513C85.4732 89.2087 85.4642 89.1629 85.4649 89.1166C85.4655 89.0704 85.4757 89.0248 85.4949 88.9827C85.514 88.9406 85.5416 88.903 85.576 88.8721C85.6104 88.8413 85.6507 88.818 85.6946 88.8037C85.7384 88.7893 85.7847 88.7842 85.8306 88.7888C85.8765 88.7933 85.9209 88.8074 85.9611 88.83L88.7364 90.1174C89.0903 90.2826 89.4869 90.3327 89.8706 90.2608C90.2543 90.1889 90.606 89.9986 90.8767 89.7165L93.541 86.9546C93.6035 86.8921 93.6881 86.8569 93.7764 86.8569C93.8646 86.8569 93.9493 86.8921 94.0117 86.9546C94.073 87.0178 94.1073 87.1026 94.1073 87.1907C94.1073 87.2789 94.073 87.3636 94.0117 87.4268L91.3474 90.1887C91.1102 90.433 90.8264 90.6268 90.5128 90.7585C90.1992 90.8901 89.8623 90.9569 89.5224 90.9549Z" fill="black"/>
<path d="M86.4136 88.5005C86.4136 88.7577 86.3375 89.0092 86.195 89.2231C86.0526 89.437 85.8501 89.6037 85.6131 89.7022C85.3762 89.8006 85.1155 89.8264 84.864 89.7762C84.6125 89.726 84.3814 89.6021 84.2001 89.4202C84.0187 89.2383 83.8953 89.0065 83.8452 88.7542C83.7952 88.5019 83.8209 88.2404 83.919 88.0027C84.0171 87.765 84.1833 87.5619 84.3966 87.4189C84.6098 87.276 84.8605 87.1997 85.1169 87.1997C85.4608 87.1997 85.7906 87.3367 86.0338 87.5807C86.277 87.8246 86.4136 88.1555 86.4136 88.5005Z" fill="#00B4D8"/>
<path opacity="0.5" d="M86.4136 88.5005C86.4136 88.7577 86.3375 89.0092 86.195 89.2231C86.0526 89.437 85.8501 89.6037 85.6131 89.7022C85.3762 89.8006 85.1155 89.8264 84.864 89.7762C84.6125 89.726 84.3814 89.6021 84.2001 89.4202C84.0187 89.2383 83.8953 89.0065 83.8452 88.7542C83.7952 88.5019 83.8209 88.2404 83.919 88.0027C84.0171 87.765 84.1833 87.5619 84.3966 87.4189C84.6098 87.276 84.8605 87.1997 85.1169 87.1997C85.4608 87.1997 85.7906 87.3367 86.0338 87.5807C86.277 87.8246 86.4136 88.1555 86.4136 88.5005Z" fill="black"/>
<path d="M99.6773 73.3989V76.6508C99.683 76.9188 99.5902 77.1795 99.4166 77.3833C99.243 77.587 99.0007 77.7195 98.7359 77.7556C98.5896 77.7712 98.4417 77.7558 98.3018 77.7103C98.1618 77.6648 98.033 77.5902 97.9237 77.4915C97.8144 77.3927 97.727 77.272 97.6672 77.1371C97.6075 77.0023 97.5767 76.8563 97.5769 76.7087V73.3989C97.5794 71.8193 97.2634 70.2555 96.6477 68.8016C96.0321 67.3477 95.1296 66.0337 93.9946 64.9388C92.8597 63.8439 91.5156 62.9907 90.0433 62.4304C88.5711 61.8702 87.0011 61.6145 85.4277 61.6788C87.0262 61.365 88.6525 61.2157 90.2812 61.2333H90.6675C92.2759 61.25 93.835 61.7927 95.108 62.7791C97.1418 64.3516 99.6773 67.5144 99.6773 73.3989Z" fill="#00B4D8"/>
<path opacity="0.5" d="M99.6773 73.3989V76.6508C99.683 76.9188 99.5902 77.1795 99.4166 77.3833C99.243 77.587 99.0007 77.7195 98.7359 77.7556C98.5896 77.7712 98.4417 77.7558 98.3018 77.7103C98.1618 77.6648 98.033 77.5902 97.9237 77.4915C97.8144 77.3927 97.727 77.272 97.6672 77.1371C97.6075 77.0023 97.5767 76.8563 97.5769 76.7087V73.3989C97.5794 71.8193 97.2634 70.2555 96.6477 68.8016C96.0321 67.3477 95.1296 66.0337 93.9946 64.9388C92.8597 63.8439 91.5156 62.9907 90.0433 62.4304C88.5711 61.8702 87.0011 61.6145 85.4277 61.6788C87.0262 61.365 88.6525 61.2157 90.2812 61.2333H90.6675C92.2759 61.25 93.835 61.7927 95.108 62.7791C97.1418 64.3516 99.6773 67.5144 99.6773 73.3989Z" fill="black"/>
<path d="M94.6868 134.682C94.6868 134.682 92.5376 140.62 100.22 143.292C100.22 143.292 102.729 139.595 100.22 136.57C97.7108 133.546 94.6868 134.682 94.6868 134.682Z" fill="#00B4D8"/>
<path opacity="0.7" d="M94.6868 134.682C94.6868 134.682 92.5376 140.62 100.22 143.292C100.22 143.292 102.729 139.595 100.22 136.57C97.7108 133.546 94.6868 134.682 94.6868 134.682Z" fill="black"/>
<path d="M97.3834 134.953C97.3834 134.953 89.879 137.711 89.9189 138.78C89.9589 139.849 93.1072 139.118 93.1072 139.118L91.9571 139.876C90.746 140.668 89.8079 141.816 89.2706 143.163C89.1535 143.46 89.1494 143.79 89.2591 144.09C89.3689 144.39 89.5847 144.639 89.8656 144.789L92.7164 146.304C92.8774 146.389 93.0539 146.442 93.2354 146.458C93.417 146.474 93.5999 146.453 93.7733 146.397C93.9468 146.341 94.1073 146.251 94.2453 146.131C94.3834 146.012 94.4961 145.866 94.577 145.702C94.7359 145.387 94.9555 145.107 95.223 144.878C95.4905 144.648 95.8007 144.474 96.1356 144.366C97.6853 143.849 100.576 142.361 101.735 138.29L97.3834 134.953Z" fill="#F3A68E"/>
<path d="M99.6342 96.7012C99.6342 96.7012 95.6378 98.9285 97.7603 105.691C99.8829 112.453 103.866 122.943 103.866 122.943L94.6875 134.681C95.6681 134.8 96.6127 135.125 97.4597 135.634C98.3067 136.144 99.0371 136.827 99.6031 137.639C100.145 138.465 100.484 139.408 100.591 140.391C100.699 141.374 100.572 142.368 100.22 143.292L111.615 128.592C112.668 127.233 113.368 125.633 113.65 123.935C113.932 122.237 113.788 120.495 113.231 118.867L108.346 104.559C107.749 102.811 106.757 101.226 105.448 99.9268C104.138 98.6277 102.546 97.6502 100.798 97.0709L99.6342 96.7012Z" fill="#00B4D8"/>
<path d="M32.1732 56.7566L14.5134 46.5109C14.3101 46.3696 14.075 46.2814 13.8292 46.2541C13.5835 46.2269 13.3348 46.2616 13.1057 46.355C13.0575 46.3774 13.0114 46.4042 12.9681 46.4352L9.12705 48.6937H9.15369C8.66967 48.9699 8.36328 49.6113 8.36328 50.529V70.2363C8.36328 71.9023 9.37127 73.8401 10.6191 74.5618L28.2789 84.8074C28.503 84.97 28.7697 85.063 29.046 85.0749C29.3223 85.0868 29.596 85.017 29.8331 84.8742C29.8211 84.879 29.8104 84.8867 29.802 84.8965L33.6164 82.6692C34.1137 82.4019 34.429 81.7515 34.429 80.8205V61.082C34.429 59.416 33.4388 57.4782 32.1732 56.7566Z" fill="#F3752B"/>
<path d="M33.7984 58.6231C33.4411 57.8608 32.8781 57.2142 32.1731 56.7566L14.5133 46.5109C14.31 46.3696 14.0749 46.2814 13.8291 46.2541C13.5834 46.2269 13.3347 46.2616 13.1056 46.355C13.0574 46.3774 13.0113 46.4042 12.968 46.4352L9.12695 48.6937C9.36191 48.5732 9.62537 48.5199 9.88852 48.5395C10.1517 48.5592 10.4044 48.651 10.619 48.8051L28.2788 59.0507C29.0077 59.5288 29.5854 60.2057 29.944 61.0018L33.7984 58.6231Z" fill="#F3752B"/>
<path d="M30.5354 83.075C30.5354 83.966 30.2512 84.5852 29.8027 84.8569L33.6171 82.6296C34.1145 82.3623 34.4297 81.7119 34.4297 80.7809V61.0825C34.411 60.2251 34.1952 59.3836 33.7992 58.6235L29.9448 61.0023C30.3149 61.74 30.5166 62.551 30.5354 63.3766V83.075Z" fill="#F3752B"/>
<path opacity="0.3" d="M33.7984 58.6231C33.4411 57.8608 32.8781 57.2142 32.1731 56.7566L14.5133 46.5109C14.31 46.3696 14.0749 46.2814 13.8291 46.2541C13.5834 46.2269 13.3347 46.2616 13.1056 46.355C13.0574 46.3774 13.0113 46.4042 12.968 46.4352L9.12695 48.6937C9.36191 48.5732 9.62537 48.5199 9.88852 48.5395C10.1517 48.5592 10.4044 48.651 10.619 48.8051L28.2788 59.0507C29.0077 59.5288 29.5854 60.2057 29.944 61.0018L33.7984 58.6231Z" fill="black"/>
<path opacity="0.6" d="M30.5354 83.075C30.5354 83.966 30.2512 84.5852 29.8027 84.8569L33.6171 82.6296C34.1145 82.3623 34.4297 81.7119 34.4297 80.7809V61.0825C34.411 60.2251 34.1952 59.3836 33.7992 58.6235L29.9448 61.0023C30.3149 61.74 30.5166 62.551 30.5354 63.3766V83.075Z" fill="black"/>
<path d="M25.3572 69.0202C25.3572 71.5727 24.3492 72.4414 22.8394 71.5638C22.4229 71.326 22.0587 71.006 21.7687 70.6232C21.4787 70.2404 21.269 69.8028 21.152 69.3365C20.708 69.8844 20.0197 69.9201 19.0517 69.3588C17.462 68.4367 16.2097 66.2405 16.2097 64.1068C16.2097 61.973 17.4486 61.238 19.0517 62.1646C19.8651 62.6455 20.5221 63.3526 20.9433 64.2003V63.3584L22.6174 64.3295V68.9445C22.5924 69.1874 22.6343 69.4324 22.7384 69.6531C22.8425 69.8738 23.0049 70.0616 23.208 70.1963C23.7719 70.5259 24.1183 69.9691 24.1183 68.3164C24.1183 65.4254 22.271 62.3606 19.5401 60.7792C16.8092 59.1978 14.9664 60.2981 14.9664 63.2738C15.0022 64.8527 15.4359 66.3969 16.2271 67.7624C17.0183 69.1279 18.1412 70.2701 19.4913 71.0827C20.2243 71.5357 21.0567 71.8018 21.9158 71.8578L22.311 73.3947C21.3106 73.3137 20.344 72.9945 19.4913 72.4637C15.9389 70.4012 13.5898 66.2495 13.5898 62.4897C13.5898 58.73 15.9611 57.3669 19.5401 59.4428C22.9993 61.4429 25.3572 65.4476 25.3572 69.0202ZM20.97 66.8776C20.9786 66.3127 20.8412 65.7552 20.5712 65.2595C20.3011 64.7638 19.9076 64.3467 19.4291 64.0489C18.541 63.5277 17.906 63.893 17.906 65.1046C17.8946 65.6704 18.0287 66.2296 18.2955 66.7282C18.5623 67.2268 18.9527 67.648 19.4291 67.9511C20.3172 68.4545 20.97 68.1293 20.97 66.8776Z" fill="#F3752B"/>
<g opacity="0.9">
<path opacity="0.9" d="M25.3572 69.0202C25.3572 71.5727 24.3492 72.4414 22.8394 71.5638C22.4229 71.326 22.0587 71.006 21.7687 70.6232C21.4787 70.2404 21.269 69.8028 21.152 69.3365C20.708 69.8844 20.0197 69.9201 19.0517 69.3588C17.462 68.4367 16.2097 66.2405 16.2097 64.1068C16.2097 61.973 17.4486 61.238 19.0517 62.1646C19.8651 62.6455 20.5221 63.3526 20.9433 64.2003V63.3584L22.6174 64.3295V68.9445C22.5924 69.1874 22.6343 69.4324 22.7384 69.6531C22.8425 69.8738 23.0049 70.0616 23.208 70.1963C23.7719 70.5259 24.1183 69.9691 24.1183 68.3164C24.1183 65.4254 22.271 62.3606 19.5401 60.7792C16.8092 59.1978 14.9664 60.2981 14.9664 63.2738C15.0022 64.8527 15.4359 66.3969 16.2271 67.7624C17.0183 69.1279 18.1412 70.2701 19.4913 71.0827C20.2243 71.5357 21.0567 71.8018 21.9158 71.8578L22.311 73.3947C21.3106 73.3137 20.344 72.9945 19.4913 72.4637C15.9389 70.4012 13.5898 66.2495 13.5898 62.4897C13.5898 58.73 15.9611 57.3669 19.5401 59.4428C22.9993 61.4429 25.3572 65.4476 25.3572 69.0202ZM20.97 66.8776C20.9786 66.3127 20.8412 65.7552 20.5712 65.2595C20.3011 64.7638 19.9076 64.3467 19.4291 64.0489C18.541 63.5277 17.906 63.893 17.906 65.1046C17.8946 65.6704 18.0287 66.2296 18.2955 66.7282C18.5623 67.2268 18.9527 67.648 19.4291 67.9511C20.3172 68.4545 20.97 68.1293 20.97 66.8776Z" fill="white"/>
</g>
<path d="M32.1732 91.8504L14.5134 81.6047C14.3104 81.4626 14.075 81.3742 13.8289 81.3478C13.5829 81.3213 13.3341 81.3576 13.1057 81.4533C13.0575 81.4756 13.0114 81.5025 12.9681 81.5334L9.12705 83.7919H9.15369C8.66967 84.0681 8.36328 84.7096 8.36328 85.6228V105.321C8.36328 106.992 9.37127 108.925 10.6191 109.647L28.2789 119.892C28.5025 120.056 28.7694 120.15 29.0459 120.162C29.3225 120.173 29.5963 120.103 29.8331 119.959L29.802 119.986L33.6164 117.736C34.1137 117.473 34.429 116.845 34.429 115.888V96.1714C34.429 94.5053 33.4388 92.572 32.1732 91.8504Z" fill="#F3752B"/>
<path d="M33.7984 93.7169C33.4423 92.9538 32.879 92.3069 32.1731 91.8504L14.5133 81.6047C14.3103 81.4626 14.0749 81.3742 13.8288 81.3478C13.5828 81.3213 13.334 81.3576 13.1056 81.4533C13.0574 81.4756 13.0113 81.5025 12.968 81.5334L9.12695 83.7919C9.36138 83.6703 9.6247 83.616 9.88795 83.6348C10.1512 83.6537 10.4041 83.745 10.619 83.8988L28.2788 94.1445C29.0089 94.6232 29.5868 95.3019 29.944 96.1001L33.7984 93.7169Z" fill="#F3752B"/>
<path d="M30.5354 118.164C30.5354 119.055 30.2512 119.674 29.8027 119.968L33.6171 117.718C34.1145 117.456 34.4297 116.827 34.4297 115.87V96.1713C34.4109 95.3153 34.1951 94.4753 33.7992 93.7168L29.9448 96.0956C30.3148 96.8317 30.5166 97.6413 30.5354 98.4654V118.164Z" fill="#F3752B"/>
<path opacity="0.3" d="M33.7984 93.7169C33.4423 92.9538 32.879 92.3069 32.1731 91.8504L14.5133 81.6047C14.3103 81.4626 14.0749 81.3742 13.8288 81.3478C13.5828 81.3213 13.334 81.3576 13.1056 81.4533C13.0574 81.4756 13.0113 81.5025 12.968 81.5334L9.12695 83.7919C9.36138 83.6703 9.6247 83.616 9.88795 83.6348C10.1512 83.6537 10.4041 83.745 10.619 83.8988L28.2788 94.1445C29.0089 94.6232 29.5868 95.3019 29.944 96.1001L33.7984 93.7169Z" fill="black"/>
<path opacity="0.6" d="M30.5354 118.164C30.5354 119.055 30.2512 119.674 29.8027 119.968L33.6171 117.718C34.1145 117.456 34.4297 116.827 34.4297 115.87V96.1713C34.4109 95.3153 34.1951 94.4753 33.7992 93.7168L29.9448 96.0956C30.3148 96.8317 30.5166 97.6413 30.5354 98.4654V118.164Z" fill="black"/>
<path d="M17.4708 100.653L13.2168 93.7124V103.121L17.4708 100.653Z" fill="#F3752B"/>
<path d="M21.4316 102.653L25.6812 110.039V100.648L21.4316 102.653Z" fill="#F3752B"/>
<path d="M13.8613 93.4004L18.2352 100.528C18.2537 100.543 18.2702 100.561 18.2841 100.581C18.2879 100.599 18.2879 100.617 18.2841 100.635L19.5851 102.755L20.6864 102.234C20.7035 102.215 20.7229 102.199 20.7441 102.185C20.7875 102.16 20.8361 102.144 20.8862 102.14L25.3267 100.051L13.8613 93.4004Z" fill="#F3752B"/>
<path d="M20.7881 102.96L19.598 103.521C19.5522 103.543 19.5021 103.553 19.4515 103.552C19.3902 103.553 19.3298 103.538 19.2761 103.508C19.2224 103.479 19.1773 103.435 19.1451 103.383L17.844 101.263L13.5723 103.739L25.0687 110.395L20.7881 102.96Z" fill="#F3752B"/>
<g opacity="0.9">
<path opacity="0.9" d="M17.4708 100.652L13.2168 93.7119V103.12L17.4708 100.652Z" fill="white"/>
<path opacity="0.9" d="M21.4316 102.653L25.6812 110.039V100.648L21.4316 102.653Z" fill="white"/>
<path opacity="0.9" d="M13.8613 93.4004L18.2352 100.528C18.2537 100.543 18.2702 100.561 18.2841 100.581C18.2879 100.599 18.2879 100.617 18.2841 100.635L19.5851 102.755L20.6864 102.234C20.7035 102.215 20.7229 102.199 20.7441 102.185C20.7875 102.16 20.8361 102.144 20.8862 102.14L25.3267 100.051L13.8613 93.4004Z" fill="white"/>
<path opacity="0.9" d="M20.7881 102.96L19.598 103.521C19.5522 103.543 19.5021 103.553 19.4515 103.552C19.3902 103.553 19.3298 103.538 19.2761 103.508C19.2224 103.479 19.1773 103.435 19.1451 103.383L17.844 101.263L13.5723 103.739L25.0687 110.395L20.7881 102.96Z" fill="white"/>
</g>
<path d="M32.1732 21.6809L14.5134 11.4353C14.3104 11.2932 14.075 11.2048 13.8289 11.1783C13.5829 11.1519 13.3341 11.1881 13.1057 11.2838C13.0575 11.3062 13.0114 11.333 12.9681 11.364L9.12705 13.6225H9.15369C8.66967 13.8942 8.36328 14.5402 8.36328 15.4534V35.1517C8.36328 36.8178 9.37127 38.7555 10.6191 39.4772L28.2789 49.7229C28.5025 49.8865 28.7694 49.9802 29.0459 49.9921C29.3225 50.004 29.5963 49.9336 29.8331 49.7897L29.802 49.812L33.6164 47.5846C34.1137 47.3218 34.429 46.6937 34.429 45.736V25.9886C34.429 24.3225 33.4388 22.3848 32.1732 21.6809Z" fill="#F3752B"/>
<path d="M33.7984 23.5341C33.4424 22.7698 32.8792 22.1214 32.1731 21.6631L14.5133 11.4353C14.3103 11.2932 14.0749 11.2048 13.8288 11.1783C13.5828 11.1519 13.334 11.1881 13.1056 11.2838C13.0574 11.3062 13.0113 11.333 12.968 11.364L9.12695 13.6225C9.36138 13.5009 9.6247 13.4465 9.88795 13.4654C10.1512 13.4843 10.4041 13.5756 10.619 13.7294L28.2788 23.9751C29.0089 24.4538 29.5868 25.1325 29.944 25.9307L33.7984 23.5341Z" fill="#F3752B"/>
<path d="M30.5354 47.9634C30.5354 48.8543 30.2512 49.4735 29.8027 49.7452L33.6171 47.5179C34.1145 47.2551 34.4297 46.627 34.4297 45.6693V25.9887C34.4109 25.1327 34.1951 24.2927 33.7992 23.5342L29.9448 25.913C30.3148 26.6491 30.5166 27.4586 30.5354 28.2828V47.9634Z" fill="#F3752B"/>
<path opacity="0.3" d="M33.7984 23.5341C33.4424 22.7698 32.8792 22.1214 32.1731 21.6631L14.5133 11.4353C14.3103 11.2932 14.0749 11.2048 13.8288 11.1783C13.5828 11.1519 13.334 11.1881 13.1056 11.2838C13.0574 11.3062 13.0113 11.333 12.968 11.364L9.12695 13.6225C9.36138 13.5009 9.6247 13.4465 9.88795 13.4654C10.1512 13.4843 10.4041 13.5756 10.619 13.7294L28.2788 23.9751C29.0089 24.4538 29.5868 25.1325 29.944 25.9307L33.7984 23.5341Z" fill="black"/>
<path opacity="0.6" d="M30.5354 47.9634C30.5354 48.8543 30.2512 49.4735 29.8027 49.7452L33.6171 47.5179C34.1145 47.2551 34.4297 46.627 34.4297 45.6693V25.9887C34.4109 25.1327 34.1951 24.2927 33.7992 23.5342L29.9448 25.913C30.3148 26.6491 30.5166 27.4586 30.5354 28.2828V47.9634Z" fill="black"/>
<path d="M24.7575 39.4994C24.0781 38.3768 23.3942 37.2721 22.7148 36.1406C22.6071 35.9263 22.4564 35.7366 22.2723 35.5833C22.0882 35.43 21.8745 35.3164 21.6447 35.2497C21.3161 35.1829 20.9875 35.1071 20.65 35.0091C20.5298 34.9589 20.4287 34.8715 20.3614 34.7597C19.2496 32.8509 18.3658 30.8175 17.7282 28.7014C17.7146 28.6561 17.7107 28.6085 17.7169 28.5617C17.723 28.5148 17.7389 28.4698 17.7637 28.4296C17.9724 28.2203 18.2077 28.0287 18.4209 27.8416C18.634 27.6545 18.745 27.2224 18.5896 26.6612C18.261 25.4718 17.9457 24.2824 17.6171 23.0974C17.5536 22.7608 17.4027 22.4468 17.1798 22.1872C16.9568 21.9276 16.6697 21.7314 16.3472 21.6185C15.6311 21.4188 14.8709 21.4468 14.1713 21.6987C13.9004 21.8011 13.7583 22.0461 13.7539 22.4693C13.8694 23.2845 13.9448 24.0908 14.1003 24.9194C15.1956 30.8945 17.8303 36.3886 22.0044 41.4015C22.1133 41.5678 22.2597 41.706 22.4317 41.805C22.6037 41.9041 22.7965 41.9612 22.9946 41.9717C23.6856 41.9553 24.3495 41.6986 24.8729 41.2456C25.2681 40.8893 25.2282 40.2567 24.7575 39.4994Z" fill="#F3752B"/>
<path d="M24.7039 33.4279C24.611 32.1466 24.259 30.8977 23.6693 29.7573C23.229 28.8664 22.6687 28.0405 22.0041 27.3028C21.8309 27.1068 21.6844 27.0444 21.5956 27.1914C21.5068 27.3384 21.5956 27.5478 21.7643 27.7393L21.9375 27.9398C23.1648 29.361 23.9383 31.1194 24.1577 32.9869C24.1556 33.1231 24.169 33.2591 24.1977 33.3923C24.2535 33.5455 24.343 33.684 24.4597 33.7976C24.5529 33.8644 24.6595 33.7976 24.735 33.7976C24.7083 33.615 24.7128 33.5214 24.7039 33.4279Z" fill="#F3752B"/>
<path d="M20.6822 29.7705C21.2398 30.3858 21.5786 31.169 21.6458 31.9978C21.675 32.1239 21.7213 32.2453 21.7834 32.3587C22.0543 32.5814 22.1875 32.5057 22.1875 32.225C22.0926 31.1623 21.6544 30.1597 20.9397 29.3696C20.771 29.1959 20.6333 29.1424 20.5534 29.2894C20.5246 29.3734 20.5215 29.464 20.5445 29.5497C20.5674 29.6354 20.6154 29.7123 20.6822 29.7705Z" fill="#F3752B"/>
<g opacity="0.9">
<path opacity="0.9" d="M24.7575 39.4994C24.0781 38.3768 23.3942 37.2721 22.7148 36.1406C22.6071 35.9263 22.4564 35.7366 22.2723 35.5833C22.0882 35.43 21.8745 35.3164 21.6447 35.2497C21.3161 35.1829 20.9875 35.1071 20.65 35.0091C20.5298 34.9589 20.4287 34.8715 20.3614 34.7597C19.2496 32.8509 18.3658 30.8175 17.7282 28.7014C17.7146 28.6561 17.7107 28.6085 17.7169 28.5617C17.723 28.5148 17.7389 28.4698 17.7637 28.4296C17.9724 28.2203 18.2077 28.0287 18.4209 27.8416C18.634 27.6545 18.745 27.2224 18.5896 26.6612C18.261 25.4718 17.9457 24.2824 17.6171 23.0974C17.5536 22.7608 17.4027 22.4468 17.1798 22.1872C16.9568 21.9276 16.6697 21.7314 16.3472 21.6185C15.6311 21.4188 14.8709 21.4468 14.1713 21.6987C13.9004 21.8011 13.7583 22.0461 13.7539 22.4693C13.8694 23.2845 13.9448 24.0908 14.1003 24.9194C15.1956 30.8945 17.8303 36.3886 22.0044 41.4015C22.1133 41.5678 22.2597 41.706 22.4317 41.805C22.6037 41.9041 22.7965 41.9612 22.9946 41.9717C23.6856 41.9553 24.3495 41.6986 24.8729 41.2456C25.2681 40.8893 25.2282 40.2567 24.7575 39.4994Z" fill="white"/>
<path opacity="0.9" d="M24.7039 33.4279C24.611 32.1466 24.259 30.8977 23.6693 29.7573C23.229 28.8664 22.6687 28.0405 22.0041 27.3028C21.8309 27.1068 21.6844 27.0444 21.5956 27.1914C21.5068 27.3384 21.5956 27.5478 21.7643 27.7393L21.9375 27.9398C23.1648 29.361 23.9383 31.1194 24.1577 32.9869C24.1556 33.1231 24.169 33.2591 24.1977 33.3923C24.2535 33.5454 24.343 33.684 24.4597 33.7976C24.5529 33.8644 24.6595 33.7976 24.735 33.7976C24.7083 33.615 24.7128 33.5214 24.7039 33.4279Z" fill="white"/>
<path opacity="0.9" d="M20.6802 29.7705C21.2378 30.3858 21.5767 31.169 21.6438 31.9978C21.6731 32.1239 21.7194 32.2453 21.7815 32.3587C22.0523 32.5814 22.1856 32.5057 22.1856 32.225C22.0906 31.1623 21.6525 30.1597 20.9378 29.3696C20.769 29.1959 20.6314 29.1424 20.5514 29.2894C20.5227 29.3734 20.5196 29.464 20.5425 29.5497C20.5655 29.6354 20.6134 29.7123 20.6802 29.7705Z" fill="white"/>
</g>
<path d="M122.783 9.86711L126.943 12.2414V10.7625C126.943 10.66 126.943 10.5531 126.943 10.4507C126.943 10.3482 126.943 10.2502 126.943 10.1522V10.0987C127.094 8.14317 128.573 7.39033 130.376 8.43717C131.192 8.94079 131.892 9.61362 132.427 10.4106C132.831 7.73779 134.994 6.79341 137.609 8.30353C140.514 9.98738 142.867 14.0946 142.867 17.4444V20.6072C142.863 20.8602 142.925 21.1099 143.047 21.3311C143.17 21.5524 143.348 21.7375 143.564 21.8679L146.015 23.3067C146.544 23.6214 146.983 24.0684 147.288 24.6041C147.593 25.1397 147.754 25.7457 147.756 26.3626C147.756 26.6186 147.689 26.87 147.561 27.0917C147.434 27.3133 147.25 27.4973 147.029 27.6251C146.808 27.7529 146.557 27.82 146.302 27.8197C146.047 27.8194 145.796 27.7516 145.576 27.6233L122.845 14.442C122.242 14.0907 121.741 13.5872 121.392 12.9816C121.043 12.3759 120.858 11.6892 120.855 10.9897C120.855 10.7632 120.914 10.5407 121.027 10.3444C121.139 10.1481 121.301 9.98497 121.497 9.87126C121.692 9.75756 121.913 9.69733 122.139 9.6966C122.365 9.69587 122.587 9.75467 122.783 9.86711Z" fill="#E6E6E6"/>
<path d="M154.5 9.24812L157.524 10.9899V9.90296C157.524 9.82723 157.524 9.7515 157.524 9.67577C157.524 9.60004 157.524 9.52877 157.524 9.45749V9.43076C157.635 8.00974 158.71 7.46182 160.02 8.22356C160.613 8.58818 161.122 9.0757 161.512 9.6535C161.809 7.72018 163.381 7.02081 165.282 8.1211C167.396 9.34613 169.105 12.3218 169.105 14.7674V17.0705C169.107 17.251 169.155 17.428 169.245 17.5842C169.336 17.7404 169.465 17.8704 169.62 17.9614L171.396 19.0082C171.783 19.2362 172.103 19.5619 172.325 19.9526C172.547 20.3434 172.663 20.7857 172.662 21.2355C172.662 21.4198 172.614 21.6007 172.522 21.7606C172.431 21.9205 172.3 22.0538 172.142 22.1473C171.983 22.2408 171.804 22.2914 171.62 22.294C171.436 22.2966 171.255 22.2511 171.094 22.1621L154.545 12.5757C154.106 12.3212 153.742 11.9556 153.489 11.5154C153.235 11.0752 153.102 10.576 153.102 10.0678C153.101 9.90328 153.144 9.74159 153.225 9.59884C153.307 9.4561 153.424 9.3373 153.566 9.25434C153.708 9.17137 153.868 9.12713 154.032 9.12604C154.196 9.12495 154.358 9.16705 154.5 9.24812Z" fill="#E6E6E6"/>
</g>
<defs>
<clipPath id="clip0">
<rect width="175" height="204" fill="white" transform="translate(0.113281)"/>
</clipPath>
</defs>
</svg>
