<svg width="70" height="60" viewBox="0 0 70 60" fill="none" xmlns="http://www.w3.org/2000/svg">
<rect x="18.8945" y="15.5254" width="34.4179" height="28.2451" fill="#00B4D8"/>
<path d="M70.0012 43.7148L55.2207 59.2962L40.4421 43.7166H40.7185H47.0672C47.7859 43.7166 48.4752 43.4311 48.9834 42.9229C49.4917 42.4147 49.7772 41.7255 49.7772 41.0068V20.2316C49.7772 18.9978 49.2871 17.8146 48.4146 16.9422C47.5421 16.0699 46.3588 15.5798 45.125 15.5798C43.8792 15.5798 42.6844 16.0746 41.8034 16.9555C40.9225 17.8363 40.4276 19.031 40.4276 20.2768V28.2364L29.5586 15.5906C29.5586 9.62902 36.1982 4.76221 43.9019 4.80376C53.3129 4.18231 60.6408 10.6262 60.6408 17.8108V41.005C60.6408 41.7237 60.9263 42.4129 61.4345 42.9211C61.9428 43.4293 62.6321 43.7148 63.3508 43.7148H70.0012Z" fill="white"/>
<path d="M0 15.5832L14.7805 0L29.5591 15.5814H29.2683H22.9196C22.2008 15.5814 21.5115 15.8669 21.0033 16.3751C20.4951 16.8833 20.2096 17.5725 20.2096 18.2912V39.0664C20.2093 39.6774 20.3295 40.2825 20.5632 40.8471C20.7969 41.4117 21.1395 41.9247 21.5715 42.3569C22.0035 42.789 22.5165 43.1319 23.081 43.3657C23.6456 43.5996 24.2507 43.72 24.8618 43.72C26.1076 43.72 27.3024 43.2252 28.1833 42.3443C29.0642 41.4634 29.5591 40.2687 29.5591 39.023V31.0743L40.4281 43.72C40.4281 49.6816 33.7886 54.5484 26.0849 54.5069C16.6739 55.1265 9.34597 48.6826 9.34597 41.4998V18.293C9.34597 17.5743 9.06044 16.8851 8.55221 16.3769C8.04399 15.8687 7.35469 15.5832 6.63594 15.5832H0Z" fill="white"/>
<path d="M40.7055 43.98L40.6987 43.9851L40.6953 43.98H40.7055Z" fill="black"/>
</svg>
