<svg width="60" height="69" viewBox="0 0 60 69" fill="none" xmlns="http://www.w3.org/2000/svg">
<path d="M32.9748 2.50083L29.2864 11.4498C28.3544 13.4469 31.4539 14.7325 32.209 12.6587L35.9039 3.70759C36.8529 1.41868 33.6799 0.794534 32.9748 2.50083Z" fill="white"/>
<path d="M23.295 0.000114989C22.4237 0.0171566 21.724 0.738231 21.7346 1.61481L21.7303 11.0218C21.6675 11.9389 22.396 12.7153 23.311 12.7153C24.2259 12.7153 24.9523 11.9389 24.8916 11.0218L24.8958 1.61481C24.9139 0.720124 24.1875 -0.010536 23.295 0.000114989Z" fill="white"/>
<path d="M42.2326 8.83655L35.6088 15.4934C34.1155 16.991 36.3618 19.2256 37.8551 17.7302L44.4789 11.0711C46.1213 9.42342 43.6418 7.41783 42.2326 8.83655Z" fill="white"/>
<path d="M12.4096 11.9891C16.0309 16.5264 16.5741 19.1828 16.6572 28.2926C16.7072 28.8753 17.2728 29.2704 17.8341 29.1128L55.2459 19.9784C57.2696 19.4832 59.3774 20.7709 59.8663 22.5145C60.3158 24.1366 59.6895 25.9846 57.1098 26.7355L25.161 35.9614C23.1809 36.4939 21.6994 38.1725 21.2499 40.2825C20.8068 42.3733 21.3894 44.5429 22.8209 46.1299C23.5303 46.916 24.4079 47.4943 25.3506 47.8085C24.6955 48.553 24.2183 49.4829 24.0021 50.5235C23.5527 52.6121 24.1353 54.7924 25.5668 56.3815C26.2495 57.1409 27.0877 57.6884 27.9899 58.0122C27.4531 58.6364 27.0579 59.4022 26.8747 60.2585C26.4817 62.05 26.9248 63.9778 28.2231 65.2762C28.6449 65.698 28.6556 66.0974 27.8866 66.304L25.6104 66.9197C20.0016 68.4342 14.6761 69.4993 10.1888 67.4352C5.40224 65.2379 1.90764 59.94 0.347263 53.9382C-0.478192 47.8799 0.214125 41.5734 1.93427 36.5472L5.71858 25.4967C7.10427 21.4525 6.44498 18.8771 4.69075 14.2173C2.37948 8.0674 10.2399 9.27629 12.4096 11.9891Z" fill="white"/>
<path d="M42.666 35.3245C43.6981 36.4567 44.2679 38.1705 43.8142 39.6307C43.2987 41.3221 42.3763 42.2328 40.9065 42.6269L27.8877 46.1215C26.633 46.4527 25.2356 46.0213 24.2142 44.8796C23.1778 43.7292 22.7624 42.1816 23.082 40.6671C23.4047 39.1695 24.392 38.1044 25.6446 37.7604L38.9083 34.1156C40.3196 33.7269 41.8437 34.4277 42.666 35.3245Z" fill="white"/>
<path d="M45.4132 45.5767C46.4453 46.71 46.882 48.379 46.5657 49.8765C45.9287 51.5573 45.0799 52.4456 43.6153 52.8887L30.6349 56.363C29.3802 56.6996 27.9892 56.2714 26.9614 55.136C25.925 53.9878 25.5139 52.4232 25.8356 50.9086C26.1519 49.4111 27.1403 48.3566 28.3918 48.0126L41.7514 44.3412C43.1169 43.962 44.6346 44.7236 45.4132 45.5767Z" fill="white"/>
<path d="M45.571 55.6346C46.5136 56.5666 46.8416 58.0939 46.5796 59.3912C46.3304 60.6107 45.604 61.5459 44.639 61.8047C40.6055 62.8634 32.5458 64.9873 32.5458 64.9873C31.535 65.2535 30.4327 64.9244 29.604 64.0223C28.7679 63.1031 28.4281 61.8654 28.6944 60.648C28.9543 59.4583 29.7595 58.6094 30.7639 58.341L43.0829 54.9625C44.296 54.6302 44.8787 54.9487 45.571 55.6346Z" fill="white"/>
</svg>
