<svg width="81" height="61" viewBox="0 0 81 61" fill="none" xmlns="http://www.w3.org/2000/svg">
<path d="M62.6684 22.2821C61.56 22.2821 60.5368 22.3705 59.5137 22.5474V7.51579C59.5137 2.56421 51.5842 0 43.8253 0C36.0663 0 28.1368 2.56421 28.1368 7.51579V18.8337C25.0674 17.0653 20.3779 16.1811 15.6884 16.1811C7.84421 16.1811 0 18.7453 0 23.6968V39.8779C0 44.8295 7.92947 47.3937 15.6884 47.3937C21.3158 47.3937 27.0284 46.0674 29.7568 43.4147C32.4853 46.0674 38.1979 47.3937 43.8253 47.3937C44.3368 47.3937 44.7632 47.3053 45.2747 47.3053C47.6621 54.9095 54.5684 60.3916 62.6684 60.3916C72.8147 60.3916 81 51.8147 81 41.3811C81 30.9474 72.7295 22.2821 62.6684 22.2821ZM28.1368 39.8779C28.1368 41.2926 23.7884 44.0337 15.7737 44.0337C7.75895 44.0337 3.32526 41.2042 3.32526 39.8779V36.6063C6.30947 38.4632 11.0842 39.3474 15.6884 39.3474C20.2926 39.3474 25.0674 38.3747 28.0516 36.6063V39.8779H28.1368ZM28.1368 31.7432C28.1368 33.1579 23.7884 35.8989 15.7737 35.8989C7.75895 35.8989 3.32526 33.1579 3.32526 31.7432V28.4716C6.30947 30.3284 10.9989 31.2126 15.6884 31.2126C20.3779 31.2126 25.0674 30.24 28.0516 28.4716V31.7432H28.1368ZM15.6884 27.8526C7.67368 27.8526 3.32526 25.1116 3.32526 23.6968C3.32526 22.2821 7.67368 19.5411 15.6884 19.5411C23.7032 19.5411 28.0516 22.2821 28.0516 23.6968C28.0516 25.1116 23.7032 27.8526 15.6884 27.8526ZM43.8253 3.44842C51.84 3.44842 56.1884 6.18947 56.1884 7.60421C56.1884 9.01895 51.84 11.76 43.8253 11.76C35.8105 11.76 31.4621 9.01895 31.4621 7.60421C31.4621 6.18947 35.8105 3.44842 43.8253 3.44842ZM31.3768 12.3789C34.3611 14.2358 39.1358 15.12 43.74 15.12C48.4295 15.12 53.1189 14.1474 56.1032 12.3789V15.6505C56.1032 17.0653 51.7547 19.8063 43.74 19.8063C35.7253 19.8063 31.3768 17.0653 31.3768 15.6505V12.3789ZM31.3768 20.4253C34.3611 22.2821 39.1358 23.1663 43.74 23.1663C48.4295 23.1663 53.1189 22.1937 56.1032 20.4253V23.52C53.9716 24.3158 52.0958 25.5537 50.3905 27.0568C48.6 27.4989 46.3832 27.8526 43.6547 27.8526C35.64 27.8526 31.2916 25.1116 31.2916 23.6968V20.4253H31.3768ZM31.3768 28.4716C34.4463 30.3284 39.1358 31.2126 43.8253 31.2126C44.9337 31.2126 46.1274 31.1242 47.2358 31.0358C46.2979 32.5389 45.6158 34.1305 45.1042 35.8105C44.6779 35.8105 44.2516 35.8105 43.8253 35.8105C35.8105 35.8105 31.4621 33.0695 31.4621 31.6547V28.4716H31.3768ZM43.8253 43.9453C35.8105 43.9453 31.4621 41.2042 31.4621 39.7895V36.5179C34.4463 38.3747 39.2211 39.2589 43.8253 39.2589C43.9958 39.2589 44.2516 39.2589 44.4221 39.2589C44.3368 39.8779 44.3368 40.5853 44.3368 41.2926C44.3368 42.1768 44.4221 43.0611 44.5074 43.9453C44.2516 43.9453 44.0811 43.9453 43.8253 43.9453ZM62.6684 56.9432C54.3979 56.9432 47.5768 49.9579 47.5768 41.2926C47.5768 32.6274 54.3126 25.7305 62.6684 25.7305C71.0242 25.7305 77.76 32.7158 77.76 41.3811C77.76 50.0463 70.9389 56.9432 62.6684 56.9432Z" fill="white"/>
<path d="M68.6372 32.0967H56.6151C56.3593 32.0967 56.1035 32.2735 56.1035 32.6272V34.7493C56.1035 35.0146 56.274 35.2798 56.6151 35.2798H60.1961C61.4751 35.2798 62.6688 36.0756 63.2656 37.3135H56.6151C56.3593 37.3135 56.1035 37.4904 56.1035 37.844V39.7893C56.1035 40.0546 56.274 40.3198 56.6151 40.3198H63.2656C62.754 41.5577 61.5604 42.3535 60.1961 42.3535H56.6151C56.3593 42.3535 56.1035 42.5304 56.1035 42.884V45.8904C56.1035 45.9788 56.1888 46.1556 56.274 46.244L62.4983 52.7872C62.5835 52.8756 62.6688 52.964 62.8393 52.964H65.653C65.8235 52.964 65.994 52.8756 66.0793 52.6988C66.1646 52.5219 66.0793 52.3451 65.994 52.1683L59.7698 45.5367H60.1961C63.1804 45.5367 65.7383 43.4146 66.4204 40.4083H68.6372C68.893 40.4083 69.1488 40.2314 69.1488 39.8777V37.9325C69.1488 37.6672 68.9782 37.4019 68.6372 37.4019H66.4204C66.2498 36.6062 65.9088 35.8988 65.4825 35.1914H68.6372C68.893 35.1914 69.1488 35.0146 69.1488 34.6609V32.7156C69.1488 32.2735 68.893 32.0967 68.6372 32.0967Z" fill="white"/>
</svg>
