<svg width="18" height="19" viewBox="0 0 18 19" fill="none" xmlns="http://www.w3.org/2000/svg">
<path d="M1 3.5C0.502944 3.5 0.1 3.90294 0.1 4.4C0.1 4.89706 0.502944 5.3 1 5.3V3.5ZM17 5.3C17.4971 5.3 17.9 4.89706 17.9 4.4C17.9 3.90294 17.4971 3.5 17 3.5V5.3ZM8.12222 8.65C8.12222 8.15294 7.71928 7.75 7.22222 7.75C6.72517 7.75 6.32222 8.15294 6.32222 8.65H8.12222ZM6.32222 13.75C6.32222 14.2471 6.72517 14.65 7.22222 14.65C7.71928 14.65 8.12222 14.2471 8.12222 13.75H6.32222ZM11.6778 8.65C11.6778 8.15294 11.2748 7.75 10.7778 7.75C10.2807 7.75 9.87778 8.15294 9.87778 8.65H11.6778ZM9.87778 13.75C9.87778 14.2471 10.2807 14.65 10.7778 14.65C11.2748 14.65 11.6778 14.2471 11.6778 13.75H9.87778ZM1 5.3H2.77778V3.5H1V5.3ZM2.77778 5.3H17V3.5H2.77778V5.3ZM14.3222 4.4V16.3H16.1222V4.4H14.3222ZM14.3222 16.3C14.3222 16.7043 13.9676 17.1 13.4444 17.1V18.9C14.885 18.9 16.1222 17.7735 16.1222 16.3H14.3222ZM13.4444 17.1H4.55556V18.9H13.4444V17.1ZM4.55556 17.1C4.0324 17.1 3.67778 16.7043 3.67778 16.3H1.87778C1.87778 17.7735 3.11503 18.9 4.55556 18.9V17.1ZM3.67778 16.3V4.4H1.87778V16.3H3.67778ZM6.34444 4.4V2.7H4.54444V4.4H6.34444ZM6.34444 2.7C6.34444 2.29569 6.69907 1.9 7.22222 1.9V0.1C5.7817 0.1 4.54444 1.22654 4.54444 2.7H6.34444ZM7.22222 1.9H10.7778V0.1H7.22222V1.9ZM10.7778 1.9C11.3009 1.9 11.6556 2.29569 11.6556 2.7H13.4556C13.4556 1.22654 12.2183 0.1 10.7778 0.1V1.9ZM11.6556 2.7V4.4H13.4556V2.7H11.6556ZM6.32222 8.65V13.75H8.12222V8.65H6.32222ZM9.87778 8.65V13.75H11.6778V8.65H9.87778Z" fill="#646464"/>
</svg>
