<svg width="89" height="87" viewBox="0 0 89 87" fill="none" xmlns="http://www.w3.org/2000/svg">
<ellipse cx="11.072" cy="80.4419" rx="11.072" ry="6.4419" fill="white"/>
<ellipse cx="77.5798" cy="66.1372" rx="11.072" ry="6.4419" fill="white"/>
<ellipse cx="43.7595" cy="54.1929" rx="11.072" ry="5.50246" fill="white"/>
<rect x="17.25" y="75.9956" width="53.7071" height="5.09199" transform="rotate(-11.6738 17.25 75.9956)" fill="white"/>
<rect x="51.9023" y="54.4614" width="21.3452" height="3.80023" transform="rotate(21.0874 51.9023 54.4614)" fill="white"/>
<path d="M61.3835 19.5154C61.3835 34.694 43.891 47.7043 43.891 47.7043C43.891 47.7043 26.3984 34.694 26.3984 19.5154C26.3984 14.3396 28.2414 9.37577 31.5219 5.71592C34.8024 2.05608 39.2517 0 43.891 0C48.5303 0 52.9796 2.05608 56.2601 5.71592C59.5406 9.37577 61.3835 14.3396 61.3835 19.5154Z" fill="white"/>
<path d="M44.0268 26.3044C48.3629 26.3044 51.8779 22.8795 51.8779 18.6546C51.8779 14.4298 48.3629 11.0049 44.0268 11.0049C39.6908 11.0049 36.1758 14.4298 36.1758 18.6546C36.1758 22.8795 39.6908 26.3044 44.0268 26.3044Z" fill="#1CB8D8"/>
</svg>
