<svg width="92" height="46" viewBox="0 0 92 46" fill="none" xmlns="http://www.w3.org/2000/svg">
<path d="M17.1565 0C15.8324 0 14.7739 1.08041 14.7739 2.39693C14.7739 3.71344 15.84 4.77947 17.1565 4.77947H17.1852H21.5726C22.9041 4.77947 23.9695 5.85988 23.9695 7.1764C23.9695 8.49291 22.8966 9.5587 21.5726 9.5587H16.3282H7.06002C5.72865 9.5587 4.6631 10.6394 4.6631 11.9559C4.6631 13.2724 5.73608 14.3528 7.06002 14.3528H15.4712H27.5142H29.4609C30.7923 14.3528 31.8579 15.4186 31.8579 16.7353C31.8579 18.0518 30.7847 19.1323 29.4609 19.1323H14.6142H13.7569C12.4332 19.1323 11.36 20.2127 11.36 21.5292C11.36 22.8457 12.4406 23.9261 13.7569 23.9261H13.7715H20.7155C22.0469 23.9261 23.1126 24.992 23.1126 26.3085C23.1126 27.6249 22.0396 28.7056 20.7155 28.7056H14.9047H12.929H2.38242C1.05836 28.7056 0 29.786 0 31.1025C0 32.419 1.06579 33.485 2.38242 33.485H12.0718H14.9047H16.2557C17.5798 33.485 18.6383 34.5653 18.6383 35.882C18.6383 36.4993 18.3932 37.0631 17.9989 37.4944H22.1392C22.1392 31.3657 27.1318 26.4103 33.2234 26.4103C39.3522 26.4103 44.3074 31.3657 44.3074 37.4944H62.1905C62.1905 31.3657 67.1754 26.4103 73.2746 26.4103C79.4034 26.4103 84.3588 31.3657 84.3588 37.4944H89.2544L91.0704 28.6765L92 24.2894L77.7636 8.26579H65.2992L61.2897 28.7056H56.8008L62.3938 0H37.625H18.028H17.1565ZM72.7662 13.3069H77.9377L84.9109 21.9941H71.0518L72.7662 13.3069ZM33.2234 29.0687C28.5523 29.0687 24.7684 32.8454 24.7684 37.509C24.7684 42.1725 28.5523 45.9637 33.2234 45.9637C37.8869 45.9637 41.6782 42.1725 41.6782 37.509C41.6782 32.8454 37.8869 29.0687 33.2234 29.0687ZM73.2746 29.0687C68.6109 29.0687 64.8198 32.8454 64.8198 37.509C64.8198 42.1725 68.6109 45.9637 73.2746 45.9637C77.9381 45.9637 81.7293 42.1725 81.7293 37.509C81.7293 32.8454 77.9381 29.0687 73.2746 29.0687ZM33.2234 35.5042C34.3241 35.5042 35.2282 36.4007 35.2282 37.509C35.2282 38.6172 34.3315 39.5137 33.2234 39.5137C32.1151 39.5137 31.2188 38.6172 31.2188 37.509C31.2188 36.4007 32.1075 35.5042 33.2234 35.5042ZM73.2746 35.5042C74.3827 35.5042 75.2794 36.4007 75.2794 37.509C75.2794 38.6172 74.3827 39.5137 73.2746 39.5137C72.1738 39.5137 71.2698 38.6172 71.2698 37.509C71.2698 36.4007 72.1664 35.5042 73.2746 35.5042Z" fill="white"/>
</svg>
