<svg width="105" height="89" viewBox="0 0 105 89" fill="none" xmlns="http://www.w3.org/2000/svg">
<path d="M105.001 65.5765L82.8301 88.9492L60.6615 65.5792H61.0762H70.5995C71.6776 65.5792 72.7116 65.1509 73.474 64.3886C74.2363 63.6263 74.6646 62.5924 74.6646 61.5144V30.3508C74.6646 28.5001 73.9294 26.7253 72.6207 25.4166C71.3119 24.108 69.5369 23.3729 67.6861 23.3729C65.8173 23.3729 64.0251 24.1152 62.7037 25.4365C61.3823 26.7578 60.6399 28.5499 60.6399 30.4185V42.3583L44.3359 23.3891C44.3359 14.4465 54.2955 7.14612 65.8514 7.20844C79.9683 6.27625 90.9604 15.9424 90.9604 26.7196V61.5117C90.9604 62.5897 91.3887 63.6236 92.1511 64.3859C92.9134 65.1482 93.9474 65.5765 95.0256 65.5765H105.001Z" fill="#00B4D8"/>
<path d="M0 23.3754L22.1713 0L44.3398 23.3727H43.9035H34.3802C33.3021 23.3727 32.2681 23.8009 31.5058 24.5632C30.7434 25.3255 30.3151 26.3594 30.3151 27.4375V58.6011C30.3148 59.5177 30.495 60.4253 30.8455 61.2722C31.1961 62.1192 31.7101 62.8887 32.3581 63.537C33.0061 64.1852 33.7756 64.6995 34.6224 65.0503C35.4693 65.4011 36.3769 65.5817 37.2936 65.5817C39.1624 65.5817 40.9546 64.8394 42.276 63.5181C43.5975 62.1968 44.3398 60.4047 44.3398 58.536V46.6126L60.6438 65.5817C60.6438 74.5243 50.6842 81.8247 39.1283 81.7624C25.0115 82.6919 14.0193 73.0258 14.0193 62.2513V27.4402C14.0193 26.3621 13.591 25.3282 12.8287 24.5659C12.0663 23.8036 11.0323 23.3754 9.95417 23.3754H0Z" fill="#F3752B"/>
<path d="M61.0634 65.974L61.0524 65.9822L61.0469 65.974H61.0634Z" fill="black"/>
</svg>
