<svg width="141" height="42" viewBox="0 0 141 42" fill="none" xmlns="http://www.w3.org/2000/svg">
<path d="M49.172 30.9394L38.7889 41.9672L28.4072 30.9407H28.6013H33.0612C33.5661 30.9407 34.0503 30.7386 34.4073 30.3789C34.7644 30.0193 34.9649 29.5315 34.9649 29.0228V14.3191C34.9649 13.4459 34.6206 12.6085 34.0077 11.9911C33.3948 11.3736 32.5636 11.0268 31.6968 11.0268V11.0268C30.8217 11.0268 29.9823 11.377 29.3635 12.0004C28.7447 12.6239 28.397 13.4694 28.397 14.3511V19.9845L20.7617 11.0344C20.7617 6.81511 25.4259 3.37061 30.8376 3.40001C37.4487 2.96018 42.5964 7.52088 42.5964 12.6058V29.0215C42.5964 29.5302 42.797 30.018 43.154 30.3777C43.511 30.7373 43.9953 30.9394 44.5002 30.9394H49.172Z" fill="#00B4D8"/>
<path d="M0 11.029L10.383 0L20.7648 11.0278H20.5604H16.1006C15.5957 11.0278 15.1115 11.2298 14.7545 11.5895C14.3974 11.9492 14.1969 12.437 14.1969 12.9456V27.6493C14.1967 28.0818 14.2811 28.5101 14.4453 28.9097C14.6094 29.3093 14.8501 29.6724 15.1536 29.9782C15.4571 30.2841 15.8174 30.5267 16.214 30.6922C16.6106 30.8578 17.0357 30.943 17.465 30.943V30.943C18.3401 30.943 19.1794 30.5927 19.7983 29.9693C20.4171 29.3459 20.7648 28.5003 20.7648 27.6187V21.9929L28.4001 30.943C28.4001 35.1623 23.7359 38.6068 18.3242 38.5774C11.7131 39.0159 6.56538 34.4552 6.56538 29.3716V12.9469C6.56538 12.4383 6.3648 11.9505 6.00778 11.5908C5.65076 11.2311 5.16654 11.029 4.66164 11.029H0Z" fill="#F3752B"/>
<path d="M28.5989 31.1274L28.5928 31.1319L28.5898 31.1274H28.5989Z" fill="black"/>
<mask id="path-4-inside-1" fill="white">
<path d="M64.2238 32.3207C63.6133 33.2447 62.5738 33.8882 61.3858 33.8882C59.4883 33.8882 58.1023 32.3042 58.1023 30.3407C58.1023 28.3607 59.4883 26.7767 61.3858 26.7767C62.5738 26.7767 63.5473 27.3542 64.1578 28.2617L66.1213 26.9087C65.1313 25.4567 63.4318 24.4997 61.3858 24.4997C58.1518 24.4997 55.6768 27.1232 55.6768 30.3407C55.6768 33.5417 58.1518 36.1652 61.3858 36.1652C63.4483 36.1652 65.1808 35.1917 66.1708 33.6737L64.2238 32.3207Z"/>
<path d="M71.1244 33.8882C70.1839 33.8882 69.3919 33.1952 69.3919 32.1227C69.3919 31.0667 70.1839 30.3737 71.1244 30.3737C72.0979 30.3737 72.8734 31.0667 72.8734 32.1227C72.8734 33.1952 72.0979 33.8882 71.1244 33.8882ZM71.1244 36.1322C73.3024 36.1322 75.1339 34.5482 75.1339 32.1227C75.1339 29.6807 73.3024 28.1297 71.1244 28.1297C68.9299 28.1297 67.1314 29.6807 67.1314 32.1227C67.1314 34.5482 68.9299 36.1322 71.1244 36.1322Z"/>
<path d="M79.0714 31.9247C79.0714 30.7532 79.6819 30.3572 80.4904 30.3572C81.2659 30.3572 81.8269 30.8522 81.8269 31.8917V36.0002H84.1204V31.3967C84.1204 29.2022 83.0314 28.1297 81.2989 28.1297C80.3749 28.1297 79.4839 28.6412 79.0714 29.4167V28.2947H76.7779V36.0002H79.0714V31.9247Z"/>
<path d="M88.4494 31.9247C88.4494 30.7532 89.0599 30.3572 89.8684 30.3572C90.6439 30.3572 91.2049 30.8522 91.2049 31.8917V36.0002H93.4984V31.3967C93.4984 29.2022 92.4094 28.1297 90.6769 28.1297C89.7529 28.1297 88.8619 28.6412 88.4494 29.4167V28.2947H86.1559V36.0002H88.4494V31.9247Z"/>
<path d="M100.946 33.4592C100.566 33.9707 99.9063 34.1852 99.2628 34.1852C98.4378 34.1852 97.4973 33.7892 97.3653 32.8982H103.008C103.025 32.7002 103.041 32.3867 103.041 32.1887C103.041 29.7632 101.292 28.1297 99.0978 28.1297C96.9033 28.1297 95.0718 29.6807 95.0718 32.1227C95.0718 34.5482 96.9033 36.1652 99.0978 36.1652C100.418 36.1652 101.82 35.7527 102.612 34.5977L100.946 33.4592ZM97.3983 31.4627C97.5798 30.4727 98.4873 30.1427 99.1143 30.1427C99.7743 30.1427 100.599 30.5222 100.731 31.4627H97.3983Z"/>
<path d="M104.144 32.1227C104.144 34.5482 106.14 36.1652 108.335 36.1652C109.721 36.1652 110.958 35.5712 111.684 34.5152L109.82 33.1952C109.506 33.7067 108.929 33.9707 108.335 33.9707C107.361 33.9707 106.421 33.2282 106.421 32.1227C106.421 31.0172 107.361 30.3242 108.335 30.3242C108.929 30.3242 109.506 30.5882 109.82 31.0997L111.684 29.7632C110.942 28.7072 109.721 28.1297 108.335 28.1297C106.14 28.1297 104.144 29.6807 104.144 32.1227Z"/>
<path d="M116.278 28.2947V25.3412H114.001V28.2947H112.598V30.1097H114.001V36.0002H116.278V30.1097H117.895V28.2947H116.278Z"/>
<path d="M121.578 28.2947H119.301V36.0002H121.578V28.2947ZM119.004 25.4402C119.004 26.1827 119.664 26.7932 120.439 26.7932C121.231 26.7932 121.842 26.1827 121.842 25.4402C121.842 24.6647 121.215 24.1037 120.439 24.1037C119.664 24.1037 119.004 24.6812 119.004 25.4402Z"/>
<path d="M127.215 33.8882C126.274 33.8882 125.482 33.1952 125.482 32.1227C125.482 31.0667 126.274 30.3737 127.215 30.3737C128.188 30.3737 128.964 31.0667 128.964 32.1227C128.964 33.1952 128.188 33.8882 127.215 33.8882ZM127.215 36.1322C129.393 36.1322 131.224 34.5482 131.224 32.1227C131.224 29.6807 129.393 28.1297 127.215 28.1297C125.02 28.1297 123.222 29.6807 123.222 32.1227C123.222 34.5482 125.02 36.1322 127.215 36.1322Z"/>
<path d="M135.162 31.9247C135.162 30.7532 135.772 30.3572 136.581 30.3572C137.356 30.3572 137.917 30.8522 137.917 31.8917V36.0002H140.211V31.3967C140.211 29.2022 139.122 28.1297 137.389 28.1297C136.465 28.1297 135.574 28.6412 135.162 29.4167V28.2947H132.868V36.0002H135.162V31.9247Z"/>
<path d="M58.7763 8.18421C58.7763 7.60821 59.1123 7.24821 59.7603 7.24821C60.2643 7.24821 60.5523 7.46421 60.7683 7.94421L65.4963 18.2882C66.1683 20.1362 67.2003 21.2882 69.4563 21.2882C71.9523 21.2882 73.1763 19.8722 73.1763 17.7362V4.80021H70.3203V17.6162C70.3203 18.1682 69.9603 18.5282 69.3603 18.5282C68.8323 18.5282 68.5203 18.2402 68.3283 17.8562L63.6003 7.51221C62.9283 5.66421 61.9203 4.51221 59.6643 4.51221C57.1443 4.51221 55.9443 5.92821 55.9443 8.04021V21.0002H58.7763V8.18421Z"/>
<path d="M82.7982 7.96821C82.9662 7.58421 83.2302 7.41621 83.6142 7.41621C83.9982 7.41621 84.2622 7.58421 84.4062 7.96821L89.3262 21.0002H92.4702L86.9982 6.60021C86.4222 5.08821 85.3182 4.51221 83.6382 4.51221C81.9342 4.51221 80.8302 5.08821 80.2302 6.60021L74.5422 21.0002H77.6622L82.7982 7.96821Z"/>
<path d="M102.087 7.96821C102.255 7.58421 102.519 7.41621 102.903 7.41621C103.287 7.41621 103.551 7.58421 103.695 7.96821L108.615 21.0002H111.759L106.287 6.60021C105.711 5.08821 104.607 4.51221 102.927 4.51221C101.223 4.51221 100.119 5.08821 99.5193 6.60021L93.8313 21.0002H96.9513L102.087 7.96821Z"/>
<path d="M111.228 4.80021V7.63221H115.956V21.0002H118.812V7.63221H123.54V4.80021H111.228Z"/>
<path d="M131.29 7.96821C131.458 7.58421 131.722 7.41621 132.106 7.41621C132.49 7.41621 132.754 7.58421 132.898 7.96821L137.818 21.0002H140.962L135.49 6.60021C134.914 5.08821 133.81 4.51221 132.13 4.51221C130.426 4.51221 129.322 5.08821 128.722 6.60021L123.034 21.0002H126.154L131.29 7.96821Z"/>
</mask>
<path d="M64.2238 32.3207C63.6133 33.2447 62.5738 33.8882 61.3858 33.8882C59.4883 33.8882 58.1023 32.3042 58.1023 30.3407C58.1023 28.3607 59.4883 26.7767 61.3858 26.7767C62.5738 26.7767 63.5473 27.3542 64.1578 28.2617L66.1213 26.9087C65.1313 25.4567 63.4318 24.4997 61.3858 24.4997C58.1518 24.4997 55.6768 27.1232 55.6768 30.3407C55.6768 33.5417 58.1518 36.1652 61.3858 36.1652C63.4483 36.1652 65.1808 35.1917 66.1708 33.6737L64.2238 32.3207Z" fill="black"/>
<path d="M71.1244 33.8882C70.1839 33.8882 69.3919 33.1952 69.3919 32.1227C69.3919 31.0667 70.1839 30.3737 71.1244 30.3737C72.0979 30.3737 72.8734 31.0667 72.8734 32.1227C72.8734 33.1952 72.0979 33.8882 71.1244 33.8882ZM71.1244 36.1322C73.3024 36.1322 75.1339 34.5482 75.1339 32.1227C75.1339 29.6807 73.3024 28.1297 71.1244 28.1297C68.9299 28.1297 67.1314 29.6807 67.1314 32.1227C67.1314 34.5482 68.9299 36.1322 71.1244 36.1322Z" fill="black"/>
<path d="M79.0714 31.9247C79.0714 30.7532 79.6819 30.3572 80.4904 30.3572C81.2659 30.3572 81.8269 30.8522 81.8269 31.8917V36.0002H84.1204V31.3967C84.1204 29.2022 83.0314 28.1297 81.2989 28.1297C80.3749 28.1297 79.4839 28.6412 79.0714 29.4167V28.2947H76.7779V36.0002H79.0714V31.9247Z" fill="black"/>
<path d="M88.4494 31.9247C88.4494 30.7532 89.0599 30.3572 89.8684 30.3572C90.6439 30.3572 91.2049 30.8522 91.2049 31.8917V36.0002H93.4984V31.3967C93.4984 29.2022 92.4094 28.1297 90.6769 28.1297C89.7529 28.1297 88.8619 28.6412 88.4494 29.4167V28.2947H86.1559V36.0002H88.4494V31.9247Z" fill="black"/>
<path d="M100.946 33.4592C100.566 33.9707 99.9063 34.1852 99.2628 34.1852C98.4378 34.1852 97.4973 33.7892 97.3653 32.8982H103.008C103.025 32.7002 103.041 32.3867 103.041 32.1887C103.041 29.7632 101.292 28.1297 99.0978 28.1297C96.9033 28.1297 95.0718 29.6807 95.0718 32.1227C95.0718 34.5482 96.9033 36.1652 99.0978 36.1652C100.418 36.1652 101.82 35.7527 102.612 34.5977L100.946 33.4592ZM97.3983 31.4627C97.5798 30.4727 98.4873 30.1427 99.1143 30.1427C99.7743 30.1427 100.599 30.5222 100.731 31.4627H97.3983Z" fill="black"/>
<path d="M104.144 32.1227C104.144 34.5482 106.14 36.1652 108.335 36.1652C109.721 36.1652 110.958 35.5712 111.684 34.5152L109.82 33.1952C109.506 33.7067 108.929 33.9707 108.335 33.9707C107.361 33.9707 106.421 33.2282 106.421 32.1227C106.421 31.0172 107.361 30.3242 108.335 30.3242C108.929 30.3242 109.506 30.5882 109.82 31.0997L111.684 29.7632C110.942 28.7072 109.721 28.1297 108.335 28.1297C106.14 28.1297 104.144 29.6807 104.144 32.1227Z" fill="black"/>
<path d="M116.278 28.2947V25.3412H114.001V28.2947H112.598V30.1097H114.001V36.0002H116.278V30.1097H117.895V28.2947H116.278Z" fill="black"/>
<path d="M121.578 28.2947H119.301V36.0002H121.578V28.2947ZM119.004 25.4402C119.004 26.1827 119.664 26.7932 120.439 26.7932C121.231 26.7932 121.842 26.1827 121.842 25.4402C121.842 24.6647 121.215 24.1037 120.439 24.1037C119.664 24.1037 119.004 24.6812 119.004 25.4402Z" fill="black"/>
<path d="M127.215 33.8882C126.274 33.8882 125.482 33.1952 125.482 32.1227C125.482 31.0667 126.274 30.3737 127.215 30.3737C128.188 30.3737 128.964 31.0667 128.964 32.1227C128.964 33.1952 128.188 33.8882 127.215 33.8882ZM127.215 36.1322C129.393 36.1322 131.224 34.5482 131.224 32.1227C131.224 29.6807 129.393 28.1297 127.215 28.1297C125.02 28.1297 123.222 29.6807 123.222 32.1227C123.222 34.5482 125.02 36.1322 127.215 36.1322Z" fill="black"/>
<path d="M135.162 31.9247C135.162 30.7532 135.772 30.3572 136.581 30.3572C137.356 30.3572 137.917 30.8522 137.917 31.8917V36.0002H140.211V31.3967C140.211 29.2022 139.122 28.1297 137.389 28.1297C136.465 28.1297 135.574 28.6412 135.162 29.4167V28.2947H132.868V36.0002H135.162V31.9247Z" fill="black"/>
<path d="M58.7763 8.18421C58.7763 7.60821 59.1123 7.24821 59.7603 7.24821C60.2643 7.24821 60.5523 7.46421 60.7683 7.94421L65.4963 18.2882C66.1683 20.1362 67.2003 21.2882 69.4563 21.2882C71.9523 21.2882 73.1763 19.8722 73.1763 17.7362V4.80021H70.3203V17.6162C70.3203 18.1682 69.9603 18.5282 69.3603 18.5282C68.8323 18.5282 68.5203 18.2402 68.3283 17.8562L63.6003 7.51221C62.9283 5.66421 61.9203 4.51221 59.6643 4.51221C57.1443 4.51221 55.9443 5.92821 55.9443 8.04021V21.0002H58.7763V8.18421Z" fill="black"/>
<path d="M82.7982 7.96821C82.9662 7.58421 83.2302 7.41621 83.6142 7.41621C83.9982 7.41621 84.2622 7.58421 84.4062 7.96821L89.3262 21.0002H92.4702L86.9982 6.60021C86.4222 5.08821 85.3182 4.51221 83.6382 4.51221C81.9342 4.51221 80.8302 5.08821 80.2302 6.60021L74.5422 21.0002H77.6622L82.7982 7.96821Z" fill="black"/>
<path d="M102.087 7.96821C102.255 7.58421 102.519 7.41621 102.903 7.41621C103.287 7.41621 103.551 7.58421 103.695 7.96821L108.615 21.0002H111.759L106.287 6.60021C105.711 5.08821 104.607 4.51221 102.927 4.51221C101.223 4.51221 100.119 5.08821 99.5193 6.60021L93.8313 21.0002H96.9513L102.087 7.96821Z" fill="black"/>
<path d="M111.228 4.80021V7.63221H115.956V21.0002H118.812V7.63221H123.54V4.80021H111.228Z" fill="black"/>
<path d="M131.29 7.96821C131.458 7.58421 131.722 7.41621 132.106 7.41621C132.49 7.41621 132.754 7.58421 132.898 7.96821L137.818 21.0002H140.962L135.49 6.60021C134.914 5.08821 133.81 4.51221 132.13 4.51221C130.426 4.51221 129.322 5.08821 128.722 6.60021L123.034 21.0002H126.154L131.29 7.96821Z" fill="black"/>
<path d="M64.2238 32.3207C63.6133 33.2447 62.5738 33.8882 61.3858 33.8882C59.4883 33.8882 58.1023 32.3042 58.1023 30.3407C58.1023 28.3607 59.4883 26.7767 61.3858 26.7767C62.5738 26.7767 63.5473 27.3542 64.1578 28.2617L66.1213 26.9087C65.1313 25.4567 63.4318 24.4997 61.3858 24.4997C58.1518 24.4997 55.6768 27.1232 55.6768 30.3407C55.6768 33.5417 58.1518 36.1652 61.3858 36.1652C63.4483 36.1652 65.1808 35.1917 66.1708 33.6737L64.2238 32.3207Z" stroke="black" mask="url(#path-4-inside-1)"/>
<path d="M71.1244 33.8882C70.1839 33.8882 69.3919 33.1952 69.3919 32.1227C69.3919 31.0667 70.1839 30.3737 71.1244 30.3737C72.0979 30.3737 72.8734 31.0667 72.8734 32.1227C72.8734 33.1952 72.0979 33.8882 71.1244 33.8882ZM71.1244 36.1322C73.3024 36.1322 75.1339 34.5482 75.1339 32.1227C75.1339 29.6807 73.3024 28.1297 71.1244 28.1297C68.9299 28.1297 67.1314 29.6807 67.1314 32.1227C67.1314 34.5482 68.9299 36.1322 71.1244 36.1322Z" stroke="black" mask="url(#path-4-inside-1)"/>
<path d="M79.0714 31.9247C79.0714 30.7532 79.6819 30.3572 80.4904 30.3572C81.2659 30.3572 81.8269 30.8522 81.8269 31.8917V36.0002H84.1204V31.3967C84.1204 29.2022 83.0314 28.1297 81.2989 28.1297C80.3749 28.1297 79.4839 28.6412 79.0714 29.4167V28.2947H76.7779V36.0002H79.0714V31.9247Z" stroke="black" mask="url(#path-4-inside-1)"/>
<path d="M88.4494 31.9247C88.4494 30.7532 89.0599 30.3572 89.8684 30.3572C90.6439 30.3572 91.2049 30.8522 91.2049 31.8917V36.0002H93.4984V31.3967C93.4984 29.2022 92.4094 28.1297 90.6769 28.1297C89.7529 28.1297 88.8619 28.6412 88.4494 29.4167V28.2947H86.1559V36.0002H88.4494V31.9247Z" stroke="black" mask="url(#path-4-inside-1)"/>
<path d="M100.946 33.4592C100.566 33.9707 99.9063 34.1852 99.2628 34.1852C98.4378 34.1852 97.4973 33.7892 97.3653 32.8982H103.008C103.025 32.7002 103.041 32.3867 103.041 32.1887C103.041 29.7632 101.292 28.1297 99.0978 28.1297C96.9033 28.1297 95.0718 29.6807 95.0718 32.1227C95.0718 34.5482 96.9033 36.1652 99.0978 36.1652C100.418 36.1652 101.82 35.7527 102.612 34.5977L100.946 33.4592ZM97.3983 31.4627C97.5798 30.4727 98.4873 30.1427 99.1143 30.1427C99.7743 30.1427 100.599 30.5222 100.731 31.4627H97.3983Z" stroke="black" mask="url(#path-4-inside-1)"/>
<path d="M104.144 32.1227C104.144 34.5482 106.14 36.1652 108.335 36.1652C109.721 36.1652 110.958 35.5712 111.684 34.5152L109.82 33.1952C109.506 33.7067 108.929 33.9707 108.335 33.9707C107.361 33.9707 106.421 33.2282 106.421 32.1227C106.421 31.0172 107.361 30.3242 108.335 30.3242C108.929 30.3242 109.506 30.5882 109.82 31.0997L111.684 29.7632C110.942 28.7072 109.721 28.1297 108.335 28.1297C106.14 28.1297 104.144 29.6807 104.144 32.1227Z" stroke="black" mask="url(#path-4-inside-1)"/>
<path d="M116.278 28.2947V25.3412H114.001V28.2947H112.598V30.1097H114.001V36.0002H116.278V30.1097H117.895V28.2947H116.278Z" stroke="black" mask="url(#path-4-inside-1)"/>
<path d="M121.578 28.2947H119.301V36.0002H121.578V28.2947ZM119.004 25.4402C119.004 26.1827 119.664 26.7932 120.439 26.7932C121.231 26.7932 121.842 26.1827 121.842 25.4402C121.842 24.6647 121.215 24.1037 120.439 24.1037C119.664 24.1037 119.004 24.6812 119.004 25.4402Z" stroke="black" mask="url(#path-4-inside-1)"/>
<path d="M127.215 33.8882C126.274 33.8882 125.482 33.1952 125.482 32.1227C125.482 31.0667 126.274 30.3737 127.215 30.3737C128.188 30.3737 128.964 31.0667 128.964 32.1227C128.964 33.1952 128.188 33.8882 127.215 33.8882ZM127.215 36.1322C129.393 36.1322 131.224 34.5482 131.224 32.1227C131.224 29.6807 129.393 28.1297 127.215 28.1297C125.02 28.1297 123.222 29.6807 123.222 32.1227C123.222 34.5482 125.02 36.1322 127.215 36.1322Z" stroke="black" mask="url(#path-4-inside-1)"/>
<path d="M135.162 31.9247C135.162 30.7532 135.772 30.3572 136.581 30.3572C137.356 30.3572 137.917 30.8522 137.917 31.8917V36.0002H140.211V31.3967C140.211 29.2022 139.122 28.1297 137.389 28.1297C136.465 28.1297 135.574 28.6412 135.162 29.4167V28.2947H132.868V36.0002H135.162V31.9247Z" stroke="black" mask="url(#path-4-inside-1)"/>
<path d="M58.7763 8.18421C58.7763 7.60821 59.1123 7.24821 59.7603 7.24821C60.2643 7.24821 60.5523 7.46421 60.7683 7.94421L65.4963 18.2882C66.1683 20.1362 67.2003 21.2882 69.4563 21.2882C71.9523 21.2882 73.1763 19.8722 73.1763 17.7362V4.80021H70.3203V17.6162C70.3203 18.1682 69.9603 18.5282 69.3603 18.5282C68.8323 18.5282 68.5203 18.2402 68.3283 17.8562L63.6003 7.51221C62.9283 5.66421 61.9203 4.51221 59.6643 4.51221C57.1443 4.51221 55.9443 5.92821 55.9443 8.04021V21.0002H58.7763V8.18421Z" stroke="black" mask="url(#path-4-inside-1)"/>
<path d="M82.7982 7.96821C82.9662 7.58421 83.2302 7.41621 83.6142 7.41621C83.9982 7.41621 84.2622 7.58421 84.4062 7.96821L89.3262 21.0002H92.4702L86.9982 6.60021C86.4222 5.08821 85.3182 4.51221 83.6382 4.51221C81.9342 4.51221 80.8302 5.08821 80.2302 6.60021L74.5422 21.0002H77.6622L82.7982 7.96821Z" stroke="black" mask="url(#path-4-inside-1)"/>
<path d="M102.087 7.96821C102.255 7.58421 102.519 7.41621 102.903 7.41621C103.287 7.41621 103.551 7.58421 103.695 7.96821L108.615 21.0002H111.759L106.287 6.60021C105.711 5.08821 104.607 4.51221 102.927 4.51221C101.223 4.51221 100.119 5.08821 99.5193 6.60021L93.8313 21.0002H96.9513L102.087 7.96821Z" stroke="black" mask="url(#path-4-inside-1)"/>
<path d="M111.228 4.80021V7.63221H115.956V21.0002H118.812V7.63221H123.54V4.80021H111.228Z" stroke="black" mask="url(#path-4-inside-1)"/>
<path d="M131.29 7.96821C131.458 7.58421 131.722 7.41621 132.106 7.41621C132.49 7.41621 132.754 7.58421 132.898 7.96821L137.818 21.0002H140.962L135.49 6.60021C134.914 5.08821 133.81 4.51221 132.13 4.51221C130.426 4.51221 129.322 5.08821 128.722 6.60021L123.034 21.0002H126.154L131.29 7.96821Z" stroke="black" mask="url(#path-4-inside-1)"/>
</svg>
