<svg width="109" height="111" viewBox="0 0 109 111" fill="none" xmlns="http://www.w3.org/2000/svg">
<circle cx="4.42903" cy="24.5046" r="3.43034" transform="rotate(90 4.42903 24.5046)" fill="white"/>
<circle cx="45.595" cy="24.5046" r="3.43034" transform="rotate(90 45.595 24.5046)" fill="white"/>
<circle cx="25.013" cy="24.5046" r="3.43034" transform="rotate(90 25.013 24.5046)" fill="white"/>
<circle cx="4.57747" cy="45.529" r="3.43034" transform="rotate(90 4.57747 45.529)" fill="white"/>
<circle cx="45.7415" cy="45.529" r="3.43034" transform="rotate(90 45.7415 45.529)" fill="white"/>
<circle cx="25.1575" cy="45.529" r="3.43034" transform="rotate(90 25.1575 45.529)" fill="white"/>
<circle cx="4.57747" cy="3.43034" r="3.43034" transform="rotate(90 4.57747 3.43034)" fill="white"/>
<circle cx="45.7415" cy="3.43034" r="3.43034" transform="rotate(90 45.7415 3.43034)" fill="white"/>
<circle cx="25.1575" cy="3.43034" r="3.43034" transform="rotate(90 25.1575 3.43034)" fill="white"/>
<circle cx="4.42903" cy="85.7038" r="3.43034" transform="rotate(90 4.42903 85.7038)" fill="white"/>
<circle cx="45.595" cy="85.7038" r="3.43034" transform="rotate(90 45.595 85.7038)" fill="white"/>
<circle cx="25.013" cy="85.7038" r="3.43034" transform="rotate(90 25.013 85.7038)" fill="white"/>
<circle cx="4.57747" cy="106.728" r="3.43034" transform="rotate(90 4.57747 106.728)" fill="white"/>
<circle cx="45.7415" cy="106.728" r="3.43034" transform="rotate(90 45.7415 106.728)" fill="white"/>
<circle cx="25.1575" cy="106.728" r="3.43034" transform="rotate(90 25.1575 106.728)" fill="white"/>
<circle cx="4.57747" cy="64.6296" r="3.43034" transform="rotate(90 4.57747 64.6296)" fill="white"/>
<circle cx="45.7415" cy="64.6296" r="3.43034" transform="rotate(90 45.7415 64.6296)" fill="white"/>
<circle cx="25.1575" cy="64.6296" r="3.43034" transform="rotate(90 25.1575 64.6296)" fill="white"/>
<circle cx="63.595" cy="24.5046" r="3.43034" transform="rotate(90 63.595 24.5046)" fill="white"/>
<circle cx="104.761" cy="24.5046" r="3.43034" transform="rotate(90 104.761 24.5046)" fill="white"/>
<circle cx="84.179" cy="24.5046" r="3.43034" transform="rotate(90 84.179 24.5046)" fill="white"/>
<circle cx="63.7435" cy="45.529" r="3.43034" transform="rotate(90 63.7435 45.529)" fill="white"/>
<circle cx="104.908" cy="45.529" r="3.43034" transform="rotate(90 104.908 45.529)" fill="white"/>
<circle cx="84.3236" cy="45.529" r="3.43034" transform="rotate(90 84.3236 45.529)" fill="white"/>
<circle cx="63.7435" cy="3.43034" r="3.43034" transform="rotate(90 63.7435 3.43034)" fill="white"/>
<circle cx="104.908" cy="3.43034" r="3.43034" transform="rotate(90 104.908 3.43034)" fill="white"/>
<circle cx="84.3236" cy="3.43034" r="3.43034" transform="rotate(90 84.3236 3.43034)" fill="white"/>
</svg>
