<svg width="59" height="70" viewBox="0 0 59 70" fill="none" xmlns="http://www.w3.org/2000/svg">
<path d="M59 9.90374L50.2654 0.00898768C50.2654 0.00898768 40.1729 9.00082 29.4997 0C18.8251 9.00082 8.73326 0.00898768 8.73326 0.00898768L0 9.90374C0 9.90374 6.95025 14.5642 2.91823 25.5796C-1.64959 38.049 -2.91823 56.0762 29.4997 69.136C61.9169 56.0762 60.6482 38.049 56.0804 25.5796C52.0484 14.5642 59 9.90374 59 9.90374ZM27.1767 46.7996C26.4266 47.5497 25.4434 47.9244 24.461 47.9244C23.4779 47.9244 22.4955 47.5497 21.7447 46.7996L11.6667 36.7209L17.0973 31.2896L24.4603 38.6526L41.902 21.2109L47.3326 26.6416L27.1767 46.7996Z" fill="white"/>
</svg>
