<svg width="21" height="20" viewBox="0 0 21 20" fill="none" xmlns="http://www.w3.org/2000/svg">
<path d="M20.124 18.3109L16.3401 14.6309C17.8089 12.8353 18.5202 10.5562 18.3278 8.2622C18.1353 5.9682 17.0537 3.83368 15.3054 2.29754C13.5571 0.761407 11.275 -0.0595894 8.92825 0.00337096C6.58152 0.0663314 4.34858 1.00846 2.68857 2.63604C1.02856 4.26362 0.067653 6.45294 0.00343813 8.75382C-0.0607768 11.0547 0.776578 13.2923 2.34332 15.0064C3.91007 16.7206 6.08712 17.781 8.42683 17.9697C10.7665 18.1584 13.0911 17.461 14.9224 16.0209L18.6758 19.7009C18.7706 19.7946 18.8834 19.869 19.0077 19.9198C19.1319 19.9706 19.2653 19.9967 19.3999 19.9967C19.5345 19.9967 19.6678 19.9706 19.7921 19.9198C19.9164 19.869 20.0292 19.7946 20.124 19.7009C20.3079 19.5144 20.4106 19.2652 20.4106 19.0059C20.4106 18.7466 20.3079 18.4974 20.124 18.3109V18.3109ZM9.20064 16.0209C7.78859 16.0209 6.40824 15.6104 5.23416 14.8412C4.06008 14.072 3.145 12.9788 2.60463 11.6997C2.06426 10.4206 1.92287 9.01314 2.19835 7.65527C2.47383 6.2974 3.1538 5.05012 4.15227 4.07115C5.15075 3.09219 6.42288 2.4255 7.8078 2.1554C9.19272 1.88531 10.6282 2.02393 11.9328 2.55374C13.2374 3.08356 14.3524 3.98076 15.1369 5.13191C15.9214 6.28305 16.3401 7.63643 16.3401 9.0209C16.3401 10.8774 15.5879 12.6579 14.249 13.9706C12.9101 15.2834 11.0942 16.0209 9.20064 16.0209V16.0209Z" fill="white"/>
</svg>
