<svg width="70" height="69" viewBox="0 0 70 69" fill="none" xmlns="http://www.w3.org/2000/svg">
<path d="M59.7832 11.188C59.7832 10.4853 59.2802 9.89602 58.5743 9.89602H51.831V0H49.275V9.89602H43.8789V0H41.3228V9.89602H35.7847V0H33.2287V9.89602H27.6906V0H25.1345V9.89602H19.7384V0H17.1823V9.89602H10.4391C9.73316 9.89602 9.23019 10.4853 9.23019 11.188V17.8128H0V20.3575H9.23019V25.871H0V28.4157H9.23019V33.9292H0V36.4739H9.23019V41.846H0V44.3907H9.23019V49.9042H0V52.4489H9.23019V59.1091C9.23019 59.8118 9.73316 60.3657 10.4391 60.3657H17.1823V68.7067H19.7384V60.3657H25.1345V68.7067H27.6906V60.3657H33.2287V68.7067H35.7847V60.3657H41.3228V68.7067H43.8789V60.3657H49.275V68.7067H51.831V60.3657H58.5743C59.2802 60.3657 59.7832 59.8118 59.7832 59.1091V52.4489H69.0134V49.9042H59.7832V44.3907H69.0134V41.846H59.7832V36.4739H69.0134V33.9292H59.7832V28.4157H69.0134V25.871H59.7832V20.3575H69.0134V17.8128H59.7832V11.188ZM49.559 48.9146C49.559 49.2521 49.4244 49.5757 49.1847 49.8143C48.945 50.0529 48.6199 50.187 48.281 50.187H20.5904C20.2515 50.187 19.9264 50.0529 19.6867 49.8143C19.447 49.5757 19.3124 49.2521 19.3124 48.9146V21.3471C19.3124 21.0097 19.447 20.6861 19.6867 20.4475C19.9264 20.2088 20.2515 20.0748 20.5904 20.0748H48.281C48.6199 20.0748 48.945 20.2088 49.1847 20.4475C49.4244 20.6861 49.559 21.0097 49.559 21.3471V48.9146Z" fill="white"/>
<path d="M47.1457 22.6191H21.8691V47.6419H47.1457V22.6191Z" fill="white"/>
</svg>
