<svg width="4" height="15" viewBox="0 0 4 15" fill="none" xmlns="http://www.w3.org/2000/svg">
<path d="M1.668 14.046C2.55 14.046 3.18 13.344 3.18 12.498C3.18 11.652 2.55 10.932 1.668 10.932C0.804 10.932 0.174 11.652 0.174 12.498C0.174 13.344 0.804 14.046 1.668 14.046ZM1.668 8.81866C2.55 8.81866 3.18 8.11666 3.18 7.27066C3.18 6.42466 2.55 5.70466 1.668 5.70466C0.804 5.70466 0.174 6.42466 0.174 7.27066C0.174 8.11666 0.804 8.81866 1.668 8.81866ZM1.668 3.59131C2.55 3.59131 3.18 2.88931 3.18 2.04331C3.18 1.19731 2.55 0.477313 1.668 0.477313C0.804 0.477313 0.174 1.19731 0.174 2.04331C0.174 2.88931 0.804 3.59131 1.668 3.59131Z" fill="#646464"/>
</svg>
