<svg width="340" height="295" viewBox="0 0 340 295" fill="none" xmlns="http://www.w3.org/2000/svg">
<path d="M181.047 141.612C182.966 137.565 184.304 133.273 185.022 128.86L194.118 126.157L193.139 115.993L192.16 105.828L182.712 104.859C181.19 100.652 179.074 96.6783 176.426 93.0576L180.92 84.7828L172.98 78.2714L165.04 71.7503L157.668 77.6513C153.576 75.7719 149.24 74.4673 144.783 73.7755L142.12 64.7061L131.85 65.675L121.58 66.644L120.581 75.9265C116.332 77.4367 112.317 79.5307 108.657 82.1472L100.305 77.6997L93.6871 85.6161L87.0981 93.4743L93.0703 100.78C91.1469 104.821 89.8088 109.111 89.0953 113.522L80 116.225L80.979 126.39L81.9581 136.554L91.3961 137.523C92.9297 141.727 95.0486 145.7 97.6914 149.325L93.1878 157.59L101.128 164.101L109.068 170.622L116.45 164.721C120.538 166.621 124.875 167.945 129.334 168.655L132.066 177.647L142.336 176.678L152.606 175.709L153.585 166.359C157.822 164.872 161.829 162.808 165.49 160.225L173.842 164.673L180.431 156.815L187.01 148.957L181.047 141.612ZM120.914 140.439C117.064 137.279 114.248 133.06 112.821 128.316C111.394 123.571 111.421 118.515 112.897 113.785C114.374 109.056 117.235 104.866 121.118 101.746C125.001 98.6252 129.732 96.7146 134.712 96.2552C139.692 95.7957 144.698 96.8082 149.097 99.1646C153.495 101.521 157.089 105.115 159.424 109.493C161.758 113.871 162.729 118.836 162.212 123.759C161.696 128.683 159.716 133.345 156.522 137.155C154.403 139.685 151.8 141.778 148.863 143.312C145.927 144.847 142.713 145.794 139.406 146.099C136.099 146.404 132.764 146.061 129.591 145.09C126.418 144.119 123.47 142.539 120.914 140.439V140.439Z" fill="#F3752B"/>
<path d="M225.099 58.8237C225.099 58.8237 234.587 97.0293 211.817 107.467C189.046 117.905 193.439 98.817 193.439 98.817C193.439 98.817 184.113 96.1931 209.492 81.6125C221.428 74.7211 225.099 58.8237 225.099 58.8237Z" fill="#7EE0F3"/>
<path d="M286.904 61.1768C286.904 61.1768 291.717 95.2779 247.265 110.049C202.812 124.82 196.47 143.53 196.47 143.53C196.47 143.53 195.127 67.8729 286.904 61.1768Z" fill="#00B4D8"/>
<path d="M196.042 129.478C182.95 124.363 214.069 96.9237 237.974 97.6616C261.88 98.3994 278.096 107.473 294.118 103.644C294.118 103.634 260.498 154.685 196.042 129.478Z" fill="#0094B2"/>
<path d="M240.77 151.301C241.533 141.156 242.061 131.662 242.355 122.819C239.889 121.518 236.925 120.003 234.528 118.886C227.18 115.41 216.917 110.739 210.382 107.748C206.537 106 202.77 104.718 202.77 104.718C202.77 104.718 176.53 102.222 174.398 102.358C171.588 103.106 168.833 104.041 166.15 105.155C156.846 108.661 138.902 115.837 136.045 117.837C131.858 120.809 116.869 193.737 116.478 198.689C116.087 203.642 136.867 210.08 156.102 215.13C156.102 222.52 155.936 232.881 155.769 242.32C155.769 243.942 155.711 245.525 155.681 247.059H239.821C239.704 245.437 239.606 243.835 239.518 242.32C239.518 242.116 239.518 241.922 239.518 241.728C239.205 235.319 237.943 223.85 238.265 212.683C238.265 212.683 238.06 200.903 239.244 195.834C239.449 173.461 240.77 151.301 240.77 151.301ZM134.03 194.174C134.167 184.677 146.905 166.984 146.905 166.984C147.1 166.899 147.3 166.825 147.502 166.76C147.502 166.76 148.158 166.673 148.158 166.683C148.158 166.692 150.114 164.818 150.114 164.818C150.574 166.508 154.801 190.358 155.828 204.244C143.912 201.943 133.962 198.709 134.03 194.174Z" fill="#DBD8E3"/>
<path d="M241.662 242.355C241.114 238.423 240.596 234.492 240.135 230.638C239.991 229.353 239.838 228.088 239.694 226.774C239.689 226.71 239.689 226.645 239.694 226.581C239.089 221.278 238.59 216.188 238.225 211.532C237.997 208.039 238.151 204.531 238.686 201.071C240.126 177.252 240.836 152.148 240.836 152.148C241.594 141.87 242.026 132.259 242.314 123.305C242.314 123.305 209.986 107.938 207.059 107.059C207.059 107.059 213.192 121.547 217.79 153.935C219.556 166.366 222.829 187.307 225.21 208.673C226.496 220.206 228.905 231.952 230.738 242.345C231.017 243.958 231.286 245.523 231.535 247.059H242.353C242.046 245.503 241.825 243.929 241.662 242.355Z" fill="#656565"/>
<path d="M187.835 203.726C189.133 191.613 190.295 179.529 189.739 172.914C185.199 119.673 172.372 105.589 170.507 103.529C169.072 104.073 163.596 106.113 161.995 106.745C153.209 110.193 135.335 116.458 132.924 118.226C128.746 121.198 112.267 197.674 111.769 202.619C111.438 205.97 132.943 212.954 154.878 219.19C154.683 225.174 155.249 233.615 153.248 242.435C152.742 243.933 152.414 245.485 152.272 247.059L182.856 246.932C183.042 245.359 183.237 243.785 183.432 242.192C184.018 237.442 184.623 232.566 185.228 227.388C194.405 229.749 200.643 231.274 200.643 231.274C200.643 231.274 209.253 216.781 211.752 210.875C212.211 209.894 201.121 207.242 187.835 203.726ZM148.289 185.406C147.996 174.507 148.045 166.95 148.045 166.95C149.129 170.68 150.632 181.355 151.95 191.963C147.508 189.67 148.338 187.592 148.289 185.396V185.406Z" fill="#656565"/>
<path d="M172.941 103.603C172.941 103.603 176.263 97.3888 175.347 79.7316C175.084 74.8398 201.283 91.3101 201.283 91.3101C201.283 91.3101 201.186 92.9986 201.137 95.2757C201.137 96.2406 201.137 97.2537 201.137 98.3247V99.2124C201.137 99.6948 201.137 100.177 201.137 100.65C201.137 101.123 201.137 101.818 201.205 102.377C201.273 102.937 201.273 103.622 201.332 104.172C201.525 105.359 201.851 106.521 202.306 107.636C203.474 110.395 182.749 110.559 172.941 103.603Z" fill="#EEA987"/>
<path d="M194.892 115.294L200.001 121.578C200.001 121.578 197.038 125.248 191.766 122.521L194.892 115.294Z" fill="#E8734D"/>
<path d="M198.186 121.293C198.186 121.293 216.253 164.441 212.402 219.254L206.702 229.412L200.275 220.801C200.275 220.801 199.28 148.009 194.117 121.176L198.186 121.293Z" fill="#E8734D"/>
<path d="M200.001 108.984L195.09 115.294C195.09 115.294 187.22 113.615 184.917 109.096C182.614 104.578 200.001 108.984 200.001 108.984Z" fill="#EEA987"/>
<path d="M201.476 103.529C201.476 103.529 200.889 108.197 195.293 114.992L201.4 123.529L204.705 105.804L201.476 103.529Z" fill="#C4C1CC"/>
<path d="M174.508 97.647C174.508 97.647 186.74 111.484 195.295 114.862L191.32 124.706L171.766 103.17L174.508 97.647Z" fill="#C4C1CC"/>
<path d="M297.698 220C297.698 220 281.951 204.704 271.635 202.156C266.819 200.979 260.569 194.378 254.597 186.609C252.671 184.061 250.696 181.379 248.818 178.725C241.488 168.109 235.738 157.957 235.738 157.957C235.738 157.957 214.077 132.518 231.462 121.179C231.462 121.179 238.917 121.015 243.02 123.244C247.123 125.473 256.186 144.273 257.708 147.592C259.23 150.912 275.69 181.736 276.788 182.431C277.886 183.125 279.735 185.663 286.323 189.186C294.385 193.538 307.06 206.267 307.06 206.267L297.698 220Z" fill="#656565"/>
<path d="M221.667 238.823C220.567 238.794 219.478 238.593 218.442 238.226C218.442 238.226 216.75 237.149 215.474 236.453C215.078 236.238 214.722 236.062 214.485 235.964C212.546 235.405 210.711 234.538 209.053 233.398C206.926 231.802 200 225.377 200 225.377L204.472 218.522L206.55 211.765C206.55 211.765 222.766 213.361 224.893 214.634C225.098 214.758 225.296 214.892 225.486 215.036C227.208 216.279 227.96 217.974 228.791 218.679C229.088 218.963 231.907 221.95 231.759 223.154C231.717 223.832 231.502 224.488 231.133 225.06C230.765 225.632 230.255 226.102 229.652 226.425C229.652 226.425 229.078 229.696 227.366 231.155C227.221 232.05 226.868 232.899 226.336 233.636C225.804 234.374 225.107 234.979 224.299 235.406C224.299 235.406 223.508 238.432 221.667 238.823Z" fill="#EFAA88"/>
<path d="M196.119 33.4635C196.119 33.4635 225.297 26.594 219.151 62.6683C213.005 98.7426 206 101.666 188.234 94.5071C170.468 87.3482 171.694 64.2506 170.636 52.9623C169.579 41.674 186.782 33.9941 196.119 33.4635Z" fill="#EEA886"/>
<path d="M180.852 58.1742C180.462 54.8135 174.512 53.6762 174.149 58.7377C173.787 63.7992 177.002 72.6108 179.221 71.6989C181.44 70.787 181.431 62.8156 180.852 58.1742Z" fill="#EEA886"/>
<path d="M172.3 71.7649C172.3 71.7649 172.879 60.3551 177.084 59.9379C181.29 59.5207 181.986 64.1001 181.986 64.1001L186.25 64.8375C186.25 64.8375 184.76 54.8636 188.936 53.059C193.113 51.2544 216.229 58.1624 219.552 55.1838C222.875 52.2052 220.993 31.9567 214.856 29.2692C208.719 26.5816 191.789 20.6148 179.564 29.0654C179.564 29.0654 169.928 28.0952 168.614 35.857C167.301 43.6187 169.604 66.0891 172.3 71.7649Z" fill="#16202E"/>
<path d="M211.768 211.017L199.916 231.764C199.916 231.764 168.511 223.535 161.18 221.44L177.932 201.176C177.932 201.176 202.628 206.887 211.768 211.017Z" fill="#656565"/>
<path d="M201.176 102.353C196.841 101.973 192.655 100.493 188.97 98.0359C185.285 95.5792 182.209 92.2182 180 88.2354C185.612 94.2141 193.14 97.7214 201.08 98.0563V98.9975C201.08 99.509 201.08 100.021 201.08 100.522C201.08 101.023 201.148 101.76 201.176 102.353Z" fill="#A77860"/>
<path d="M234.117 194.687C251.938 213.176 275.499 236.47 275.499 236.47L284.705 218.853C284.705 218.853 263.786 194.139 249.598 177.647C245.257 179.839 237.273 184.919 234.117 194.687Z" fill="#EEA886"/>
<path d="M223.435 218.823C225.571 219.892 227.637 221.114 229.621 222.481C230.906 223.615 236.115 227.83 237.38 228.792C238.645 229.755 235.478 232.579 226.164 228.247C216.85 223.915 223.435 218.823 223.435 218.823Z" fill="#EEA886"/>
<path d="M223.679 167.059L215.293 244.706H325.72L334.116 167.059H223.679Z" fill="#F3752B"/>
<path d="M331.583 241.177H221.176L229.592 162.353H339.999L331.583 241.177ZM222.123 240.32H330.82L339.052 163.248H230.355L222.123 240.32Z" fill="white"/>
<path d="M207.06 244.706H224.707V237.647H207.06V244.706Z" fill="#D96521"/>
<path d="M34.1207 244.508H29.5117V249.253H34.1207V244.508Z" fill="#96CBFF"/>
<path d="M38.73 244.508H34.1211V249.253H38.73V244.508Z" fill="#95CAFF"/>
<path d="M43.3394 244.508H38.7305V249.253H43.3394V244.508Z" fill="#94C9FF"/>
<path d="M47.9488 244.508H43.3398V249.253H47.9488V244.508Z" fill="#93C9FF"/>
<path d="M52.5582 244.508H47.9492V249.253H52.5582V244.508Z" fill="#92C8FF"/>
<path d="M57.1675 244.508H52.5586V249.253H57.1675V244.508Z" fill="#91C7FF"/>
<path d="M61.773 244.508H57.1641V249.253H61.773V244.508Z" fill="#90C6FF"/>
<path d="M66.3824 244.508H61.7734V249.253H66.3824V244.508Z" fill="#8FC6FF"/>
<path d="M70.9918 244.508H66.3828V249.253H70.9918V244.508Z" fill="#8EC5FF"/>
<path d="M75.6011 244.508H70.9922V249.253H75.6011V244.508Z" fill="#8DC4FF"/>
<path d="M80.2105 244.508H75.6016V249.253H80.2105V244.508Z" fill="#8CC3FF"/>
<path d="M84.8199 244.508H80.2109V249.253H84.8199V244.508Z" fill="#8BC2FF"/>
<path d="M89.4293 244.508H84.8203V249.253H89.4293V244.508Z" fill="#8AC2FF"/>
<path d="M94.0347 244.508H89.4258V249.253H94.0347V244.508Z" fill="#89C1FF"/>
<path d="M98.648 244.508H94.0391V249.253H98.648V244.508Z" fill="#88C0FF"/>
<path d="M103.253 244.508H98.6445V249.253H103.253V244.508Z" fill="#87BFFF"/>
<path d="M107.863 244.508H103.254V249.253H107.863V244.508Z" fill="#86BFFF"/>
<path d="M112.472 244.508H107.863V249.253H112.472V244.508Z" fill="#85BEFF"/>
<path d="M117.082 244.508H112.473V249.253H117.082V244.508Z" fill="#84BDFF"/>
<path d="M121.695 244.508H117.086V249.253H121.695V244.508Z" fill="#83BCFF"/>
<path d="M126.3 244.508H121.691V249.253H126.3V244.508Z" fill="#82BBFF"/>
<path d="M130.906 244.508H126.297V249.253H130.906V244.508Z" fill="#81BBFF"/>
<path d="M135.527 244.508H130.918V249.253H135.527V244.508Z" fill="#80BAFF"/>
<path d="M140.132 244.508H135.523V249.253H140.132V244.508Z" fill="#7FB9FF"/>
<path d="M144.746 244.508H140.137V249.253H144.746V244.508Z" fill="#7EB8FF"/>
<path d="M149.355 244.508H144.746V249.253H149.355V244.508Z" fill="#7DB7FF"/>
<path d="M153.964 244.508H149.355V249.253H153.964V244.508Z" fill="#7CB7FF"/>
<path d="M158.574 244.508H153.965V249.253H158.574V244.508Z" fill="#7BB6FF"/>
<path d="M163.183 244.508H158.574V249.253H163.183V244.508Z" fill="#7AB5FF"/>
<path d="M167.789 244.508H163.18V249.253H167.789V244.508Z" fill="#79B4FF"/>
<path d="M172.398 244.508H167.789V249.253H172.398V244.508Z" fill="#78B4FF"/>
<path d="M177.007 244.508H172.398V249.253H177.007V244.508Z" fill="#77B3FF"/>
<path d="M181.617 244.508H177.008V249.253H181.617V244.508Z" fill="#76B2FF"/>
<path d="M186.222 244.508H181.613V249.253H186.222V244.508Z" fill="#74B1FF"/>
<path d="M190.836 244.508H186.227V249.253H190.836V244.508Z" fill="#73B0FF"/>
<path d="M195.445 244.508H190.836V249.253H195.445V244.508Z" fill="#72B0FF"/>
<path d="M200.054 244.508H195.445V249.253H200.054V244.508Z" fill="#71AFFF"/>
<path d="M204.664 244.508H200.055V249.253H204.664V244.508Z" fill="#70AEFF"/>
<path d="M209.277 244.508H204.668V249.253H209.277V244.508Z" fill="#6FADFF"/>
<path d="M213.878 244.508H209.27V249.253H213.878V244.508Z" fill="#6EADFF"/>
<path d="M218.492 244.508H213.883V249.253H218.492V244.508Z" fill="#6DACFF"/>
<path d="M223.101 244.508H218.492V249.253H223.101V244.508Z" fill="#6CABFF"/>
<path d="M227.703 244.508H223.094V249.253H227.703V244.508Z" fill="#6BAAFF"/>
<path d="M232.312 244.508H227.703V249.253H232.312V244.508Z" fill="#6AA9FF"/>
<path d="M236.925 244.508H232.316V249.253H236.925V244.508Z" fill="#69A9FF"/>
<path d="M241.535 244.508H236.926V249.253H241.535V244.508Z" fill="#68A8FF"/>
<path d="M246.144 244.508H241.535V249.253H246.144V244.508Z" fill="#67A7FF"/>
<path d="M250.75 244.508H246.141V249.253H250.75V244.508Z" fill="#66A6FF"/>
<path d="M255.359 244.508H250.75V249.253H255.359V244.508Z" fill="#65A6FF"/>
<path d="M259.968 244.508H255.359V249.253H259.968V244.508Z" fill="#64A5FF"/>
<path d="M264.578 244.508H259.969V249.253H264.578V244.508Z" fill="#63A4FF"/>
<path d="M269.191 244.508H264.582V249.253H269.191V244.508Z" fill="#62A3FF"/>
<path d="M273.8 244.508H269.191V249.253H273.8V244.508Z" fill="#61A2FF"/>
<path d="M278.414 244.508H273.805V249.253H278.414V244.508Z" fill="#60A2FF"/>
<path d="M283.023 244.508H278.414V249.253H283.023V244.508Z" fill="#5FA1FF"/>
<path d="M287.636 244.508H283.027V249.253H287.636V244.508Z" fill="#5EA0FF"/>
<path d="M292.242 244.508H287.633V249.253H292.242V244.508Z" fill="#5D9FFF"/>
<path d="M296.847 244.508H292.238V249.253H296.847V244.508Z" fill="#5C9EFF"/>
<path d="M301.461 244.508H296.852V249.253H301.461V244.508Z" fill="#5B9EFF"/>
<path d="M306.066 244.508H301.457V249.253H306.066V244.508Z" fill="#5A9DFF"/>
<path d="M310.675 244.508H306.066V249.253H310.675V244.508Z" fill="#599CFF"/>
<path d="M315.285 244.508H310.676V249.253H315.285V244.508Z" fill="#589BFF"/>
<path d="M319.894 244.508H315.285V249.253H319.894V244.508Z" fill="#579BFF"/>
<path d="M324.503 244.508H319.895V249.253H324.503V244.508Z" fill="#569AFF"/>
<path d="M329.113 244.508H324.504V249.253H329.113V244.508Z" fill="#5599FF"/>
<path d="M268.451 204.588C267.537 209.08 269.602 213.299 273.057 214.014C276.512 214.729 280.007 211.668 280.95 207.176C281.893 202.685 279.788 198.466 276.333 197.751C272.878 197.036 269.354 200.097 268.451 204.588Z" fill="#FDA978"/>
<path d="M111.437 135.294H65.0345C61.6047 135.294 58.8242 138.08 58.8242 141.516V214.954C58.8242 218.391 61.6047 221.176 65.0345 221.176H111.437C114.867 221.176 117.648 218.391 117.648 214.954V141.516C117.648 138.08 114.867 135.294 111.437 135.294Z" fill="#D7D7D7"/>
<path d="M111.764 190.588H108.234V214.118H111.764V190.588Z" fill="#E3F2FF"/>
<path d="M105.881 194.118H102.352V214.118H105.881V194.118Z" fill="#E3F2FF"/>
<path d="M98.8217 197.647H96.4688V214.118H98.8217V197.647Z" fill="#E3F2FF"/>
<path d="M91.7631 201.176H89.4102V214.117H91.7631V201.176Z" fill="#E3F2FF"/>
<path d="M71.2581 198.823L70.5859 198.591L76.3627 182.479L88.8711 179.193L93.3717 161.512L103.026 157.275L105.188 143.529L105.88 143.636L103.659 157.76L93.966 162.016L89.4556 179.765L76.8985 183.071L71.2581 198.823Z" fill="#E3F2FF"/>
<path d="M90.1862 178.294C90.4082 178.563 90.545 178.893 90.5794 179.24C90.6138 179.587 90.5443 179.937 90.3796 180.245C90.2149 180.552 89.9625 180.804 89.6543 180.969C89.3461 181.133 88.996 181.202 88.6483 181.168C88.3007 181.133 87.9712 180.996 87.7015 180.774C87.4318 180.552 87.2341 180.256 87.1334 179.921C87.0328 179.587 87.0337 179.231 87.136 178.897C87.2384 178.563 87.4375 178.268 87.7083 178.047C87.8869 177.9 88.0929 177.79 88.3143 177.723C88.5358 177.655 88.7683 177.633 88.9986 177.656C89.2289 177.679 89.4524 177.747 89.6562 177.856C89.86 177.966 90.0402 178.114 90.1862 178.294Z" fill="#FFC955"/>
<path d="M89.9427 180.643C89.6728 180.938 89.3433 181.12 88.9958 181.165C88.6483 181.211 88.2985 181.118 87.9907 180.898C87.6829 180.679 87.4308 180.342 87.2664 179.931C87.102 179.521 87.0327 179.054 87.0672 178.591C87.1018 178.128 87.2386 177.689 87.4604 177.329C87.6822 176.969 87.979 176.706 88.3132 176.571C88.6475 176.437 89.0041 176.437 89.3381 176.573C89.6721 176.709 89.9683 176.974 90.1894 177.334C90.4853 177.817 90.6256 178.436 90.5793 179.056C90.5331 179.677 90.3042 180.247 89.9427 180.643ZM88.0624 177.56C87.8789 177.761 87.7442 178.03 87.6753 178.333C87.6064 178.636 87.6063 178.96 87.6752 179.263C87.7441 179.566 87.8787 179.835 88.0622 180.037C88.2457 180.238 88.4697 180.362 88.7061 180.393C88.9425 180.425 89.1805 180.362 89.3903 180.214C89.6 180.065 89.772 179.837 89.8845 179.558C89.997 179.279 90.045 178.962 90.0225 178.646C89.9999 178.331 89.9078 178.032 89.7578 177.786C89.655 177.625 89.5292 177.492 89.3878 177.396C89.2463 177.3 89.0919 177.242 88.9336 177.225C88.7752 177.209 88.616 177.235 88.4652 177.301C88.3143 177.367 88.1748 177.473 88.0547 177.611L88.0624 177.56Z" fill="#E3F2FF"/>
<path d="M94.8933 160.644C95.1152 160.914 95.252 161.243 95.2864 161.591C95.3209 161.938 95.2513 162.289 95.0866 162.597C94.9219 162.905 94.6695 163.157 94.3613 163.322C94.0531 163.486 93.703 163.555 93.3554 163.521C93.0077 163.486 92.6782 163.349 92.4085 163.127C92.1388 162.905 91.9411 162.608 91.8405 162.273C91.7398 161.939 91.7407 161.582 91.843 161.248C91.9454 160.914 92.1446 160.618 92.4154 160.397C92.7771 160.102 93.2409 159.962 93.7053 160.009C94.1697 160.055 94.5968 160.283 94.8933 160.644V160.644Z" fill="#FFC955"/>
<path d="M94.6417 163.007C94.3704 163.299 94.0403 163.477 93.693 163.519C93.3457 163.562 92.9967 163.466 92.6901 163.245C92.3835 163.023 92.133 162.686 91.9701 162.275C91.8072 161.864 91.7393 161.398 91.7748 160.936C91.8104 160.474 91.9479 160.036 92.1699 159.678C92.392 159.32 92.6887 159.057 93.0226 158.923C93.3565 158.789 93.7128 158.79 94.0464 158.925C94.38 159.061 94.6761 159.324 94.8974 159.684C95.194 160.17 95.3337 160.793 95.2858 161.416C95.2379 162.039 95.0062 162.611 94.6417 163.007V163.007ZM92.7592 159.911C92.5747 160.113 92.4393 160.383 92.37 160.687C92.3007 160.992 92.3007 161.317 92.3699 161.621C92.4391 161.926 92.5745 162.196 92.759 162.398C92.9434 162.6 93.1687 162.725 93.4063 162.756C93.6439 162.788 93.8832 162.725 94.094 162.576C94.3049 162.426 94.4778 162.197 94.5909 161.917C94.704 161.637 94.7523 161.318 94.7296 161.002C94.7069 160.685 94.6143 160.384 94.4635 160.138C94.2571 159.811 93.9624 159.606 93.6432 159.568C93.3241 159.529 93.0064 159.66 92.7592 159.931V159.911Z" fill="#E3F2FF"/>
<path d="M104.303 155.938C104.525 156.207 104.662 156.537 104.697 156.885C104.731 157.232 104.661 157.582 104.497 157.891C104.332 158.199 104.08 158.451 103.771 158.615C103.463 158.78 103.113 158.849 102.766 158.815C102.418 158.78 102.088 158.643 101.819 158.421C101.549 158.199 101.351 157.902 101.251 157.567C101.15 157.233 101.151 156.876 101.253 156.542C101.356 156.208 101.555 155.912 101.826 155.691C102.187 155.396 102.651 155.256 103.115 155.303C103.58 155.349 104.007 155.577 104.303 155.938V155.938Z" fill="#FFC955"/>
<path d="M104.052 158.431C103.781 158.65 103.45 158.784 103.103 158.816C102.756 158.848 102.407 158.776 102.1 158.61C101.794 158.444 101.543 158.191 101.38 157.883C101.217 157.575 101.149 157.225 101.185 156.879C101.221 156.532 101.358 156.204 101.58 155.935C101.802 155.666 102.099 155.469 102.433 155.369C102.767 155.268 103.123 155.269 103.457 155.37C103.79 155.472 104.086 155.67 104.308 155.939C104.604 156.304 104.744 156.771 104.696 157.238C104.648 157.706 104.416 158.135 104.052 158.431V158.431ZM102.162 156.11C101.976 156.262 101.839 156.466 101.769 156.696C101.699 156.926 101.699 157.171 101.768 157.401C101.838 157.631 101.974 157.835 102.16 157.988C102.346 158.141 102.573 158.235 102.812 158.259C103.051 158.282 103.292 158.235 103.505 158.122C103.717 158.009 103.891 157.835 104.004 157.624C104.118 157.412 104.166 157.171 104.143 156.932C104.12 156.693 104.026 156.466 103.874 156.28C103.666 156.039 103.373 155.888 103.057 155.859C102.74 155.83 102.425 155.926 102.177 156.125L102.162 156.11Z" fill="#E3F2FF"/>
<path d="M78.2874 181.82C78.5833 182.09 78.7657 182.419 78.8116 182.767C78.8575 183.115 78.7648 183.465 78.5452 183.773C78.3256 184.081 77.989 184.333 77.5781 184.498C77.1672 184.662 76.7004 184.732 76.2369 184.697C75.7733 184.662 75.334 184.525 74.9744 184.303C74.6148 184.081 74.3512 183.784 74.217 183.449C74.0828 183.115 74.084 182.758 74.2204 182.424C74.3569 182.09 74.6224 181.794 74.9835 181.573C75.4658 181.278 76.0842 181.139 76.7034 181.185C77.3226 181.231 77.8921 181.46 78.2874 181.82V181.82Z" fill="#FFC955"/>
<path d="M77.9554 184.183C77.5933 184.475 77.1528 184.654 76.6893 184.696C76.2258 184.738 75.7601 184.643 75.3509 184.421C74.9418 184.2 74.6075 183.863 74.3901 183.452C74.1727 183.041 74.082 182.575 74.1295 182.113C74.1769 181.651 74.3604 181.213 74.6567 180.855C74.953 180.497 75.349 180.234 75.7946 180.1C76.2403 179.966 76.7157 179.967 77.1609 180.102C77.6062 180.237 78.0013 180.501 78.2965 180.86C78.6898 181.347 78.8746 181.97 78.8107 182.592C78.7468 183.214 78.4394 183.786 77.9554 184.183V184.183ZM75.4328 181.087C75.1845 181.291 75.0021 181.563 74.9087 181.869C74.8153 182.176 74.815 182.503 74.9079 182.81C75.0008 183.116 75.1827 183.389 75.4306 183.592C75.6786 183.796 75.9814 183.921 76.3008 183.953C76.6202 183.985 76.9418 183.921 77.2251 183.77C77.5083 183.62 77.7405 183.389 77.8921 183.106C78.0438 182.824 78.1081 182.503 78.0771 182.184C78.046 181.865 77.9209 181.562 77.7176 181.314C77.4404 180.987 77.0452 180.782 76.6176 180.744C76.19 180.705 75.7644 180.836 75.4328 181.108V181.087Z" fill="#E3F2FF"/>
<path d="M82.1846 160H66.053C65.3096 160 64.707 160.545 64.707 161.218V162.312C64.707 162.984 65.3096 163.529 66.053 163.529H82.1846C82.928 163.529 83.5306 162.984 83.5306 162.312V161.218C83.5306 160.545 82.928 160 82.1846 160Z" fill="#EBEBEB"/>
<path d="M82.1846 152.941H66.053C65.3096 152.941 64.707 153.668 64.707 154.564V156.023C64.707 156.92 65.3096 157.647 66.053 157.647H82.1846C82.928 157.647 83.5306 156.92 83.5306 156.023V154.564C83.5306 153.668 82.928 152.941 82.1846 152.941Z" fill="#EBEBEB"/>
<path d="M51.4442 167.059C51.4442 167.059 51.056 172.695 51.7631 174.117C51.7631 174.117 49.8913 173.514 49.4615 172.562C49.0316 171.611 51.4442 167.059 51.4442 167.059Z" fill="#16202E"/>
<path d="M68.5306 184.182L69.4815 183.581C69.8256 183.512 70.181 183.512 70.525 183.581C70.934 183.632 71.3252 183.77 71.6695 183.984C71.7095 184.028 71.7379 184.08 71.7525 184.137C71.7671 184.193 71.7675 184.252 71.7537 184.308C71.7276 184.439 71.6668 184.561 71.577 184.664C71.6024 184.74 71.6064 184.82 71.5887 184.898C71.571 184.976 71.5322 185.048 71.476 185.107C71.4923 185.186 71.4834 185.268 71.4505 185.343C71.4176 185.417 71.3621 185.481 71.2908 185.526C71.2908 185.526 71.3498 185.779 71.1562 185.882C70.9629 185.869 70.7688 185.869 70.5755 185.882C69.9441 185.885 69.3154 185.805 68.7073 185.645C68.7073 185.645 67.7732 185.479 68.5306 184.182Z" fill="#EEA886"/>
<path d="M70.058 184.706C69.8882 184.861 69.6793 185.006 69.4362 185.135C69.2152 185.204 70.4726 185.882 70.4726 185.882C70.4726 185.882 70.9147 184.969 70.058 184.706Z" fill="#CF8C6C"/>
<path d="M67.5291 183.835C67.7385 183.788 67.9442 183.69 68.1417 183.543C68.3744 183.323 68.0988 185.882 68.0988 185.882C67.8189 185.484 67.4993 185.209 67.1615 185.078C66.794 185.054 67.5291 183.835 67.5291 183.835Z" fill="#EEA886"/>
<path d="M42.7292 238.88C43.5853 239.962 44.5191 240.998 45.5255 241.983C45.5255 241.983 46.9831 242.62 47.0262 243.13C47.1126 244.085 47.1666 244.649 45.2664 244.695C43.3662 244.74 42.1569 244.695 41.8115 243.712C41.5869 243.1 41.2674 242.516 40.8613 241.974L40.7102 244.513H40.2891C40.2891 244.513 40.0948 241.974 40.0624 241.61C40.03 241.246 39.7601 239.854 40.667 239.235C40.9596 239.054 41.2956 238.928 41.6517 238.866C42.0078 238.805 42.3755 238.81 42.7292 238.88V238.88Z" fill="#162D40"/>
<path d="M45.8817 242.22C45.2289 242.397 44.5475 242.397 43.8947 242.22C42.811 241.914 41.7747 239.052 41.461 238.809L41.1758 237.647H43.2863C43.3115 238.2 43.4343 238.742 43.6476 239.242C44.3282 240.292 45.0747 241.287 45.8817 242.22V242.22Z" fill="#162D40"/>
<path d="M54.6639 237.056C54.8823 237.569 55.1532 238.055 55.4717 238.505C55.8611 239.047 57.0777 241.277 57.6033 241.433C58.1289 241.59 59.7836 241.902 59.9296 242.892C60.0756 243.883 60.1535 244.581 58.528 244.654C56.9025 244.727 55.8416 244.831 55.0629 243.612C54.5052 242.801 53.8241 242.096 53.0481 241.527V244.706H52.4252C52.3409 243.515 52.1848 242.332 51.958 241.162C51.7386 240.458 51.7062 239.702 51.8643 238.979C52.0224 238.255 52.3648 237.593 52.8535 237.066C54.3621 235.732 54.6639 237.056 54.6639 237.056Z" fill="#162D40"/>
<path d="M57.6473 241.05C57.6473 241.05 56.3066 241.335 55.7937 241.05C55.2809 240.765 53.5263 238.304 52.9414 238.154C52.9414 238.154 53.5083 237.209 54.9299 237.899C54.9299 237.899 57.2694 240.645 57.6473 241.05Z" fill="#162D40"/>
<path d="M42.1322 192.632C40.903 194.387 40.0451 196.396 39.6155 198.525C39.0803 201.717 39.9348 212.423 39.9066 214.004C39.8784 215.585 38.5826 220.486 38.8643 223.452C39.146 226.419 40.6109 238.823 40.6109 238.823L44.0384 238.755C44.0384 238.755 43.3529 225.377 43.522 224.13C43.691 222.883 44.2638 217.579 44.3295 217.068C44.3953 216.558 48.236 202.974 48.236 200.676C48.236 198.378 46.9025 188.88 42.1322 192.632Z" fill="#1D3B54"/>
<path d="M52.3094 193.616C52.3094 193.616 55.9523 206.617 56.3839 208.378C56.8156 210.14 57.6789 212.532 57.6474 212.856C57.6158 213.181 57.1841 218.761 57.1841 218.761L56.1312 237.647H52.3094C52.3094 237.647 51.0775 225.631 50.8775 223.2C50.6774 220.769 52.2988 217.029 51.9303 216.006C51.5618 214.982 45.6132 203.103 45.6132 203.103C45.6132 203.103 41.0754 189.847 52.3094 193.616Z" fill="#1D3B54"/>
<path d="M51.7716 175.294C52.6689 175.418 53.4971 175.826 54.1245 176.453C55.0086 177.44 55.7571 178.53 56.3515 179.699C56.6129 180.255 60.3311 185.384 60.5247 185.504C60.7184 185.625 62.3451 185.208 63.6425 185.106C65.4474 184.867 67.2243 184.464 68.9486 183.9L69.4134 186.2C69.4134 186.2 61.5995 188.611 59.7985 188.185C57.5909 187.665 52.5172 181.433 52.5172 181.433C52.5172 181.433 48.7313 177.186 51.7716 175.294Z" fill="#00B4D8"/>
<path d="M49.3748 174.201C50.14 174.573 50.9295 174.893 51.7381 175.161C52.3435 175.276 54.6677 178.288 55.1169 179.382C55.5661 180.476 55.1169 182.126 54.2673 184.064C53.4177 186.002 54.2673 186.645 53.8279 188.583C53.5046 191.33 53.4001 194.099 53.5154 196.862C53.5838 197.937 42.2558 199.961 40 198.004C40 198.004 41.5234 193.044 43.3398 191.183C43.7304 190.78 43.6913 188.103 43.4277 187.431C43.164 186.76 40.1367 181.771 40.1367 181.771C40.1367 181.771 39.9219 176.705 41.2304 175.708C42.373 174.835 45.4882 174.528 46.0546 174.336C47.1448 174.101 48.2686 174.055 49.3748 174.201V174.201Z" fill="#00B4D8"/>
<path d="M49.4839 177.647L50.5866 176.346L49.5932 172.941C49.3938 174.501 49.3572 176.079 49.4839 177.647V177.647Z" fill="#D1C0BA"/>
<path d="M42.8593 175.367C42.1368 175.212 41.3805 175.306 40.7232 175.632C40.0659 175.959 39.5497 176.497 39.2652 177.152C37.949 179.567 38.2528 180.867 37.9794 181.953C37.7061 183.04 36.4608 190.306 36.3899 190.626C36.319 190.946 35.1548 194.632 35.3066 195.767C35.4585 196.902 36.5418 205.468 36.4911 205.788C36.4405 206.108 38.5767 205.507 38.5767 205.507C38.5767 205.507 38.4958 196.776 38.5767 196.01C38.6577 195.244 38.7286 191.48 39.2956 190.5C39.8625 189.52 41.2597 183.544 41.5634 182.933C41.8671 182.322 44.8234 176.143 42.8593 175.367Z" fill="#EEA886"/>
<path d="M49.4122 171.803C49.2718 173.214 49.1948 174.633 49.1813 176.054C49.1813 176.054 47.6393 177.867 45.8828 173.929C46.3378 172.717 46.4023 171.351 46.0642 170.088C45.5282 167.875 49.4122 171.803 49.4122 171.803Z" fill="#EEA886"/>
<path d="M49.4115 176.511V177.647L47.0586 176.471L49.4115 176.511Z" fill="#EEA886"/>
<path d="M49.4129 177.647L48.5769 176.698L45.759 174.118L44.707 174.549L49.4129 177.647Z" fill="#D1C0BA"/>
<path d="M50.3736 176.111L51.7631 176.47L49.4102 172.941L50.3736 176.111Z" fill="#FAE6DE"/>
<path d="M48.2364 177.008L47.17 178.824L44.707 174.696L45.765 174.118L48.2364 177.008Z" fill="#FAE6DE"/>
<path d="M55.0877 184.706C55.3623 183.147 55.3623 181.559 55.0877 180C55.0877 180 54.8073 181.434 54.1172 183.674L55.0877 184.706Z" fill="#0288A3"/>
<path d="M41.1758 184.516L42.3523 180C42.3247 181.974 42.1565 183.941 41.8493 185.882C41.8493 185.882 41.4452 185.048 41.1758 184.516Z" fill="#0288A3"/>
<path d="M85.8821 164.706L67.0586 187.739L67.715 188.235L85.8821 164.706Z" fill="#54281A"/>
<path d="M71.4936 183.57C71.4936 183.57 70.095 183.436 70.0472 183.656C70.03 183.713 70.0272 183.773 70.0389 183.831C70.0506 183.89 70.0764 183.944 70.1142 183.99L69.5107 184.2C69.5107 184.2 69.1946 184.563 69.6832 184.802C69.6832 184.802 69.3479 185.108 69.846 185.29C69.846 185.29 69.7119 185.586 69.9322 185.71C70.2974 185.813 70.6738 185.87 71.0529 185.882C71.0529 185.882 71.2541 185.806 71.2062 185.452C71.2892 185.4 71.3539 185.323 71.3916 185.232C71.4293 185.142 71.4382 185.042 71.4169 184.946C71.4835 184.876 71.5294 184.789 71.5497 184.694C71.57 184.6 71.5638 184.502 71.5319 184.411C71.5319 184.411 71.9725 183.981 71.6372 183.589L71.4936 183.57Z" fill="#DB9C7C"/>
<path d="M68.9646 183.529C69.5346 183.753 70.0499 184.028 70.4942 184.347C70.5842 184.445 70.6484 184.543 70.4942 184.633C70.34 184.723 70.0572 184.756 69.5688 184.576C69.1607 184.452 68.7284 184.364 68.2834 184.314C68.2834 184.314 67.9621 184.077 68.9646 183.529Z" fill="#EEA886"/>
<path d="M48.1322 161.178C48.1322 161.178 51.0856 161.089 51.6315 164.946C52.1774 168.804 50.9155 172.179 50.4233 172.721C49.9311 173.264 46.9777 172.859 46.2796 170.856C45.5816 168.854 44.5703 167.393 44.7224 165.677C44.8745 163.96 44.4987 161.108 48.1322 161.178Z" fill="#EEA886"/>
<path d="M51.6996 165.905C51.6996 165.905 52.5223 161.027 48.4278 160.156C44.3333 159.284 42.8936 162.279 42.5104 164.072C42.1271 165.865 42.5758 170.883 42.5758 170.883C43.9 172.151 45.3665 173.238 46.9414 174.118C46.9414 174.118 45.5766 168.759 46.0907 164.923C47.9238 165.238 49.7918 165.238 51.6249 164.923C51.6249 164.923 51.6903 165.704 51.6996 165.905Z" fill="#16202E"/>
<path d="M49.4115 172.39C48.5647 172.333 47.7535 172.117 47.0586 171.765C47.67 172.291 48.4591 172.696 49.3505 172.941C49.3865 172.759 49.4069 172.575 49.4115 172.39Z" fill="#A77860"/>
<path d="M43.2518 198.015L30.8242 200.024L32.31 209.217L44.7375 207.209L43.2518 198.015Z" fill="#366E9C"/>
<path d="M35.7139 208.115C35.5995 207.963 35.5151 207.796 35.4639 207.621C35.4639 207.621 35.4639 207.292 35.4639 207.06C35.4714 207.002 35.4714 206.944 35.4639 206.886C35.3452 206.574 35.2876 206.247 35.2934 205.919C35.4859 205.147 35.7288 204.385 36.0208 203.636H37.3051L38.5099 203.529C39.0845 204.423 39.5821 205.351 39.9989 206.306V206.422C39.9489 206.689 39.8689 206.951 39.7602 207.205C39.7602 207.263 39.5669 207.921 39.3624 208.008C39.2476 208.063 39.1185 208.091 38.9873 208.091C38.856 208.091 38.727 208.063 38.6122 208.008C38.2952 208.129 37.945 208.173 37.6006 208.134C37.4435 208.201 37.2704 208.235 37.0949 208.235C36.9194 208.235 36.7462 208.201 36.5891 208.134C36.5891 208.134 35.964 208.279 35.7139 208.115Z" fill="#EEA886"/>
<path d="M42.8273 175.367C42.1104 175.212 41.3599 175.306 40.7077 175.632C40.0555 175.957 39.5433 176.494 39.261 177.148C38.4094 178.557 37.8915 180.131 37.7441 181.756C37.5834 182.869 35.9962 189.501 35.9259 189.781C35.8555 190.062 35.3231 194.225 35.293 195.726C35.293 196.868 35.5441 204.351 35.4939 204.642C35.4437 204.932 39.0802 204.138 39.0802 204.138C39.0802 204.138 38.6784 197.236 38.7587 196.51C38.8297 194.705 39.0277 192.906 39.3514 191.127C39.7834 189.878 41.4912 183.615 41.7825 182.995C42.0738 182.376 44.7761 176.141 42.8273 175.367Z" fill="#00B4D8"/>
<path d="M156.236 239.761L156.471 237.656C155.289 237.619 154.106 237.697 152.941 237.886C152.941 237.886 153.218 239.655 153.248 239.914C153.279 240.174 156.236 239.761 156.236 239.761Z" fill="#5C544D"/>
<path d="M150.868 244.667C154.331 244.667 156.001 244.882 156.378 244.296C156.756 243.711 155.841 240 155.841 240C154.914 240.235 153.952 240.279 153.01 240.127C152.524 240.731 151.951 241.255 151.312 241.679C150.472 242.148 149.16 242.334 148.67 242.822C148.179 243.31 147.405 244.697 150.868 244.667Z" fill="#3C4145"/>
<path d="M136.221 239.761L136.467 237.656C135.285 237.619 134.103 237.697 132.938 237.886C132.938 237.886 133.203 239.655 133.244 239.914C133.285 240.174 136.221 239.761 136.221 239.761Z" fill="#5C544D"/>
<path d="M131.122 244.697C134.436 244.599 136.034 244.913 136.386 244.324C136.738 243.734 135.871 240 135.871 240C134.988 240.257 134.063 240.301 133.162 240.128C132.697 240.736 132.149 241.263 131.537 241.69C130.733 242.162 127.799 242.555 127.329 243.046C126.859 243.538 126.453 244.825 131.122 244.697Z" fill="#3C4145"/>
<path d="M152.004 191.765C152.811 194.465 153.218 197.286 153.212 200.123C153.03 203.988 153.938 208.217 154.302 212.258C154.72 216.753 156.4 227.413 156.464 229.822C156.527 232.231 156.2 239.911 156.2 239.911L152.821 240C152.821 240 149.987 221.375 149.251 219.467C148.516 217.559 144.873 204.018 144.71 202.493C144.546 200.969 152.004 191.765 152.004 191.765Z" fill="#E8734D"/>
<path d="M137.151 193.071C137.151 193.071 135.282 203.551 134.993 205.896C134.703 208.241 134.572 217.222 134.451 218.681C134.329 220.141 133.61 237.83 132.938 240H137.375C137.375 240 140.785 227.146 140.785 221.065C140.785 214.984 143.419 207.842 145.119 203.833C146.819 199.824 150.724 199.727 151.761 192.273C151.761 192.273 138.571 190.707 137.151 193.071Z" fill="#E8734D"/>
<path d="M146.099 156.826C146.099 156.826 142.674 155.38 141.095 158.323C139.515 161.265 139.67 167.17 141.396 167.892C143.122 168.615 145.706 168.233 146.592 166.395C147.549 164.465 148.111 162.317 148.235 160.108C148.184 159.391 147.957 158.703 147.58 158.123C147.203 157.543 146.69 157.094 146.099 156.826V156.826Z" fill="#EEA886"/>
<path d="M142.459 167.273C142.541 167.806 142.507 168.353 142.361 168.869C142.113 169.39 147.017 169.412 147.017 169.412C147.276 167.623 147.663 165.859 148.173 164.136C148.924 161.726 142.459 167.273 142.459 167.273Z" fill="#EEA886"/>
<path d="M147.837 164.336C147.837 164.336 147.482 164.858 146.019 164.662C144.556 164.466 142.769 162.723 142.163 162.527C141.556 162.331 141.546 162.014 141.546 162.014L141.159 162.518H140.511C140.511 162.518 141.107 160.96 140.219 160.326C139.33 159.692 141.138 155.31 145.831 156.765C145.831 156.765 149.185 157.361 149.394 159.18C149.519 161.004 148.972 162.814 147.837 164.336V164.336Z" fill="#FCCCA2"/>
<path d="M141.176 168.131C141.176 168.131 141.176 167.375 141.64 167.31C143.433 167.105 145.246 167.025 147.058 167.071V167.951C147.058 167.951 146.014 168.444 141.176 168.131Z" fill="#E2D2CA"/>
<path d="M141.36 161.799C141.493 161.511 142.88 160.693 143.408 161.572C143.937 162.452 142.599 163.627 141.856 163.523C141.113 163.418 141.03 162.521 141.36 161.799Z" fill="#EEA886"/>
<path d="M141.11 168.48C141.11 168.48 138.869 169.293 136.237 170.439C135.341 170.816 134.56 171.427 133.978 172.209C133.395 172.991 133.031 173.916 132.924 174.887C132.748 176.65 130.877 186.015 130.526 186.809C130.175 187.602 126.033 200.328 125.887 200.592C125.741 200.857 129.269 202.336 129.503 202.218C129.737 202.101 133.518 190.6 133.898 189.748C133.898 189.748 136.072 182.89 136.13 181.832C136.13 181.832 136.198 184.771 136.315 185.584C136.432 186.398 134.366 202.365 134.434 202.806C134.503 203.247 143.761 203.786 147.475 203.394C149.735 203.14 151.973 202.714 154.17 202.12C154.17 202.12 151.246 189.532 151.344 188.131C151.539 185.085 152.552 179.315 152.552 179.315L155.573 185.036L151.675 195.048L152.562 198.094C152.562 198.094 159.754 187.162 159.988 186.172C160.061 185.09 159.806 184.011 159.257 183.077C158.877 182.254 156.334 176.004 155.798 175.122C155.262 174.24 154.228 170.714 151.841 169.734C150.1 169.102 148.315 168.601 146.5 168.235L141.11 168.48Z" fill="#00B4D8"/>
<path d="M139.7 194.357L122.793 190.022L119.77 201.815L136.676 206.15L139.7 194.357Z" fill="white"/>
<path d="M128.186 205.819C128.325 205.664 128.441 205.488 128.531 205.296C128.531 205.296 128.608 204.926 128.685 204.659C128.685 204.577 128.733 204.505 128.752 204.464C128.93 204.124 129.059 203.758 129.135 203.377C129.202 202.863 129.413 200.585 129.413 200.585L128.119 200.236L127.084 200C126.223 200.879 125.434 201.837 124.727 202.863V202.997C124.7 203.314 124.7 203.634 124.727 203.951C124.727 204.023 124.727 204.824 124.909 204.978C125.001 205.067 125.112 205.13 125.233 205.161C125.354 205.191 125.48 205.188 125.599 205.152C125.854 205.362 126.16 205.487 126.481 205.511C126.616 205.62 126.773 205.693 126.939 205.725C127.106 205.758 127.277 205.747 127.439 205.696C127.439 205.696 127.899 206.014 128.186 205.819Z" fill="#DE9D7D"/>
<path d="M134.118 191.993C134.118 191.993 130.665 201.36 130.028 202.353C128.536 202.053 127.126 201.487 125.883 200.688L129.671 190.588L134.118 191.993Z" fill="#00B4D8"/>
<path d="M80.54 290.588V289.336C83.1154 289.336 85.7104 289.24 88.247 289.124L88.3053 290.396C85.7395 290.521 83.1349 290.588 80.54 290.588ZM72.7649 290.511C70.2186 290.444 67.6042 290.328 64.9898 290.164L65.0676 288.883C67.6528 289.047 70.2477 289.163 72.7843 289.24L72.7649 290.511ZM96.0221 289.866L95.9152 288.594C98.4615 288.373 101.037 288.103 103.574 287.775L103.739 289.047C101.202 289.394 98.6073 289.625 96.0415 289.885L96.0221 289.866ZM57.2731 289.548C54.6296 289.288 52.0346 288.96 49.566 288.585L49.7701 287.323C52.2096 287.718 54.7851 288.045 57.3994 288.286L57.2731 289.548ZM111.417 287.92L111.203 286.668C113.691 286.253 116.237 285.781 118.784 285.261L119.046 286.513C116.5 287.053 113.934 287.525 111.436 287.939L111.417 287.92ZM41.9368 287.034C39.3418 286.417 36.8247 285.685 34.4533 284.885L34.8809 283.672C37.2037 284.462 39.682 285.184 42.238 285.791L41.9368 287.034ZM126.666 284.857L126.364 283.614C128.726 283.046 131.224 282.429 133.848 281.687L134.178 282.92C131.467 283.672 129.008 284.288 126.666 284.857ZM27.2808 281.967C24.9267 280.86 22.6534 279.592 20.4776 278.171L21.1968 277.102C23.3247 278.49 25.5457 279.732 27.8445 280.82L27.2808 281.967ZM141.613 280.955L141.244 279.703L144.451 278.797L148.698 277.613L149.038 278.846L144.82 279.992L141.613 280.955ZM208.858 279.886C206.477 278.778 204.095 277.786 201.773 276.996L202.21 275.792C204.572 276.63 206.992 277.632 209.412 278.759L208.858 279.886ZM156.512 276.88L156.201 275.647C158.971 274.944 161.449 274.366 163.762 273.894L164.015 275.146C161.731 275.59 159.272 276.139 156.512 276.852V276.88ZM194.416 274.819C191.93 274.252 189.411 273.84 186.874 273.586L187 272.314C189.593 272.574 192.167 272.995 194.707 273.576L194.416 274.819ZM171.586 273.856L171.421 272.594C174 272.258 176.595 272.058 179.196 271.996V273.278C176.654 273.336 174.117 273.526 171.596 273.846L171.586 273.856ZM14.2672 273.413C12.3497 271.646 10.5965 269.711 9.0288 267.633L10.0687 266.872C11.5895 268.888 13.2907 270.765 15.1517 272.478L14.2672 273.413ZM4.94689 261.005C3.79752 258.673 2.8545 256.246 2.12843 253.752L3.36272 253.395C4.08928 255.813 5.02243 258.166 6.15202 260.427L4.94689 261.005ZM0.524818 246.161C0.186082 243.605 0.0107919 241.031 0 238.454H1.29261C1.29858 240.986 1.47064 243.516 1.8077 246.026L0.524818 246.161ZM1.68136 230.863L0.398476 230.728C0.651165 228.224 1.04964 225.652 1.55502 223.08L2.81846 223.33C2.31308 225.825 1.93405 228.359 1.68136 230.863ZM4.59701 215.932L3.353 215.576C4.05647 213.083 4.9034 210.632 5.88961 208.235L7.12391 208.707C6.16285 211.056 5.33226 213.455 4.63588 215.894L4.59701 215.932Z" fill="#C2BEBC"/>
<path d="M276.594 32.9412V31.6522C279.145 31.5922 281.689 31.3558 284.207 30.9447L284.412 32.2143C281.826 32.6379 279.214 32.8808 276.594 32.9412ZM268.816 32.5341C266.227 32.2123 263.664 31.7104 261.145 31.032L261.475 29.7915C263.938 30.4499 266.443 30.9421 268.972 31.2645L268.816 32.5341ZM292.034 30.4602L291.665 29.2293C292.501 28.9871 293.337 28.7157 294.183 28.4347C295.787 27.9016 297.44 27.3977 299.045 26.9325L299.395 28.173C297.79 28.6285 296.167 29.1421 294.533 29.6558C293.707 29.9465 292.851 30.2179 292.005 30.4602H292.034ZM253.736 28.5994C251.461 27.7175 249.127 26.6611 246.609 25.4788L247.173 24.3158C249.662 25.5175 251.966 26.5254 254.203 27.3977L253.736 28.5994ZM306.891 26.3801L306.638 25.1202C309.166 24.6162 311.752 24.151 314.329 23.8797L314.485 25.1589C311.927 25.4691 309.361 25.8761 306.862 26.3801H306.891ZM118.345 24.6841L117.645 23.5986C119.852 22.174 122.068 20.7881 124.227 19.4992L124.888 20.604C122.749 21.8832 120.542 23.2594 118.345 24.6841ZM322.117 24.5096L322.059 23.2304C324.626 23.1044 327.241 23.085 329.837 23.1528V24.4321C327.231 24.3642 324.655 24.3933 322.117 24.5096ZM239.677 21.9123C237.489 20.73 235.321 19.5088 232.871 18.1617L233.503 17.0375C235.904 18.3943 238.072 19.6058 240.25 20.7881L239.677 21.9123ZM131.568 16.7468L130.945 15.6226C133.26 14.353 135.574 13.1416 137.829 12.0271L138.403 13.1803C136.167 14.3045 133.872 15.4869 131.568 16.7468ZM226.162 14.4015C223.634 13.0156 221.407 11.8429 219.356 10.8156L219.929 9.66235C222.01 10.6993 224.266 11.8817 226.803 13.2676L226.162 14.4015ZM145.384 9.93371L144.869 8.75136C147.299 7.69499 149.73 6.72585 152.093 5.84393L152.53 7.04567C150.197 7.92759 147.795 8.88704 145.384 9.93371ZM212.346 7.58839C209.876 6.55141 207.484 5.65011 205.16 4.89417L205.559 3.64398C207.961 4.42898 210.343 5.3206 212.851 6.37696L212.346 7.58839ZM159.842 4.68096L159.492 3.45015C162.03 2.7136 164.577 2.09335 167.056 1.58939L167.309 2.84928C164.869 3.35324 162.36 3.97349 159.842 4.69065V4.68096ZM197.761 2.87836C195.263 2.35024 192.738 1.95876 190.197 1.70569L190.343 0.426425C192.927 0.705197 195.494 1.12253 198.033 1.67662L197.761 2.87836ZM174.893 1.70569L174.757 0.426425C177.372 0.155065 179.988 0.00969143 182.535 0V1.28896C179.982 1.29443 177.431 1.43354 174.893 1.70569Z" fill="#C2BEBC"/>
<path d="M252.94 294.117L221.176 284.249L230.698 281.176L252.94 294.117Z" fill="#D6D6D6"/>
<path d="M252.941 294.118L241.286 282.353L234.117 283.818L252.941 294.118Z" fill="#E8E8E8"/>
<path d="M228.234 287.059L228.494 290.706L252.94 294.117L228.234 287.059Z" fill="#C2C2C2"/>
<path d="M90.5898 47.0587L118.825 30.1026L109.119 29.4116L90.5898 47.0587Z" fill="#D6D6D6"/>
<path d="M90.5898 47.0588L98.9078 31.972L105.884 31.7646L90.5898 47.0588Z" fill="#E8E8E8"/>
<path d="M112.375 34.1177L112.943 37.8998L90.5898 47.0588L112.375 34.1177Z" fill="#C2C2C2"/>
</svg>
