<svg width="330" height="330" viewBox="0 0 330 330" fill="none" xmlns="http://www.w3.org/2000/svg">
<path d="M57.769 300.359C-1.45944 266.171 -1.45944 210.731 57.769 176.543C116.997 142.355 213.008 142.349 272.229 176.543C331.451 210.738 331.458 266.171 272.229 300.359C213.001 334.547 116.991 334.554 57.769 300.359Z" fill="#F5F5F5"/>
<path d="M218.023 318.16L147.37 207.946L94.4446 238.61L78.5452 246.206L26.6758 276.923L218.023 318.16Z" fill="#E0E0E0"/>
<path d="M302.126 302.102L252.468 224.625L215.264 246.18L204.09 251.52L167.625 273.115L302.126 302.102Z" fill="#E0E0E0"/>
<path d="M69.0014 63.0365C68.3084 62.7786 67.576 62.6424 66.8366 62.6339C66.137 62.5811 65.9126 62.4359 65.7806 62.2907C65.1086 61.3239 64.127 60.6152 62.9978 60.2816C61.8687 59.9481 60.6595 60.0095 59.57 60.4559C59.2648 59.5082 58.6137 58.7102 57.7465 58.221C56.8793 57.7317 55.8596 57.5871 54.8906 57.8159C54.9698 55.6313 52.1846 53.2883 49.6832 52.7603C47.1818 52.2323 45.1886 52.4633 43.8224 54.0407C42.3506 51.1763 36.6086 50.3711 33.5 51.8825C31.7114 52.7537 30.2 53.6513 29.4542 55.2881C28.9655 56.3028 28.7386 57.4237 28.7942 58.5485C27.5798 57.4793 25.151 57.1889 23.5142 57.8159C21.7718 58.4759 21.6398 59.7959 21.5342 61.1159C20.4971 60.819 19.4005 60.7985 18.353 61.0565C17.2574 61.3865 16.6238 62.2445 16.769 62.9441C15.9044 62.8979 13.832 63.6041 14.0696 64.5215C14.3336 65.5511 16.7096 65.4455 17.5874 65.4125C18.4211 65.3456 19.2485 65.2155 20.0624 65.0231C20.4736 65.18 20.9094 65.2627 21.3494 65.2673C22.8542 65.2673 23.4944 64.6073 23.732 64.0529C24.4712 65.5973 27.0848 66.7787 28.9394 67.2539C32.4242 68.1449 37.3544 67.6037 39.4994 64.9967C39.7518 65.4873 40.1049 65.9192 40.5356 66.2639C41.4574 67.0088 42.577 67.4677 43.7564 67.5839C45.1886 67.7159 49.0364 67.9007 50.1122 65.6039C50.8778 67.1153 54.2966 67.8083 56.897 67.4387C57.9048 67.286 58.8852 66.9881 59.8076 66.5543C60.383 66.2522 60.9405 65.9173 61.4774 65.5511C61.6845 65.4084 61.9265 65.3245 62.1775 65.3082C62.4285 65.2919 62.6792 65.344 62.903 65.4587C64.7402 66.1027 66.7418 66.1027 68.579 65.4587C70.0574 64.8647 70.361 63.6503 69.0014 63.0365Z" fill="#F0F0F0"/>
<path d="M245.518 72.8241C244.85 72.5782 244.145 72.4488 243.433 72.4413C242.773 72.3885 242.542 72.2499 242.41 72.1047C241.763 71.1736 240.818 70.4909 239.731 70.1693C238.644 69.8478 237.479 69.9065 236.43 70.3359C236.134 69.4225 235.506 68.6536 234.67 68.1817C233.834 67.7098 232.851 67.5694 231.916 67.7883C231.988 65.6829 229.276 63.4257 226.893 62.9109C224.511 62.3961 222.564 62.6271 221.244 64.1451C219.831 61.3863 214.287 60.6075 211.291 62.0727C209.568 62.9109 208.103 63.7689 207.39 65.3727C206.912 66.3485 206.685 67.4284 206.73 68.5143C205.562 67.4847 203.219 67.1943 201.661 67.8081C199.978 68.4681 199.846 69.7287 199.767 71.0157C198.769 70.7266 197.712 70.7084 196.705 70.9629C195.642 71.2731 195.035 72.1047 195.18 72.7779C194.342 72.7317 192.342 73.4379 192.573 74.2959C192.831 75.2925 195.108 75.1869 195.966 75.1605C196.768 75.0946 197.564 74.9688 198.348 74.7843C198.745 74.9327 199.165 75.0109 199.589 75.0153C201.041 75.0153 201.655 74.3883 201.892 73.8471C202.599 75.3387 205.12 76.4871 206.908 76.9293C210.268 77.7939 215.02 77.2659 217.086 74.7579C217.331 75.2305 217.673 75.6465 218.089 75.9789C218.978 76.695 220.06 77.1314 221.197 77.2329C222.577 77.3649 226.273 77.5431 227.316 75.3453C228.055 76.8039 231.355 77.4705 233.856 77.1141C234.829 76.9693 235.776 76.6848 236.668 76.2693C237.221 75.9743 237.759 75.6504 238.278 75.2991C238.476 75.1589 238.709 75.0762 238.952 75.0599C239.194 75.0436 239.436 75.0944 239.651 75.2067C241.423 75.8338 243.357 75.8338 245.129 75.2067C246.548 74.5797 246.838 73.4181 245.518 72.8241Z" fill="#F5F5F5"/>
<path d="M100.399 151.008C99.3788 150.664 98.3072 150.499 97.2309 150.52C96.2145 150.467 95.9109 150.275 95.6799 150.058C94.6652 148.682 93.2113 147.694 91.5586 147.257C89.906 146.82 88.1537 146.961 86.5917 147.655C85.9317 145.233 82.9155 143.2 79.6881 144.005C79.6881 140.831 75.5631 137.544 71.9067 136.871C68.4021 136.211 65.3727 136.627 63.4455 138.976C61.2015 134.878 52.8195 133.947 48.3645 136.277C45.8037 137.597 43.6389 138.976 42.6291 141.385C41.9587 142.877 41.6685 144.512 41.7843 146.144C39.9825 144.646 36.4449 144.329 34.1217 145.299C31.6138 146.355 31.4817 148.269 31.4091 150.216C29.8916 149.825 28.2974 149.843 26.7892 150.269C25.2052 150.784 24.3208 152.064 24.5716 153.074C23.3044 153.034 20.3212 154.143 20.7106 155.47C21.1396 156.955 24.5715 156.704 25.8519 156.625C27.0595 156.497 28.2554 156.276 29.4292 155.965C30.0338 156.174 30.6703 156.277 31.3101 156.268C33.5013 156.189 34.3989 155.225 34.7289 154.4C35.8575 156.618 39.7119 158.228 42.4179 158.836C47.5131 159.991 54.6543 158.994 57.6639 155.126C58.0499 155.827 58.581 156.436 59.2215 156.915C60.5938 157.956 62.2416 158.571 63.9603 158.684C66.0393 158.816 71.6295 158.921 73.1013 155.575C74.2827 157.74 79.2723 158.598 83.0013 157.958C84.4574 157.692 85.8685 157.221 87.1923 156.559C88.0158 156.094 88.8134 155.585 89.5815 155.034C90.3141 154.565 90.6507 154.559 91.6473 154.829C94.2873 155.536 97.2771 155.773 99.8907 154.585C102.009 153.628 102.399 151.846 100.399 151.008Z" fill="#EBEBEB"/>
<path d="M237.215 187.36C236.4 187.078 235.543 186.937 234.68 186.945C233.855 186.898 233.591 186.74 233.433 186.562C232.624 185.451 231.46 184.65 230.134 184.29C228.808 183.93 227.399 184.033 226.14 184.582C225.764 183.48 224.986 182.561 223.962 182.008C222.938 181.455 221.743 181.309 220.616 181.599C220.655 179.044 217.316 176.371 214.412 175.804C211.593 175.263 209.132 175.56 207.587 177.441C205.812 174.141 199.08 173.316 195.483 175.157C193.41 176.213 191.661 177.289 190.83 179.223C190.278 180.417 190.033 181.731 190.117 183.044C188.678 181.823 185.834 181.539 183.959 182.311C181.933 183.136 181.808 184.681 181.742 186.271C180.525 185.94 179.242 185.94 178.026 186.271C176.745 186.674 176.046 187.697 176.217 188.509C175.201 188.469 172.799 189.34 173.096 190.41C173.432 191.604 176.198 191.433 177.227 191.373C178.2 191.277 179.164 191.108 180.111 190.865C180.595 191.034 181.104 191.121 181.616 191.122C183.378 191.07 184.111 190.304 184.382 189.644C185.273 191.433 188.342 192.753 190.533 193.267C194.625 194.231 200.373 193.479 202.815 190.39C203.124 190.957 203.549 191.452 204.063 191.842C205.158 192.688 206.478 193.193 207.858 193.294C209.534 193.419 214.022 193.545 215.237 190.865C216.167 192.614 220.173 193.34 223.203 192.845C224.376 192.645 225.515 192.276 226.582 191.749C227.249 191.384 227.894 190.98 228.516 190.542C228.754 190.37 229.035 190.266 229.327 190.24C229.62 190.214 229.914 190.269 230.179 190.396C232.278 190.984 234.7 191.195 236.812 190.258C238.495 189.479 238.825 188.053 237.215 187.36Z" fill="#EBEBEB"/>
<path d="M103.063 38.7286C102.623 38.5658 102.159 38.4788 101.69 38.4712C101.248 38.4712 101.109 38.3524 101.03 38.2534C100.6 37.6385 99.9736 37.1884 99.2537 36.9773C98.5339 36.7661 97.7636 36.8065 97.0698 37.0918C96.8773 36.4908 96.4654 35.9845 95.9161 35.6738C95.3668 35.363 94.7206 35.2708 94.1064 35.4154C94.1592 34.036 92.3904 32.551 90.8064 32.2144C89.2224 31.8778 87.9816 32.0296 87.117 32.9998C86.193 31.1848 82.5498 30.6766 80.583 31.6336C79.4478 32.188 78.4908 32.7556 78.0222 33.7918C77.7123 34.4326 77.565 35.1398 77.5932 35.851C77.1193 35.5176 76.5728 35.3018 75.999 35.2215C75.4251 35.1411 74.8404 35.1986 74.2932 35.389C73.191 35.818 73.1052 36.6496 73.0524 37.501C72.4071 37.3153 71.7245 37.3017 71.0724 37.4614C70.4124 37.6726 69.9768 38.2138 70.0692 38.656C69.5214 38.656 68.208 39.0718 68.3598 39.6526C68.5116 40.2334 70.023 40.24 70.584 40.2202C71.1129 40.1779 71.638 40.0962 72.1548 39.976C72.4144 40.0738 72.6892 40.1252 72.9666 40.1278C73.9236 40.1278 74.3262 39.712 74.478 39.3556C74.9466 40.339 76.6032 41.0848 77.778 41.3884C79.9824 41.9494 83.1042 41.6062 84.4638 39.9562C84.6257 40.2674 84.8504 40.5416 85.1238 40.7614C85.6919 41.232 86.3842 41.5277 87.117 41.6128C88.0212 41.6986 90.4566 41.8108 91.143 40.372C91.6248 41.329 93.783 41.7646 95.4396 41.5336C96.0764 41.4363 96.6963 41.2497 97.281 40.9792C97.6468 40.7785 98.0015 40.5582 98.3436 40.3192C98.4749 40.2287 98.6283 40.1754 98.7875 40.1649C98.9467 40.1545 99.1057 40.1873 99.2478 40.2598C100.411 40.6759 101.682 40.6759 102.845 40.2598C103.736 39.8902 103.927 39.118 103.063 38.7286Z" fill="#F5F5F5"/>
<path d="M265.715 105.909C265.275 105.746 264.811 105.659 264.342 105.652C263.9 105.652 263.761 105.533 263.682 105.434C263.252 104.819 262.626 104.369 261.906 104.158C261.186 103.947 260.416 103.987 259.722 104.273C259.53 103.672 259.118 103.165 258.568 102.854C258.019 102.544 257.373 102.451 256.759 102.596C256.812 101.217 255.043 99.7317 253.459 99.3951C251.875 99.0585 250.634 99.2103 249.769 100.181C248.845 98.3655 245.202 97.8573 243.235 98.8143C242.1 99.3687 241.143 99.9363 240.675 100.973C240.365 101.613 240.217 102.321 240.246 103.032C239.772 102.698 239.225 102.482 238.651 102.402C238.077 102.322 237.493 102.379 236.946 102.57C235.843 102.999 235.758 103.83 235.705 104.682C235.059 104.496 234.377 104.482 233.725 104.642C233.065 104.853 232.629 105.395 232.722 105.837C232.174 105.837 230.86 106.253 231.012 106.833C231.164 107.414 232.675 107.421 233.236 107.401C233.765 107.359 234.29 107.277 234.807 107.157C235.067 107.254 235.342 107.306 235.619 107.309C236.576 107.309 236.979 106.893 237.13 106.536C237.599 107.52 239.256 108.266 240.43 108.569C242.635 109.13 245.757 108.787 247.116 107.137C247.278 107.448 247.503 107.722 247.776 107.942C248.344 108.413 249.037 108.708 249.769 108.794C250.674 108.879 253.109 108.992 253.795 107.553C254.277 108.51 256.435 108.945 258.092 108.714C258.729 108.617 259.349 108.43 259.933 108.16C260.299 107.959 260.654 107.739 260.996 107.5C261.127 107.409 261.281 107.356 261.44 107.346C261.599 107.335 261.758 107.368 261.9 107.441C263.063 107.857 264.334 107.857 265.497 107.441C266.388 107.071 266.58 106.299 265.715 105.909Z" fill="#F5F5F5"/>
<path d="M209.88 95.4888C209.468 95.3355 209.033 95.2551 208.593 95.2512C208.177 95.2512 208.045 95.1324 207.966 95.0466C207.567 94.4717 206.984 94.0504 206.313 93.8523C205.642 93.6542 204.924 93.6914 204.277 93.9576C204.095 93.3949 203.709 92.921 203.194 92.63C202.679 92.339 202.074 92.2522 201.498 92.3868C201.544 91.0668 199.888 89.7006 198.403 89.3838C196.918 89.067 195.763 89.2056 194.925 90.1428C194.053 88.44 190.641 87.9648 188.793 88.8624C187.731 89.3772 186.813 89.9118 186.391 90.882C186.1 91.4839 185.962 92.1479 185.988 92.8158C185.541 92.4971 185.024 92.2915 184.48 92.2168C183.936 92.1421 183.383 92.2004 182.866 92.3868C181.83 92.7828 181.751 93.5682 181.698 94.3668C181.086 94.1865 180.436 94.1751 179.817 94.3338C179.157 94.5252 178.788 95.04 178.873 95.4558C178.359 95.4228 177.124 95.8452 177.27 96.3864C177.415 96.9276 178.834 96.9408 179.355 96.921C179.851 96.8802 180.343 96.803 180.827 96.69C181.072 96.7817 181.331 96.8309 181.593 96.8352C182.49 96.8352 182.866 96.4458 183.012 96.1092C183.447 97.0332 184.992 97.7328 186.1 98.01C188.166 98.5446 191.097 98.2212 192.37 96.69C192.517 96.9846 192.73 97.2418 192.991 97.4424C193.539 97.8829 194.205 98.1536 194.905 98.2212C195.75 98.3004 198.033 98.406 198.673 97.0596C199.129 97.9572 201.162 98.3796 202.706 98.142C203.305 98.0548 203.888 97.879 204.435 97.6206C204.777 97.4426 205.107 97.2443 205.425 97.0266C205.549 96.9413 205.693 96.8908 205.843 96.8804C205.993 96.8699 206.142 96.8999 206.277 96.9672C207.365 97.3532 208.554 97.3532 209.643 96.9672C210.54 96.5778 210.692 95.8518 209.88 95.4888Z" fill="#F5F5F5"/>
<path d="M207.388 234.392C207.259 234.391 207.133 234.352 207.025 234.28L205.375 233.198C205.303 233.15 205.24 233.089 205.191 233.018C205.141 232.946 205.107 232.866 205.089 232.781C205.071 232.696 205.069 232.608 205.085 232.523C205.101 232.438 205.133 232.356 205.181 232.284C205.228 232.211 205.289 232.148 205.361 232.099C205.432 232.05 205.513 232.015 205.597 231.997C205.682 231.979 205.77 231.978 205.855 231.993C205.941 232.009 206.022 232.042 206.095 232.089L207.758 233.178C207.879 233.256 207.97 233.371 208.02 233.505C208.069 233.64 208.073 233.787 208.031 233.925C207.99 234.062 207.904 234.182 207.788 234.266C207.672 234.351 207.532 234.395 207.388 234.392V234.392Z" fill="#455A64"/>
<path d="M202.237 231.126C202.119 231.124 202.003 231.092 201.9 231.033C200.706 230.314 199.511 229.627 198.35 228.987C198.274 228.944 198.207 228.886 198.154 228.817C198.1 228.748 198.061 228.669 198.038 228.585C198.015 228.5 198.009 228.412 198.02 228.326C198.031 228.239 198.059 228.156 198.102 228.08C198.146 228.004 198.203 227.937 198.272 227.884C198.341 227.83 198.42 227.791 198.505 227.768C198.589 227.745 198.677 227.739 198.764 227.75C198.85 227.761 198.934 227.789 199.01 227.832C200.191 228.492 201.399 229.152 202.607 229.898C202.732 229.972 202.829 230.085 202.883 230.22C202.937 230.355 202.945 230.503 202.906 230.643C202.866 230.783 202.782 230.906 202.666 230.993C202.55 231.08 202.409 231.127 202.263 231.126H202.237ZM195.017 227.166C194.916 227.164 194.816 227.139 194.726 227.093C193.485 226.479 192.238 225.905 191.017 225.37C190.931 225.341 190.851 225.294 190.784 225.233C190.716 225.172 190.662 225.097 190.625 225.013C190.588 224.93 190.569 224.84 190.568 224.749C190.567 224.658 190.586 224.567 190.622 224.483C190.658 224.4 190.711 224.324 190.778 224.262C190.845 224.2 190.924 224.152 191.01 224.122C191.096 224.092 191.187 224.08 191.278 224.087C191.369 224.094 191.458 224.12 191.538 224.163C192.779 224.697 194.046 225.291 195.307 225.912C195.442 225.977 195.55 226.086 195.615 226.221C195.679 226.356 195.696 226.509 195.662 226.654C195.629 226.8 195.546 226.93 195.429 227.023C195.312 227.116 195.166 227.166 195.017 227.166V227.166ZM187.453 223.866C187.377 223.865 187.301 223.852 187.229 223.826C185.942 223.351 184.635 222.915 183.361 222.506C183.272 222.487 183.187 222.45 183.113 222.397C183.039 222.344 182.977 222.276 182.93 222.198C182.883 222.119 182.853 222.032 182.842 221.941C182.831 221.851 182.839 221.759 182.865 221.671C182.891 221.584 182.935 221.503 182.994 221.433C183.053 221.364 183.126 221.307 183.208 221.267C183.29 221.227 183.379 221.204 183.47 221.201C183.561 221.197 183.652 221.212 183.737 221.245C185.057 221.635 186.377 222.084 187.697 222.565C187.844 222.618 187.967 222.722 188.044 222.857C188.122 222.992 188.149 223.15 188.122 223.303C188.094 223.456 188.013 223.595 187.893 223.694C187.773 223.793 187.622 223.847 187.466 223.846L187.453 223.866ZM179.566 221.49H179.414C178.094 221.179 176.774 220.915 175.415 220.691C175.24 220.662 175.083 220.565 174.98 220.421C174.877 220.276 174.835 220.097 174.864 219.922C174.892 219.747 174.99 219.591 175.134 219.487C175.278 219.384 175.457 219.342 175.632 219.371C176.999 219.595 178.371 219.866 179.718 220.183C179.893 220.203 180.053 220.292 180.162 220.43C180.272 220.568 180.322 220.744 180.302 220.919C180.282 221.094 180.193 221.254 180.055 221.363C179.917 221.473 179.741 221.523 179.566 221.503V221.49ZM150.896 220.83C150.809 220.835 150.722 220.824 150.64 220.796C150.558 220.768 150.482 220.724 150.416 220.667C150.351 220.609 150.298 220.54 150.259 220.462C150.221 220.384 150.198 220.299 150.193 220.212C150.187 220.126 150.199 220.039 150.227 219.957C150.255 219.874 150.298 219.798 150.356 219.733C150.413 219.668 150.483 219.615 150.561 219.576C150.639 219.538 150.723 219.515 150.81 219.51C152.209 219.312 153.595 219.147 154.922 219.008C155.097 218.99 155.272 219.041 155.409 219.152C155.545 219.263 155.633 219.424 155.651 219.599C155.669 219.774 155.617 219.949 155.507 220.086C155.396 220.222 155.235 220.31 155.06 220.328C153.74 220.46 152.381 220.632 150.988 220.823L150.896 220.83ZM171.441 220.17H171.375C170.055 220.038 168.669 219.939 167.303 219.886C167.128 219.886 166.96 219.816 166.837 219.692C166.713 219.569 166.643 219.401 166.643 219.226C166.643 219.051 166.713 218.883 166.837 218.759C166.96 218.635 167.128 218.566 167.303 218.566C168.696 218.619 170.095 218.718 171.455 218.856C171.63 218.865 171.794 218.943 171.912 219.073C172.029 219.203 172.09 219.374 172.082 219.549C172.073 219.724 171.995 219.889 171.865 220.006C171.735 220.124 171.564 220.185 171.389 220.176L171.441 220.17ZM159.093 219.991C159.006 219.994 158.92 219.979 158.839 219.949C158.758 219.918 158.684 219.871 158.62 219.812C158.557 219.753 158.506 219.681 158.471 219.602C158.435 219.523 158.416 219.438 158.413 219.351C158.41 219.264 158.425 219.178 158.456 219.097C158.487 219.016 158.533 218.942 158.592 218.879C158.652 218.816 158.723 218.765 158.802 218.729C158.881 218.694 158.967 218.674 159.053 218.671C160.459 218.579 161.852 218.526 163.205 218.506C163.38 218.506 163.548 218.576 163.671 218.7C163.795 218.823 163.865 218.991 163.865 219.166C163.865 219.341 163.795 219.509 163.671 219.633C163.548 219.757 163.38 219.826 163.205 219.826C161.885 219.826 160.499 219.899 159.119 219.985L159.093 219.991Z" fill="#455A64"/>
<path d="M144.855 221.806C144.68 221.822 144.506 221.768 144.371 221.655C144.236 221.542 144.151 221.381 144.135 221.206C144.12 221.031 144.174 220.857 144.287 220.722C144.399 220.587 144.561 220.502 144.736 220.486L146.716 220.143C146.891 220.114 147.07 220.156 147.215 220.26C147.359 220.363 147.456 220.519 147.485 220.694C147.514 220.869 147.472 221.049 147.369 221.193C147.265 221.337 147.109 221.434 146.934 221.463L144.987 221.8L144.855 221.806Z" fill="#455A64"/>
<path d="M302.126 288.242L215.264 232.32L212.895 242.207L302.126 288.242Z" fill="#F0F0F0"/>
<path d="M230.622 242.207L230.847 251.652L212.895 242.207L215.264 232.32L230.622 242.207Z" fill="#E0E0E0"/>
<path d="M215.264 232.32L212.895 242.207L213.489 242.511L215.983 232.32H215.264Z" fill="#455A64"/>
<path d="M167.625 259.255L302.126 288.242L204.09 237.66L167.625 259.255Z" fill="white"/>
<path d="M167.625 259.255L222.511 247.164L204.09 237.66L167.625 259.255Z" fill="#F5F5F5"/>
<path d="M204.102 238.26L298.409 286.916L169.049 259.03L204.102 238.26ZM204.102 237.666L167.637 259.255L302.138 288.242L204.089 237.66L204.102 237.666Z" fill="#455A64"/>
<path d="M302.128 288.242L215.266 232.32L252.47 210.765L302.128 288.242Z" fill="white"/>
<path d="M230.624 242.207L252.47 210.765L215.266 232.32L230.624 242.207Z" fill="#F5F5F5"/>
<path d="M252.298 211.464L300.406 286.513L216.262 232.32L252.298 211.438V211.464ZM252.47 210.738L215.266 232.32L302.128 288.242L252.47 210.765V210.738Z" fill="#455A64"/>
<path d="M85.8454 229.878C85.716 229.877 85.5898 229.838 85.4824 229.766L83.8324 228.684C83.7596 228.636 83.6968 228.575 83.6476 228.504C83.5984 228.432 83.5638 228.352 83.5457 228.267C83.5277 228.182 83.5265 228.094 83.5423 228.009C83.558 227.924 83.5905 227.842 83.6377 227.769C83.685 227.697 83.7461 227.634 83.8176 227.585C83.8891 227.535 83.9696 227.501 84.0544 227.483C84.1393 227.465 84.2269 227.463 84.3123 227.479C84.3976 227.495 84.479 227.527 84.5518 227.575C85.0996 227.931 85.654 228.294 86.215 228.67C86.3597 228.767 86.4603 228.917 86.4949 229.088C86.5295 229.258 86.4953 229.436 86.3998 229.581C86.3394 229.673 86.2571 229.748 86.1602 229.8C86.0634 229.852 85.9552 229.879 85.8454 229.878Z" fill="#455A64"/>
<path d="M80.6972 226.611C80.5768 226.61 80.4587 226.578 80.354 226.519C79.1594 225.799 77.9648 225.113 76.8032 224.473C76.6501 224.385 76.538 224.24 76.4915 224.07C76.4451 223.9 76.4682 223.718 76.5557 223.565C76.6433 223.412 76.788 223.3 76.9582 223.254C77.1284 223.207 77.3101 223.23 77.4632 223.318C78.638 223.978 79.8458 224.638 81.0536 225.384C81.2031 225.474 81.3106 225.62 81.3526 225.789C81.3947 225.959 81.3679 226.138 81.278 226.288C81.2185 226.388 81.1334 226.471 81.0313 226.528C80.9293 226.585 80.814 226.613 80.6972 226.611V226.611ZM73.4372 222.651C73.3362 222.65 73.2368 222.625 73.1468 222.579C71.906 221.965 70.6586 221.391 69.4376 220.856C69.2779 220.786 69.1521 220.656 69.0878 220.494C69.0235 220.332 69.0259 220.152 69.0944 219.991C69.1289 219.911 69.1788 219.839 69.2413 219.779C69.3038 219.718 69.3777 219.67 69.4586 219.638C69.5396 219.607 69.6261 219.591 69.7131 219.593C69.8001 219.594 69.8859 219.613 69.9656 219.648C71.1998 220.183 72.4736 220.777 73.7276 221.397C73.8058 221.435 73.8756 221.488 73.9332 221.553C73.9907 221.618 74.0349 221.694 74.0631 221.776C74.0913 221.858 74.103 221.945 74.0975 222.032C74.0921 222.119 74.0695 222.204 74.0312 222.282C73.9794 222.388 73.9 222.478 73.8013 222.543C73.7026 222.608 73.5883 222.645 73.4702 222.651H73.4372ZM65.8736 219.351C65.7971 219.351 65.7212 219.338 65.6492 219.312C64.3292 218.836 63.062 218.401 61.7816 217.992C61.6939 217.971 61.6114 217.932 61.5392 217.878C61.4669 217.824 61.4065 217.756 61.3615 217.678C61.3166 217.6 61.2882 217.514 61.278 217.424C61.2678 217.334 61.276 217.244 61.3022 217.158C61.3284 217.071 61.372 216.991 61.4303 216.923C61.4885 216.854 61.5603 216.798 61.6411 216.758C61.7218 216.718 61.81 216.695 61.9 216.69C61.99 216.686 62.08 216.699 62.1644 216.731C63.4844 217.12 64.8044 217.569 66.1244 218.051C66.2708 218.104 66.3937 218.207 66.4714 218.342C66.5491 218.477 66.5765 218.635 66.5489 218.789C66.5212 218.942 66.4403 219.08 66.3203 219.18C66.2004 219.279 66.0492 219.333 65.8934 219.331L65.8736 219.351ZM57.9536 216.975H57.8084C56.4884 216.665 55.1684 216.401 53.8088 216.177C53.7222 216.163 53.6391 216.132 53.5643 216.086C53.4895 216.04 53.4246 215.98 53.3731 215.909C53.3216 215.837 53.2846 215.757 53.2643 215.672C53.2439 215.586 53.2406 215.498 53.2544 215.411C53.2683 215.324 53.2991 215.241 53.3451 215.166C53.3911 215.092 53.4513 215.027 53.5224 214.975C53.5935 214.924 53.6741 214.887 53.7594 214.866C53.8448 214.846 53.9334 214.843 54.02 214.857C55.3862 215.081 56.759 215.352 58.1054 215.668C58.2805 215.688 58.4404 215.777 58.5499 215.915C58.6594 216.053 58.7097 216.229 58.6895 216.404C58.6694 216.579 58.5806 216.739 58.4426 216.849C58.3046 216.958 58.1287 217.008 57.9536 216.988V216.975ZM29.2898 216.315C29.2032 216.321 29.1162 216.31 29.0338 216.283C28.9514 216.255 28.8752 216.211 28.8096 216.155C28.6772 216.039 28.5959 215.876 28.5836 215.701C28.5714 215.526 28.6292 215.354 28.7443 215.221C28.8594 215.089 29.0224 215.007 29.1974 214.995C30.6032 214.797 31.9826 214.632 33.3092 214.494C33.4843 214.475 33.6595 214.527 33.7962 214.638C33.933 214.749 34.0202 214.909 34.0385 215.084C34.0569 215.259 34.005 215.434 33.8942 215.571C33.7835 215.708 33.6229 215.795 33.4478 215.814C32.1278 215.946 30.7682 216.117 29.3756 216.309L29.2898 216.315ZM49.8356 215.655H49.829C48.509 215.523 47.123 215.424 45.7634 215.371C45.6768 215.368 45.5916 215.347 45.5129 215.311C45.4341 215.275 45.3633 215.223 45.3045 215.159C45.2457 215.096 45.1999 215.021 45.17 214.94C45.14 214.858 45.1264 214.772 45.1298 214.685C45.1333 214.598 45.1538 214.513 45.1902 214.434C45.2266 214.356 45.2781 214.285 45.3418 214.226C45.4056 214.167 45.4803 214.121 45.5617 214.091C45.6431 214.062 45.7296 214.048 45.8162 214.051C47.2022 214.104 48.6014 214.203 49.961 214.342C50.1361 214.35 50.3008 214.427 50.419 214.556C50.5372 214.685 50.5992 214.856 50.5913 215.031C50.5835 215.206 50.5064 215.371 50.377 215.489C50.2477 215.608 50.0767 215.67 49.9016 215.662L49.8356 215.655ZM37.487 215.47C37.4004 215.473 37.314 215.459 37.2327 215.429C37.1515 215.399 37.077 215.353 37.0136 215.293C36.9502 215.234 36.899 215.163 36.863 215.084C36.8271 215.005 36.807 214.92 36.8039 214.833C36.8009 214.747 36.815 214.66 36.8453 214.579C36.8757 214.498 36.9218 214.423 36.9809 214.36C37.0401 214.297 37.1111 214.245 37.19 214.209C37.2689 214.173 37.3542 214.153 37.4408 214.15C38.8466 214.058 40.2392 214.005 41.5922 213.985C41.6789 213.985 41.7647 214.002 41.8448 214.036C41.9249 214.069 41.9977 214.117 42.0589 214.179C42.1202 214.24 42.1688 214.313 42.202 214.393C42.2352 214.473 42.2522 214.559 42.2522 214.645C42.2522 214.82 42.1827 214.988 42.0589 215.112C41.9352 215.236 41.7673 215.305 41.5922 215.305C40.2722 215.305 38.8862 215.378 37.5068 215.464L37.487 215.47Z" fill="#455A64"/>
<path d="M23.3111 217.292C23.1538 217.294 23.0009 217.24 22.8799 217.14C22.7589 217.039 22.6778 216.899 22.6511 216.744C22.6202 216.573 22.6584 216.396 22.7573 216.253C22.8562 216.109 23.0078 216.011 23.1791 215.979L25.1591 215.635C25.3341 215.607 25.5135 215.648 25.6576 215.752C25.8018 215.855 25.8991 216.011 25.928 216.186C25.9568 216.362 25.915 216.541 25.8117 216.685C25.7083 216.829 25.5519 216.927 25.3769 216.955L23.4365 217.292H23.3111Z" fill="#455A64"/>
<path d="M26.6758 263.063L218.023 304.3L78.5452 232.347L26.6758 263.063Z" fill="#00B4D8"/>
<path d="M218.024 304.3L94.4453 224.75L147.371 194.086L218.024 304.3Z" fill="#00B4D8"/>
<path opacity="0.2" d="M26.6758 263.063L104.754 245.863L78.5452 232.347L26.6758 263.063Z" fill="black"/>
<path opacity="0.2" d="M116.291 238.808L147.371 194.086L94.4453 224.75L116.291 238.808Z" fill="black"/>
<path d="M218.021 304.3L94.4429 224.75L91.0703 238.808L218.021 304.3Z" fill="#00B4D8"/>
<path opacity="0.2" d="M218.021 304.3L94.4429 224.75L91.0703 238.808L218.021 304.3Z" fill="black"/>
<path opacity="0.2" d="M116.289 238.808L116.078 251.711L91.0703 238.808L94.4429 224.75L116.289 238.808Z" fill="black"/>
<path d="M125.234 238.485L127.485 237.336L125.234 236.742V238.485Z" fill="#263238"/>
<path d="M147.769 242.326C147.769 242.326 120.847 230.617 120.544 232.426C120.481 232.787 120.492 233.158 120.577 233.515L120.504 233.416L121.052 236.788C122.254 237.743 123.708 238.328 125.236 238.471V236.742C126.068 237.071 126.866 237.48 127.619 237.963C129.348 239.078 130.483 241.052 132.338 243.342C133.691 245.012 136.06 245.758 139.598 246.206C143.373 246.682 146.68 245.903 147.597 244.886C148.303 244.048 147.907 242.563 147.769 242.326Z" fill="#263238"/>
<path d="M147.013 241.712C146.756 241.448 145.786 240.392 144.479 239.276C143.331 238.286 141.997 237.039 140.565 236.029C139.876 235.565 139.227 235.044 138.625 234.472C138.159 233.977 137.718 233.46 137.305 232.921C136.012 231.227 134.905 229.4 134.005 227.469C133.569 226.558 132.777 224.545 132.936 220.796C133.173 215.114 133.596 213.055 133.596 209.365L120.877 211.345C121.287 213.385 121.755 217.945 121.986 220.262C122.343 223.793 122.864 224.123 121.544 227.674C121.161 228.716 120.574 229.726 120.541 230.842C120.481 232.65 121.92 234.188 123.511 235.052C124.831 235.765 126.349 236.056 127.629 236.815C128.94 237.682 130.085 238.777 131.008 240.049C131.926 241.19 132.672 242.55 133.945 243.349C135.294 244.116 136.781 244.607 138.321 244.794C140.256 245.108 142.223 245.177 144.175 244.999C146.868 244.702 148.921 243.659 147.013 241.712Z" fill="#FFA8A7"/>
<path d="M145.451 239.765C144.289 238.808 142.633 237.435 140.64 235.898C139.957 235.67 139.234 235.593 138.518 235.67C137.803 235.748 137.113 235.978 136.495 236.346C132.535 238.505 131.934 241.494 131.934 241.494C132.626 242.823 133.811 243.827 135.234 244.293C139.854 246.233 148.051 245.468 148.098 243.342C148.111 241.983 146.87 240.9 145.451 239.765ZM121.691 226.875C121.691 226.875 121.434 227.575 120.754 228.954C120.386 229.579 120.201 230.294 120.22 231.019C120.239 231.743 120.46 232.448 120.859 233.053C121.317 233.755 121.914 234.356 122.614 234.818C123.313 235.28 124.1 235.594 124.925 235.739C126.153 231.66 123.321 227.7 121.711 226.875H121.691Z" fill="#37474F"/>
<path d="M98.6497 237.244C99.3823 238.471 98.3131 243.039 98.4187 246.306C98.5177 249.276 99.0325 253.909 98.2339 257.367C97.4353 260.826 94.3861 264.627 90.3733 261.288C87.8851 259.222 86.9083 256.767 86.6509 252.496C86.4661 249.526 87.7333 245.441 88.8223 241.824C90.0961 237.6 90.5911 235.336 90.5911 235.336L98.6497 237.244Z" fill="#263238"/>
<path d="M90.7051 215.207C90.2761 222.117 90.9889 226.988 90.9493 231.416C90.8875 233.426 90.6356 235.426 90.1969 237.389C89.5369 240.201 88.5007 244.108 88.0453 245.936C87.3853 248.484 86.9431 250.088 87.7747 252.972C87.8445 253.201 87.9374 253.422 88.0519 253.632C89.2399 256.021 92.3419 257.876 93.3319 257.592C93.5289 257.86 93.7998 258.066 94.1115 258.183C94.4233 258.3 94.7624 258.324 95.0875 258.252C95.1992 258.236 95.3096 258.212 95.4175 258.179C95.5354 258.145 95.6502 258.101 95.7607 258.047C96.1783 257.828 96.5463 257.525 96.8415 257.157C97.1368 256.789 97.353 256.364 97.4767 255.909C97.5361 255.717 97.5955 255.506 97.6483 255.288C98.4469 251.738 97.9651 249.421 97.9255 248.028C97.8727 246.418 98.0113 244.372 98.2027 241.778C98.3941 239.184 99.1729 231.053 100.15 227.179C100.876 224.473 101.78 221.074 102.73 217.457L90.7051 215.207Z" fill="#FFA8A7"/>
<path d="M87.3633 249.256C89.8647 248.213 97.0455 248.2 98.1213 251.718C98.1213 255.018 98.0619 257.242 95.9301 260.06C93.0921 263.816 89.5677 259.71 88.2345 257.117C86.9013 254.523 86.9937 251.018 87.3633 249.256Z" fill="#37474F"/>
<path d="M102.628 117.843C99.0046 124.041 94.1272 132.66 93.6718 146.705C93.0712 165.423 92.6818 178.827 92.5498 181.084C92.4178 183.342 90.8734 187.447 89.4214 198.535C87.9694 209.623 89.5534 230.822 89.5534 230.822C89.5534 230.822 90.8008 233.343 95.038 233.838C98.9518 234.3 100.787 232.465 100.787 232.465C100.787 232.465 106.984 202.765 108.654 196.132C110.324 189.499 116.013 160.38 116.013 160.38L118.092 178.306C118.092 178.306 116.732 184.411 117.663 194.192C118.593 203.973 121.689 222.843 121.689 222.843C121.689 222.843 123.464 224.717 127.629 224.552C129.752 224.545 131.795 223.739 133.351 222.295C133.351 222.295 137.001 185.051 137.311 174.003C137.621 162.954 137.311 135.36 134.268 118.906L102.628 117.843Z" fill="#37474F"/>
<path d="M119.461 142.679L116.016 160.38L118.095 178.306L118.168 161.291L121.553 144.441C124.233 143.873 131.13 139.207 131.717 134.719C127.995 140.534 119.461 142.679 119.461 142.679ZM99.5293 209.147C98.4161 214.867 97.3777 220.623 96.4141 226.413C97.8265 220.737 99.1641 215.043 100.427 209.332C101.707 203.623 102.915 197.927 104.116 192.172C105.317 186.417 106.703 173.375 107.344 167.561C107.984 161.746 108.499 155.918 108.928 150.084C108.043 155.866 107.245 161.66 106.439 167.449C105.634 173.237 104.103 186.232 102.961 191.941C101.819 197.65 100.585 203.405 99.4963 209.147H99.5293ZM132.232 167.686C132.278 170.221 132.364 172.775 132.232 175.283C132.1 177.791 131.889 180.338 131.691 182.873L131.104 190.489C130.699 195.562 130.358 200.644 130.081 205.735C130.82 200.693 131.464 195.633 132.014 190.555C132.569 185.486 133.097 180.431 133.407 175.309C133.532 170.161 133.235 165.086 132.919 159.991C132.602 154.895 132.107 149.827 131.46 144.771L132.001 160.037C132.061 162.604 132.153 165.145 132.199 167.686H132.232Z" fill="#263238"/>
<path d="M104.49 54.8926C100.873 56.8264 100.53 59.8294 100.325 67.1488C99.9953 80.4214 95.9297 95.5288 95.9297 95.5288L126.29 95.8786L127.926 65.5186C127.926 65.5186 130.613 62.2648 130.494 58.7668C130.375 55.2688 128.461 50.6158 122.026 48.9262C116.66 47.5204 106.259 48.055 104.49 54.8926Z" fill="#263238"/>
<path d="M161.791 92.6972C160.121 85.292 155.904 75.0554 153.937 70.1912C153.334 68.3855 152.84 66.5452 152.458 64.6802C152.102 62.6336 151.395 60.664 150.366 58.859C149.556 57.2996 148.449 55.9139 147.106 54.7802C146.908 54.5738 146.646 54.441 146.363 54.4038C146.08 54.3666 145.792 54.4272 145.548 54.5756C145.117 54.0677 144.559 53.6828 143.931 53.4602C143.413 53.3532 142.881 53.322 142.354 53.3678C141.978 53.3239 141.617 53.1997 141.293 53.0039C140.97 52.808 140.692 52.545 140.479 52.2326C140.243 51.9296 139.944 51.6819 139.602 51.5066C139.014 51.2888 138.737 51.6848 138.612 52.1666C138.45 52.8819 138.517 53.6298 138.803 54.305C139.292 55.3326 139.859 56.3211 140.499 57.2618C141.364 58.826 142.651 60.806 142.578 62.6276C142.578 62.9972 142.426 63.7628 141.964 63.2876C141.396 62.597 140.766 61.9587 140.083 61.3802C139.744 61.0907 139.348 60.8758 138.921 60.7496C138.493 60.6234 138.044 60.5886 137.602 60.6476C137.329 60.6798 137.079 60.8143 136.902 61.0238C136.678 61.334 136.823 61.5452 137.008 61.7828C137.195 62.0419 137.365 62.3131 137.516 62.5946C137.837 63.1622 138.167 63.7298 138.506 64.2974C140.486 67.5974 141.351 68.9768 144.182 71.2142C144.624 71.5706 146.043 72.3956 147.06 75.293C148.076 78.1904 148.822 87.3776 148.822 87.3776C148.822 87.3776 147.502 87.0806 138.961 85.0214C134.572 83.9036 130.101 83.1377 125.59 82.7312L131.662 97.1852C131.662 97.1852 141.714 99.02 151.633 100.584C159.21 101.785 163.804 101.587 161.791 92.6972Z" fill="#FFA8A7"/>
<path d="M148.216 82.0911L147.84 79.2003C149.447 79.8022 151.197 79.917 152.869 79.5303C155.879 78.9231 157.1 77.5503 157.1 77.5503L158.05 79.9593C156.596 80.9052 154.981 81.5764 153.285 81.9393C151.619 82.2979 149.901 82.3493 148.216 82.0911V82.0911Z" fill="#F0F0F0"/>
<path d="M125.77 82.6057C129.901 82.8103 133.868 83.5363 139.755 84.9025C145.002 86.1235 148.652 87.1069 148.652 87.1069L147.992 80.9557C147.992 80.9557 149.761 82.0909 153.377 81.4507C156.994 80.8105 157.925 79.2925 157.925 79.2925C157.925 79.2925 161.647 89.3707 162.479 94.2283C163.218 98.5315 162.103 102.3 156.229 101.779C149.015 101.119 130.489 97.8649 130.489 97.8649L125.77 82.6057Z" fill="#F3752B"/>
<path opacity="0.15" d="M148.65 87.12C148.94 91.1262 149.745 94.1423 151.211 95.9045C148.703 94.5317 147.132 90.6245 147.02 86.6646L148.65 87.12Z" fill="black"/>
<path d="M133.089 60.753C132.852 60.8345 132.637 60.9708 132.463 61.1509C132.289 61.3309 132.159 61.5497 132.086 61.7892C131.927 62.3562 131.955 62.9593 132.167 63.5088C132.379 64.0582 132.762 64.5246 133.261 64.8384C133.474 64.9799 133.715 65.0738 133.968 65.1136C134.221 65.1535 134.479 65.1384 134.726 65.0694L136.435 64.482C136.673 64.4015 136.888 64.2655 137.062 64.0853C137.237 63.9051 137.366 63.6859 137.438 63.4458C137.598 62.8779 137.569 62.2737 137.358 61.7231C137.146 61.1725 136.762 60.705 136.264 60.39C136.049 60.2479 135.807 60.1542 135.552 60.1154C135.298 60.0767 135.039 60.0938 134.792 60.1656L133.089 60.753Z" fill="#FAFAFA"/>
<path d="M133.089 60.753C132.852 60.8345 132.637 60.9708 132.463 61.1509C132.289 61.3309 132.159 61.5497 132.086 61.7892C131.927 62.3562 131.955 62.9593 132.167 63.5088C132.379 64.0582 132.762 64.5246 133.261 64.8384C133.474 64.9799 133.715 65.0738 133.968 65.1136C134.221 65.1535 134.479 65.1384 134.726 65.0694L136.435 64.482C136.673 64.4015 136.888 64.2655 137.062 64.0853C137.237 63.9051 137.366 63.6859 137.438 63.4458C137.598 62.8779 137.569 62.2737 137.358 61.7231C137.146 61.1725 136.762 60.705 136.264 60.39C136.049 60.2479 135.807 60.1542 135.552 60.1154C135.298 60.0767 135.039 60.0938 134.792 60.1656L133.089 60.753Z" fill="#00B4D8"/>
<path opacity="0.25" d="M133.089 60.753C132.852 60.8345 132.637 60.9708 132.463 61.1509C132.289 61.3309 132.159 61.5497 132.086 61.7892C131.927 62.3562 131.955 62.9593 132.167 63.5088C132.379 64.0582 132.762 64.5246 133.261 64.8384C133.474 64.9799 133.715 65.0738 133.968 65.1136C134.221 65.1535 134.479 65.1384 134.726 65.0694L136.435 64.482C136.673 64.4015 136.888 64.2655 137.062 64.0853C137.237 63.9051 137.366 63.6859 137.438 63.4458C137.598 62.8779 137.569 62.2737 137.358 61.7231C137.146 61.1725 136.762 60.705 136.264 60.39C136.049 60.2479 135.807 60.1542 135.552 60.1154C135.298 60.0767 135.039 60.0938 134.792 60.1656L133.089 60.753Z" fill="white"/>
<path d="M134.948 64.2643C135.155 64.4156 135.395 64.5154 135.648 64.5555C135.901 64.5956 136.16 64.5747 136.403 64.4947C136.646 64.4147 136.867 64.2778 137.047 64.0954C137.227 63.913 137.36 63.6903 137.437 63.4459C137.596 62.878 137.568 62.2738 137.356 61.7232C137.144 61.1726 136.761 60.7051 136.262 60.3901C136.055 60.2388 135.815 60.139 135.563 60.0989C135.31 60.0589 135.051 60.0797 134.807 60.1597C134.564 60.2397 134.343 60.3766 134.164 60.559C133.984 60.7414 133.85 60.9641 133.774 61.2085C133.614 61.7765 133.643 62.3807 133.854 62.9313C134.066 63.4818 134.45 63.9494 134.948 64.2643V64.2643Z" fill="#00B4D8"/>
<path d="M135.206 60.364C135.001 60.4327 134.816 60.5494 134.666 60.7044C134.515 60.8594 134.404 61.0482 134.342 61.255C134.201 61.745 134.223 62.2675 134.405 62.7438C134.587 63.22 134.919 63.6241 135.351 63.895C135.534 64.0157 135.741 64.0959 135.957 64.13C136.173 64.1642 136.394 64.1516 136.605 64.093L150.954 60.0406C151.343 59.9152 151.502 58.9516 151.66 58.4896C151.801 57.9995 151.779 57.477 151.596 57.0007C151.414 56.5245 151.082 56.1204 150.65 55.8496C150.221 55.5856 149.469 54.919 149.086 55.0444C148.961 55.084 135.299 60.3244 135.206 60.364Z" fill="#263238"/>
<path d="M145.331 54.7076C144.912 54.8485 144.532 55.0881 144.224 55.4063C143.916 55.7244 143.689 56.1118 143.562 56.5358C143.281 57.537 143.331 58.6021 143.705 59.5726C144.078 60.5431 144.755 61.3669 145.635 61.9214C146.01 62.1699 146.434 62.3346 146.878 62.4041C147.322 62.4735 147.776 62.4462 148.209 62.324C148.473 62.2448 176.001 54.5624 176.252 54.4832C177.044 54.2258 177.381 52.2326 177.704 51.2888C177.985 50.2886 177.935 49.2245 177.561 48.2552C177.188 47.2858 176.511 46.4632 175.632 45.9098C174.754 45.3686 173.196 43.9958 172.404 44.2466C172.147 44.3324 145.575 54.6218 145.331 54.7076Z" fill="#E0E0E0"/>
<path d="M172.918 53.9023C175.314 55.3609 177.954 54.4963 178.812 51.9619C179.67 49.4275 178.429 46.2001 176.033 44.7415C173.638 43.2829 170.998 44.1475 170.14 46.6753C169.282 49.2031 170.516 52.4371 172.918 53.9023Z" fill="#E0E0E0"/>
<path d="M172.57 54.3313C173.351 54.8263 174.253 55.0938 175.177 55.1035H175.395L176.755 55.0639H176.656H176.471C176.346 55.0639 176.207 55.0639 176.075 55.0177C175.343 54.896 174.642 54.6338 174.009 54.2455C173.671 54.0348 173.351 53.7963 173.052 53.5327C170.868 51.6121 169.838 48.3451 170.736 45.7249C170.95 45.0643 171.306 44.4585 171.778 43.9495L171.871 43.8505C171.898 43.8186 171.929 43.7898 171.963 43.7647L172.161 43.5931L172.234 43.5337L171.099 44.3455C170.993 44.4181 170.894 44.5039 170.795 44.5831C170.217 45.1035 169.785 45.7654 169.541 46.5037C169.165 47.8371 169.192 49.2518 169.617 50.5703C170.042 51.8888 170.847 53.0525 171.93 53.9155L172.26 54.1201H172.293L172.57 54.3313Z" fill="#263238"/>
<path d="M179.004 52.8002C181.987 54.6152 185.28 53.5394 186.35 50.3846C187.419 47.2298 185.874 43.2038 182.885 41.3822C179.895 39.5606 176.615 40.6562 175.559 43.811C174.503 46.9658 176.014 50.9918 179.004 52.8002Z" fill="#00B4D8"/>
<path d="M173.892 54.4899C174.41 54.811 174.973 55.0535 175.562 55.2093C175.978 55.2881 176.399 55.341 176.822 55.3677C176.928 55.3677 177.331 55.3677 177.43 55.3677L177.727 55.3215C177.894 55.2928 178.059 55.2531 178.222 55.2027V55.2027H178.261H178.334H178.373L183.277 53.5923H183.158H183.013C182.907 53.6191 182.799 53.6389 182.69 53.6517C182.546 53.6766 182.4 53.6942 182.254 53.7045C181.107 53.7431 179.975 53.4273 179.014 52.8003C178.712 52.6191 178.425 52.4139 178.156 52.1865C175.74 50.2065 174.585 46.6359 175.549 43.7979C175.847 42.8688 176.415 42.049 177.179 41.4417L177.397 41.2833L177.614 41.1447L177.845 41.0193C177.909 40.9811 177.975 40.948 178.043 40.9203L178.215 40.8477L178.387 40.7817L173.476 42.3921L173.252 42.4647C172.58 42.7203 171.976 43.1262 171.485 43.6513C170.994 44.1763 170.63 44.8067 170.42 45.4941C169.503 48.2001 170.513 51.5529 172.704 53.5989C172.81 53.6979 172.915 53.7969 173.041 53.8959C173.31 54.1133 173.595 54.3117 173.892 54.4899V54.4899Z" fill="#FAFAFA"/>
<path d="M187.571 40.115C190.403 41.8376 191.868 45.6458 190.871 48.629C190.611 49.4322 190.141 50.1519 189.512 50.7146C189.099 51.0766 188.619 51.3546 188.099 51.533L184.007 52.8992L183.908 52.9388C183.711 52.9961 183.511 53.0402 183.308 53.0708C182.084 53.2444 180.838 52.9676 179.803 52.292C176.978 50.5694 175.506 46.7612 176.503 43.778C176.858 42.6439 177.645 41.6953 178.694 41.138C178.856 41.0526 179.024 40.9776 179.196 40.9136V40.9136L179.394 40.8476L183.407 39.5276C184.101 39.3142 184.835 39.2562 185.554 39.3577C186.274 39.4592 186.963 39.7177 187.571 40.115V40.115Z" fill="#EBEBEB"/>
<path d="M181.914 39.5276C181.213 39.7681 180.578 40.1718 180.063 40.7053C179.548 41.2388 179.167 41.887 178.951 42.5966C177.875 45.7514 179.426 49.784 182.416 51.6056C183.046 52.0162 183.756 52.2874 184.499 52.4012C185.243 52.5151 186.002 52.4688 186.726 52.2656C187.168 52.127 189.993 51.137 190.402 50.9984C191.104 50.7641 191.74 50.366 192.258 49.8368C192.775 49.3077 193.16 48.6629 193.378 47.9558C194.454 44.801 192.903 40.7684 189.913 38.9468C189.281 38.5296 188.566 38.2546 187.818 38.1406C187.069 38.0267 186.305 38.0766 185.577 38.2868C185.135 38.4122 182.323 39.3956 181.914 39.5276Z" fill="#FAFAFA"/>
<path d="M173.892 54.4899C174.41 54.811 174.973 55.0535 175.562 55.2093C175.978 55.2881 176.399 55.341 176.822 55.3677C176.928 55.3677 177.331 55.3677 177.43 55.3677L177.727 55.3215C177.894 55.2928 178.059 55.2531 178.222 55.2027V55.2027H178.261H178.334H178.373L183.277 53.5923H183.158H183.013C182.907 53.6191 182.799 53.6389 182.69 53.6517C182.546 53.6766 182.4 53.6942 182.254 53.7045C181.107 53.7431 179.975 53.4273 179.014 52.8003C178.712 52.6191 178.425 52.4139 178.156 52.1865C175.74 50.2065 174.585 46.6359 175.549 43.7979C175.847 42.8688 176.415 42.049 177.179 41.4417L177.397 41.2833L177.614 41.1447L177.845 41.0193C177.909 40.9811 177.975 40.948 178.043 40.9203L178.215 40.8477L178.387 40.7817L173.476 42.3921L173.252 42.4647C172.58 42.7203 171.976 43.1262 171.485 43.6513C170.994 44.1763 170.63 44.8067 170.42 45.4941C169.503 48.2001 170.513 51.5529 172.704 53.5989C172.81 53.6979 172.915 53.7969 173.041 53.8959C173.31 54.1133 173.595 54.3117 173.892 54.4899V54.4899Z" fill="#00B4D8"/>
<path opacity="0.25" d="M173.892 54.4899C174.41 54.811 174.973 55.0535 175.562 55.2093C175.978 55.2881 176.399 55.341 176.822 55.3677C176.928 55.3677 177.331 55.3677 177.43 55.3677L177.727 55.3215C177.894 55.2928 178.059 55.2531 178.222 55.2027V55.2027H178.261H178.334H178.373L183.277 53.5923H183.158H183.013C182.907 53.6191 182.799 53.6389 182.69 53.6517C182.546 53.6766 182.4 53.6942 182.254 53.7045C181.107 53.7431 179.975 53.4273 179.014 52.8003C178.712 52.6191 178.425 52.4139 178.156 52.1865C175.74 50.2065 174.585 46.6359 175.549 43.7979C175.847 42.8688 176.415 42.049 177.179 41.4417L177.397 41.2833L177.614 41.1447L177.845 41.0193C177.909 40.9811 177.975 40.948 178.043 40.9203L178.215 40.8477L178.387 40.7817L173.476 42.3921L173.252 42.4647C172.58 42.7203 171.976 43.1262 171.485 43.6513C170.994 44.1763 170.63 44.8067 170.42 45.4941C169.503 48.2001 170.513 51.5529 172.704 53.5989C172.81 53.6979 172.915 53.7969 173.041 53.8959C173.31 54.1133 173.595 54.3117 173.892 54.4899V54.4899Z" fill="white"/>
<path d="M187.571 40.115C190.403 41.8376 191.868 45.6458 190.871 48.629C190.611 49.4322 190.141 50.1519 189.512 50.7146C189.099 51.0766 188.619 51.3546 188.099 51.533L184.007 52.8992L183.908 52.9388C183.711 52.9961 183.511 53.0402 183.308 53.0708C182.084 53.2444 180.838 52.9676 179.803 52.292C176.978 50.5694 175.506 46.7612 176.503 43.778C176.858 42.6439 177.645 41.6953 178.694 41.138C178.856 41.0526 179.024 40.9776 179.196 40.9136V40.9136L179.394 40.8476L183.407 39.5276C184.101 39.3142 184.835 39.2562 185.554 39.3577C186.274 39.4592 186.963 39.7177 187.571 40.115V40.115Z" fill="#00B4D8"/>
<path opacity="0.15" d="M187.571 40.115C190.403 41.8376 191.868 45.6458 190.871 48.629C190.611 49.4322 190.141 50.1519 189.512 50.7146C189.099 51.0766 188.619 51.3546 188.099 51.533L184.007 52.8992L183.908 52.9388C183.711 52.9961 183.511 53.0402 183.308 53.0708C182.084 53.2444 180.838 52.9676 179.803 52.292C176.978 50.5694 175.506 46.7612 176.503 43.778C176.858 42.6439 177.645 41.6953 178.694 41.138C178.856 41.0526 179.024 40.9776 179.196 40.9136V40.9136L179.394 40.8476L183.407 39.5276C184.101 39.3142 184.835 39.2562 185.554 39.3577C186.274 39.4592 186.963 39.7177 187.571 40.115V40.115Z" fill="white"/>
<path d="M181.914 39.5276C181.213 39.7681 180.578 40.1718 180.063 40.7053C179.548 41.2388 179.167 41.887 178.951 42.5966C177.875 45.7514 179.426 49.784 182.416 51.6056C183.046 52.0162 183.756 52.2874 184.499 52.4012C185.243 52.5151 186.002 52.4688 186.726 52.2656C187.168 52.127 189.993 51.137 190.402 50.9984C191.104 50.7641 191.74 50.366 192.258 49.8368C192.775 49.3077 193.16 48.6629 193.378 47.9558C194.454 44.801 192.903 40.7684 189.913 38.9468C189.281 38.5296 188.566 38.2546 187.818 38.1406C187.069 38.0267 186.305 38.0766 185.577 38.2868C185.135 38.4122 182.323 39.3956 181.914 39.5276Z" fill="#00B4D8"/>
<path opacity="0.25" d="M181.914 39.5276C181.213 39.7681 180.578 40.1718 180.063 40.7053C179.548 41.2388 179.167 41.887 178.951 42.5966C177.875 45.7514 179.426 49.784 182.416 51.6056C183.046 52.0162 183.756 52.2874 184.499 52.4012C185.243 52.5151 186.002 52.4688 186.726 52.2656C187.168 52.127 189.993 51.137 190.402 50.9984C191.104 50.7641 191.74 50.366 192.258 49.8368C192.775 49.3077 193.16 48.6629 193.378 47.9558C194.454 44.801 192.903 40.7684 189.913 38.9468C189.281 38.5296 188.566 38.2546 187.818 38.1406C187.069 38.0267 186.305 38.0766 185.577 38.2868C185.135 38.4122 182.323 39.3956 181.914 39.5276Z" fill="white"/>
<path d="M186.013 50.3648C189.003 52.1864 192.297 51.1106 193.366 47.9558C194.435 44.801 192.891 40.7684 189.901 38.9468C186.911 37.1252 183.624 38.201 182.548 41.3558C181.473 44.5106 183.024 48.5432 186.013 50.3648Z" fill="#00B4D8"/>
<path opacity="0.2" d="M191.163 49.751C189.771 50.972 187.962 50.0942 187.249 49.6586C184.464 47.9624 182.959 44.0486 183.949 41.1116C184.157 40.4436 184.537 39.8425 185.052 39.3692C186.444 38.1548 188.253 39.0326 188.965 39.4682C191.744 41.1578 193.249 45.0716 192.265 48.0086C192.058 48.6765 191.678 49.2777 191.163 49.751V49.751Z" fill="black"/>
<path d="M187.24 40.0424C186.597 39.6363 185.866 39.3918 185.108 39.3296L185.062 39.3692C184.547 39.8425 184.167 40.4437 183.96 41.1116C182.957 44.0486 184.461 47.9624 187.26 49.6586C187.901 50.063 188.63 50.3074 189.385 50.3714L189.438 50.3318C189.95 49.8561 190.33 49.2558 190.54 48.5894C191.523 45.6524 190.019 41.7386 187.24 40.0424Z" fill="#00B4D8"/>
<path opacity="0.6" d="M187.24 40.0424C186.597 39.6363 185.866 39.3918 185.108 39.3296L185.062 39.3692C184.547 39.8425 184.167 40.4437 183.96 41.1116C182.957 44.0486 184.461 47.9624 187.26 49.6586C187.901 50.063 188.63 50.3074 189.385 50.3714L189.438 50.3318C189.95 49.8561 190.33 49.2558 190.54 48.5894C191.523 45.6524 190.019 41.7386 187.24 40.0424Z" fill="white"/>
<path opacity="0.1" d="M183.922 41.2304C183.005 44.1542 184.503 47.9822 187.222 49.6586C187.764 49.5417 188.265 49.2817 188.673 48.9056C189.08 48.5295 189.379 48.0511 189.539 47.5202C189.85 46.4031 189.793 45.2155 189.375 44.1336C188.958 43.0517 188.203 42.1331 187.222 41.5142C186.743 41.1888 186.187 40.9918 185.609 40.9422C185.032 40.8925 184.451 40.9917 183.922 41.2304V41.2304Z" fill="#00B4D8"/>
<path opacity="0.2" d="M183.684 43.7122C183.834 45.2423 184.408 46.7004 185.34 47.923C185.602 48.0767 185.895 48.1683 186.197 48.1907C186.5 48.2131 186.803 48.1657 187.085 48.0522C187.366 47.9386 187.617 47.762 187.82 47.5359C188.022 47.3098 188.169 47.0403 188.251 46.7482C188.448 46.0337 188.412 45.2748 188.147 44.5824C187.883 43.89 187.403 43.3006 186.779 42.9004C186.534 42.7139 186.249 42.5857 185.946 42.5255C185.644 42.4653 185.332 42.4746 185.034 42.5528C184.735 42.631 184.459 42.7761 184.225 42.9769C183.991 43.1778 183.806 43.4292 183.684 43.7122Z" fill="#00B4D8"/>
<path opacity="0.6" d="M184.551 42.8276C184.274 41.2238 185.284 40.016 185.924 40.049C186.564 40.082 190.742 42.5966 190.082 47.5664C190.082 47.5664 189.97 44.405 188.069 42.3392C186.274 40.3856 184.65 41.27 184.551 42.8276Z" fill="white"/>
<path opacity="0.1" d="M173.047 53.8893L178.142 52.1931L178.802 51.5859L181.297 50.7543L181.633 51.0513L185.27 49.8369C185.51 50.0327 185.764 50.2113 186.029 50.3715L186.313 50.5365C187.056 50.9549 187.884 51.1986 188.735 51.2493C189.238 51.2781 189.741 51.2246 190.227 51.0909H190.187C189.395 51.3615 187.131 52.1535 186.742 52.2789C186.254 52.4264 185.746 52.4911 185.237 52.4703L184.947 52.5693C184.384 53.0688 183.702 53.4144 182.967 53.5725H183.026H183.171H183.29L178.386 55.1829H178.347H178.274H178.234C178.072 55.2333 177.907 55.273 177.739 55.3017L177.442 55.3479C177.343 55.3479 176.941 55.3875 176.835 55.3479C176.412 55.3211 175.991 55.2682 175.575 55.1895C175.139 55.0784 174.718 54.9167 174.321 54.7077C174.178 54.6383 174.039 54.5612 173.905 54.4767C173.606 54.3009 173.319 54.1046 173.047 53.8893V53.8893Z" fill="black"/>
<path d="M98.6301 124.8C99.0195 121.948 101.006 121.5 100.042 114.735C99.5607 111.369 97.8711 102.663 97.8711 102.663C97.8711 102.663 103.659 98.2017 101.831 85.1865L108.055 82.6785L111.447 81.4839L120.938 81.8799L125.809 83.1999C127.479 84.6387 130.534 86.9025 132.996 90.3741C136.547 95.3901 137.187 100.934 133.557 105.033C133.518 105.838 133.663 118.233 134.6 121.262C134.97 122.463 135.478 124.094 134.692 125.704C131.175 131.453 110.464 137.28 98.6301 124.8Z" fill="#FAFAFA"/>
<path d="M120.91 81.8799L125.768 82.6059C130.434 86.1303 135.991 92.5059 136.328 97.3965C136.525 100.296 135.759 103.18 134.15 105.6C134.15 105.6 134.084 115.56 135.219 120.813C136.354 126.067 137.621 140.151 137.621 140.151C137.621 140.151 137.72 141.029 133.82 142.131C132.619 135.386 129.662 110.636 129.827 104.696C129.992 98.7561 130.071 89.3643 120.91 81.8799Z" fill="#F3752B"/>
<path opacity="0.2" d="M130.531 107.455C130.914 105.877 131.336 104.313 131.765 102.749C132.194 101.185 132.603 99.6141 132.993 98.0499C133.193 97.2749 133.343 96.4879 133.442 95.6937C133.56 94.9479 133.032 94.3275 132.504 93.7137C131.373 92.5794 130.123 91.5703 128.775 90.7041L128.65 90.6249V90.4797C128.795 89.6256 128.795 88.7531 128.65 87.8991C128.515 87.0409 128.213 86.2178 127.759 85.4769C127.261 84.7543 126.643 84.1226 125.931 83.6091C125.218 83.0864 124.45 82.6438 123.641 82.2891C124.492 82.5884 125.304 82.9919 126.056 83.4903C126.827 83.9755 127.499 84.6026 128.036 85.3383C128.543 86.1007 128.895 86.955 129.072 87.8529C129.255 88.7552 129.273 89.6831 129.125 90.5919L129.026 90.3609C130.424 91.2282 131.717 92.2536 132.881 93.4167C133.173 93.7243 133.428 94.0654 133.64 94.4331C133.698 94.5266 133.747 94.6262 133.785 94.7301C133.835 94.834 133.869 94.9454 133.884 95.0601C133.918 95.2787 133.918 95.5014 133.884 95.7201C133.775 96.5347 133.614 97.3415 133.402 98.1357C133.006 99.7131 132.504 101.264 132.029 102.815C131.554 104.366 131.033 105.91 130.531 107.455Z" fill="black"/>
<path d="M108.029 82.6782C108.029 82.6782 110.075 85.3182 112.781 91.4892C115.487 97.6602 118.094 103.297 118.061 109.025C118.028 114.754 116.16 144.368 116.16 144.368C116.16 144.368 107.95 145.609 100.511 142.613L101.119 131.142L98.3005 142.072C98.3005 142.072 94.7431 140.798 93.4297 139.61C95.3701 127.684 99.7063 122.021 99.9241 117.619C100.069 114.596 97.5019 106.214 97.0135 98.6568C96.8102 94.2367 97.1136 89.8079 97.9177 85.4568L108.029 82.6782Z" fill="#F3752B"/>
<path opacity="0.2" d="M116.962 110.729C116.445 109.288 115.681 107.948 114.705 106.769C113.781 105.548 112.771 104.399 111.741 103.271C111.226 102.703 110.705 102.142 110.183 101.588L109.391 100.749C109.259 100.598 109.127 100.472 108.995 100.301C108.956 100.261 108.92 100.216 108.89 100.169C108.85 100.099 108.817 100.026 108.791 99.9508C108.762 99.8253 108.749 99.6968 108.751 99.568C108.881 98.7656 109.151 97.9925 109.55 97.2844C109.913 96.6244 110.309 95.9248 110.731 95.2648L110.771 95.6476L108.421 93.2782L107.253 92.0836L106.963 91.78L106.818 91.6282C106.741 91.5585 106.674 91.4785 106.62 91.3906C106.564 91.2205 106.544 91.0408 106.56 90.8626C106.56 90.7174 106.56 90.5722 106.606 90.427C106.8 89.3107 107.067 88.2083 107.405 87.127C107.735 86.0512 108.065 84.9886 108.454 83.9326C108.19 85.0216 107.913 86.104 107.669 87.193C107.425 88.282 107.167 89.3776 107.048 90.46C107.011 90.6917 107.011 90.9279 107.048 91.1596C107.009 91.1068 107.049 91.1926 107.128 91.2322L107.28 91.3774L107.583 91.6678L108.791 92.8426L111.2 95.1988L111.371 95.3638L111.24 95.5816C110.837 96.2416 110.461 96.9016 110.118 97.5616C109.758 98.1923 109.502 98.8763 109.358 99.5878C109.354 99.6471 109.354 99.7067 109.358 99.766C109.364 99.781 109.364 99.7972 109.358 99.8122C109.358 99.8122 109.405 99.8782 109.431 99.9112C109.53 100.043 109.669 100.188 109.794 100.327L110.573 101.178C111.088 101.746 111.602 102.314 112.111 102.894C113.117 104.065 114.064 105.285 114.949 106.551C115.386 107.185 115.783 107.846 116.137 108.531C116.515 109.22 116.793 109.961 116.962 110.729V110.729Z" fill="black"/>
<path d="M107.815 74.3755C107.177 74.5382 106.507 74.537 105.869 74.372C105.231 74.207 104.645 73.8835 104.165 73.4317C102.093 71.6101 101.684 69.5641 102.39 68.0857C102.971 66.8779 104.634 65.9539 105.941 66.5875C107.248 67.2211 107.452 67.9075 108.053 68.7853C108.653 69.6631 109.835 68.7853 108.99 65.1223C111.392 63.6439 110.508 59.4397 111.683 57.5521C113.524 54.5953 117.141 54.9121 118.362 55.4137C119.001 54.8424 119.787 54.4603 120.63 54.3099C121.474 54.1596 122.343 54.2469 123.14 54.5623C124.949 55.2817 126.295 57.0769 127.642 63.6109C129.014 70.2703 128.354 74.8903 126.982 76.4941C126.025 77.5963 123.602 78.6127 121.22 78.7447L120.936 82.4077C120.936 82.4077 128.81 88.5787 120.019 88.9153C113.419 89.1661 108.64 82.4671 108.64 82.4671L109.162 73.1545C109.162 73.1545 109.096 73.9795 107.815 74.3755Z" fill="#FFA8A7"/>
<path d="M116.381 62.1126L114.012 63.36C113.849 63.0349 113.819 62.6594 113.927 62.3124C114.035 61.9653 114.274 61.6737 114.593 61.4988C114.75 61.4193 114.922 61.3721 115.097 61.36C115.273 61.348 115.45 61.3712 115.616 61.4284C115.783 61.4856 115.937 61.5756 116.068 61.6931C116.199 61.8106 116.306 61.9533 116.381 62.1126Z" fill="#263238"/>
<path d="M125.848 60.1852L123.168 59.7826C123.188 59.6081 123.243 59.4394 123.33 59.2864C123.416 59.1334 123.532 58.9991 123.671 58.8916C123.81 58.784 123.969 58.7052 124.139 58.6599C124.308 58.6146 124.486 58.6036 124.66 58.6276C125.018 58.6878 125.341 58.8823 125.562 59.1715C125.782 59.4608 125.884 59.8233 125.848 60.1852Z" fill="#263238"/>
<path d="M117.563 71.1021L121.365 71.6762C121.341 71.9265 121.266 72.1691 121.145 72.3894C121.024 72.6097 120.859 72.803 120.661 72.9574C120.463 73.1119 120.235 73.2242 119.992 73.2877C119.748 73.3511 119.495 73.3642 119.246 73.3262C118.734 73.2416 118.274 72.9637 117.961 72.5498C117.648 72.136 117.506 71.6178 117.563 71.1021V71.1021Z" fill="#B16668"/>
<path d="M119.98 73.2598C119.864 72.8279 119.605 72.4479 119.246 72.1819C118.886 71.9158 118.447 71.7793 118 71.7946C117.871 71.7966 117.743 71.8121 117.617 71.8408C117.72 72.2139 117.927 72.5498 118.215 72.8083C118.503 73.0669 118.859 73.2374 119.241 73.2994C119.487 73.3371 119.739 73.3237 119.98 73.2598V73.2598Z" fill="#F28F8F"/>
<path d="M125.669 63.1093C125.77 63.3008 125.813 63.5181 125.791 63.7339C125.769 63.9496 125.684 64.154 125.546 64.3211C125.407 64.4882 125.223 64.6106 125.015 64.6728C124.807 64.7349 124.586 64.734 124.379 64.6702C124.171 64.6063 123.988 64.4824 123.851 64.3142C123.714 64.1459 123.63 63.9408 123.61 63.725C123.59 63.5091 123.634 63.292 123.738 63.1014C123.841 62.9107 123.998 62.7549 124.19 62.6539C124.447 62.5204 124.746 62.4934 125.023 62.5786C125.299 62.6638 125.531 62.8544 125.669 63.1093V63.1093Z" fill="#263238"/>
<path d="M117.927 65.0298C118.013 65.2476 117.267 64.8186 116.547 64.9242C115.597 65.0562 115.043 65.9868 115.135 65.3862C115.171 65.0618 115.326 64.7623 115.569 64.5453C115.813 64.3284 116.129 64.2094 116.455 64.2114C116.758 64.1453 117.074 64.192 117.345 64.3427C117.616 64.4933 117.823 64.7376 117.927 65.0298V65.0298Z" fill="#263238"/>
<path d="M120.117 62.2778L121.49 69.3002L125.252 67.7228C123.978 65.0762 121.774 63.4328 120.117 62.2778Z" fill="#F28F8F"/>
<path d="M121.199 78.7445C117.774 78.9953 113.576 78.1637 112.098 76.1045C113.048 78.4013 115.589 79.3583 117.569 79.6817C118.734 79.9085 119.921 80.0037 121.107 79.9655L121.199 78.7445Z" fill="#F28F8F"/>
<path d="M92.5631 142.389C91.7777 141.57 90.7811 140.857 90.4379 139.749C90.3416 139.46 90.313 139.154 90.3542 138.853C90.3954 138.552 90.5053 138.265 90.6755 138.013C90.7652 137.923 90.8349 137.815 90.8801 137.696C90.8997 137.594 90.8997 137.488 90.8801 137.386C90.7671 136.961 90.7878 136.512 90.9395 136.099C91.0161 135.93 91.1275 135.78 91.2662 135.657C91.4049 135.534 91.5679 135.442 91.7447 135.386C91.5293 134.744 91.5293 134.048 91.7447 133.406C91.9823 132.667 92.7346 132.086 93.2494 132.878C93.494 133.281 93.6974 133.708 93.8567 134.152C94.2597 135.26 94.53 136.412 94.6618 137.584C94.8136 138.798 95.1766 142.25 93.2891 142.455C93.0911 142.488 92.6753 142.507 92.5631 142.389Z" fill="#F28F8F"/>
<path d="M99.6594 86.1235C92.3994 87.6481 91.7394 89.9515 87.5154 96.0235C83.2914 102.096 78.0444 110.359 76.7508 113.289C75.1536 116.919 74.8236 118.312 78.7308 122.061C80.757 123.994 83.5752 126.285 86.4462 128.885C88.7166 130.931 91.4358 133.102 93.6336 135.221C93.9265 135.451 94.1487 135.758 94.2748 136.108C94.4009 136.459 94.4257 136.837 94.3464 137.201C94.2041 137.685 94.0874 138.176 93.9966 138.673C94.0105 139.319 94.0768 139.964 94.1946 140.6C94.2468 140.921 94.2055 141.251 94.0756 141.549C93.9457 141.848 93.7327 142.102 93.462 142.283C93.1723 142.404 92.8561 142.447 92.5446 142.408C93.0912 142.81 93.6968 143.124 94.3398 143.339C94.9899 143.552 95.696 143.514 96.3198 143.233C96.9006 142.936 97.3362 142.362 97.9632 142.164C98.2998 142.052 98.6694 142.065 99.006 141.966C99.3587 141.861 99.6701 141.649 99.897 141.359C100.247 140.897 100.379 140.244 100.88 139.953C101.136 139.846 101.398 139.756 101.666 139.683C101.918 139.555 102.135 139.368 102.299 139.138C102.464 138.908 102.57 138.642 102.61 138.363C102.684 137.802 102.66 137.232 102.537 136.68C102.28 135.183 101.941 133.703 101.521 132.244C101.356 131.75 101.103 131.29 100.775 130.885C100.425 130.403 100.115 129.901 99.7056 129.439C97.1382 126.304 88.9872 115.843 88.9872 115.843L97.9896 104.043C99.9361 101.52 101.126 98.4973 101.422 95.3251C101.718 92.1529 101.106 88.9619 99.6594 86.1235V86.1235Z" fill="#FFA8A7"/>
<path d="M89.0124 115.817C86.8476 118.034 83.4156 118.279 82.1484 118.232C83.4263 118.731 84.8194 118.858 86.1662 118.597C87.513 118.337 88.7584 117.7 89.7582 116.761L89.0124 115.817Z" fill="#F28F8F"/>
<path d="M84.4258 127.096L86.4652 128.872C88.4341 128.572 90.2191 127.546 91.468 125.994C93.7318 123.275 93.5602 121.288 93.5602 121.288L91.1908 118.609L84.4258 127.096Z" fill="#F0F0F0"/>
<path d="M99.7374 84.9355C94.53 86.0773 93.5598 86.7703 89.8374 91.9843C86.115 97.1983 79.8318 107.164 78.195 109.705C76.5582 112.246 74.1228 116.715 75.555 118.945C76.9872 121.176 84.7026 127.697 84.7026 127.697C84.7026 127.697 87.3426 127.572 89.8836 124.945C92.5236 122.212 92.3256 119.414 92.3256 119.414L89.4546 115.817C89.4546 115.817 97.4868 105.468 98.9388 103.554C100.391 101.64 103.618 95.1787 99.7374 84.9355Z" fill="#F3752B"/>
<path opacity="0.15" d="M89.436 115.81C88.3932 114.635 85.8522 112.728 83.9844 112.405C85.9644 112.061 88.8486 113.461 90.2214 114.741L89.436 115.81Z" fill="black"/>
</svg>
