<svg width="388" height="284" viewBox="0 0 388 284" fill="none" xmlns="http://www.w3.org/2000/svg">
<path d="M58.633 253.194C134.072 292.007 255.933 291.254 330.868 251.511C405.803 211.767 405.427 148.107 329.988 109.293C254.55 70.4797 132.689 71.2421 57.7537 110.977C-17.1815 150.711 -16.7789 214.389 58.633 253.194Z" fill="#F5F5F5"/>
<path d="M30.1651 187.497C32.1115 181.697 33.3516 175.683 33.8585 169.586C34.4909 160.248 29.8819 145.989 21.572 141.263C13.2621 136.537 8.82227 142.465 11.6226 147.517C14.4229 152.569 23.8892 166.905 24.0897 179.289L30.1651 187.497Z" fill="#00B4D8"/>
<path d="M27.2729 187.311L27.2022 187.311C27.0875 187.292 26.9848 187.229 26.9163 187.135C26.8478 187.041 26.8191 186.924 26.8363 186.809L26.8356 186.694C27.5085 182.479 28.4194 176.714 27.1069 166.185C25.627 154.34 21.6918 148.879 18.1297 145.097C18.0879 145.056 18.0547 145.007 18.0319 144.953C18.0091 144.9 17.9972 144.842 17.9969 144.784C17.9965 144.725 18.0077 144.667 18.0298 144.613C18.052 144.559 18.0846 144.51 18.1258 144.469C18.2094 144.387 18.3218 144.34 18.439 144.34C18.5563 144.339 18.6692 144.384 18.7539 144.465C22.4759 148.352 26.4916 153.954 27.9997 166.056C29.3306 176.708 28.4025 182.553 27.7299 186.812L27.7306 186.927C27.716 187.037 27.6609 187.137 27.5762 187.208C27.4915 187.279 27.3833 187.315 27.2729 187.311Z" fill="white"/>
<path d="M25.4846 192.833C24.5729 188.469 21.3048 183.57 15.068 180.725C8.8312 177.879 2.43367 176.22 1.25177 172.503C0.0698808 168.786 3.9799 164.462 12.0856 166.243C20.1913 168.025 28.9791 179.975 28.5338 188.081L25.4846 192.833Z" fill="#00B4D8"/>
<path d="M27.2925 190.442C27.1867 190.442 27.0846 190.403 27.0046 190.334C26.9247 190.265 26.8722 190.169 26.8567 190.064C25.1346 179.105 15.7766 170.794 8.45665 170.185C8.33928 170.175 8.23061 170.119 8.15457 170.029C8.07853 169.939 8.04133 169.822 8.05116 169.705C8.061 169.588 8.11705 169.479 8.207 169.403C8.29695 169.327 8.41342 169.29 8.5308 169.3C16.1782 169.933 25.9452 178.569 27.7317 189.926C27.7408 189.984 27.7386 190.042 27.725 190.099C27.7114 190.156 27.6868 190.209 27.6526 190.256C27.6184 190.303 27.5752 190.343 27.5255 190.373C27.4759 190.404 27.4207 190.424 27.3633 190.433L27.2925 190.442Z" fill="white"/>
<path d="M328.16 106.935C328.16 106.935 323.981 97.8307 324.605 89.9973C325.246 82.0312 328.048 74.4852 334.809 69.1795C341.571 63.8737 346.841 66.221 347.976 68.1426C349.112 70.0642 349.153 73.8592 344.127 78.0218C339.101 82.1844 333.651 93.4978 335.277 104.759L333 111.364L328.16 106.935Z" fill="#00B4D8"/>
<path d="M330.636 107.786C330.557 107.785 330.479 107.764 330.411 107.724C330.342 107.684 330.285 107.627 330.246 107.558C328.501 104.393 328.163 91.2396 330.896 83.8709C334.211 74.8974 340.275 69.7995 344.838 68.0196C344.891 67.9981 344.949 67.9876 345.007 67.9887C345.065 67.9898 345.122 68.0026 345.175 68.0262C345.228 68.0498 345.275 68.0837 345.315 68.1261C345.355 68.1684 345.385 68.2182 345.405 68.2726C345.447 68.3816 345.445 68.5026 345.399 68.6101C345.354 68.7177 345.269 68.8033 345.161 68.8492C340.748 70.5574 334.94 75.4768 331.72 84.1755C329.11 91.216 329.393 104.166 331.022 107.129C331.077 107.232 331.089 107.352 331.057 107.465C331.025 107.577 330.95 107.673 330.848 107.731C330.783 107.766 330.71 107.785 330.636 107.786V107.786Z" fill="white"/>
<path d="M347.804 125.852C348.466 121.3 348.555 118.504 352.775 115.691C356.995 112.878 360.761 110.891 361.037 106.908C361.313 102.926 358.667 98.4742 358.778 95.0055C358.889 91.5369 361.011 89.8959 365.469 86.8162C369.926 83.7364 374.485 78.5151 370.057 74.8357C365.628 71.1562 359.103 74.638 356.138 77.2485C353.173 79.8589 350.746 80.8206 346.156 79.6281C341.566 78.4356 337.1 81.6392 338.242 87.4799C339.384 93.3207 338.817 95.9783 335.126 95.7976C331.436 95.6169 326.054 99.4809 330.444 108.274L347.804 125.852Z" fill="#00B4D8"/>
<path d="M338.414 116.789L338.361 116.789C338.245 116.776 338.139 116.718 338.065 116.628C337.992 116.537 337.957 116.421 337.969 116.305C339.956 98.5987 357.355 79.5853 365.309 76.7759C365.419 76.7385 365.539 76.746 365.644 76.7966C365.748 76.8473 365.829 76.9371 365.868 77.0467C365.906 77.158 365.898 77.2795 365.848 77.3856C365.797 77.4916 365.707 77.5738 365.597 77.6146C357.829 80.3167 340.808 99.0534 338.845 116.405C338.831 116.51 338.78 116.607 338.701 116.677C338.621 116.747 338.52 116.787 338.414 116.789V116.789Z" fill="white"/>
<path d="M345.875 97.243C345.78 97.2442 345.688 97.215 345.611 97.1598C345.534 97.1045 345.477 97.0261 345.448 96.9361C344.256 92.971 343.397 88.9136 342.879 84.8059C342.865 84.69 342.899 84.5735 342.971 84.4819C343.043 84.3903 343.149 84.331 343.265 84.317C343.381 84.3038 343.497 84.3371 343.589 84.4094C343.68 84.4817 343.74 84.5873 343.754 84.7032C344.274 88.7583 345.133 92.7626 346.322 96.6741C346.356 96.7865 346.343 96.9076 346.288 97.0108C346.232 97.1141 346.137 97.1909 346.025 97.2244L345.875 97.243Z" fill="white"/>
<path d="M340.988 106.828C340.871 106.852 340.749 106.829 340.649 106.763C340.549 106.697 340.479 106.595 340.455 106.477C340.431 106.36 340.454 106.238 340.52 106.138C340.586 106.038 340.689 105.969 340.806 105.944C345.746 103.804 351.279 103.457 356.449 104.963C356.504 104.982 356.555 105.011 356.599 105.05C356.643 105.089 356.679 105.135 356.705 105.188C356.73 105.24 356.746 105.297 356.749 105.355C356.753 105.414 356.745 105.472 356.727 105.528C356.708 105.583 356.678 105.634 356.64 105.678C356.601 105.722 356.554 105.758 356.502 105.783C356.449 105.809 356.392 105.824 356.334 105.828C356.276 105.832 356.217 105.824 356.162 105.805C351.187 104.4 345.88 104.745 341.129 106.783C341.084 106.803 341.037 106.819 340.988 106.828Z" fill="white"/>
<path d="M222.063 19.6786L200.427 7.3648L178.954 19.9451L200.581 32.259L222.063 19.6786Z" fill="#F9D9A9"/>
<path d="M200.735 57.1621L222.217 44.5817L222.063 19.6787L200.581 32.2591L200.735 57.1621Z" fill="#D3AE80"/>
<path d="M200.733 57.1626L179.097 44.8488L178.952 19.9457L200.579 32.2596L200.733 57.1626Z" fill="#F5CC95"/>
<path d="M190.939 26.7719L212.403 14.1831L209.962 12.7916L188.489 25.3804L190.939 26.7719Z" fill="#FF5102"/>
<path d="M182.305 34.2037L190.055 38.5789C190.501 38.8688 190.873 39.2588 191.142 39.7179C191.41 40.177 191.568 40.6925 191.602 41.2233L191.631 45.9824C191.637 46.9643 190.95 47.3667 190.106 46.8765L182.356 42.5012C181.91 42.2119 181.538 41.822 181.269 41.3628C181 40.9036 180.843 40.3878 180.81 39.8569L180.78 35.0977C180.774 34.1158 181.462 33.7223 182.305 34.2037Z" fill="#27DEBF"/>
<path d="M181.721 35.3921L182.014 35.5672L182.046 40.8483L181.753 40.682L181.721 35.3921Z" fill="#27DEBF"/>
<path d="M182.92 36.0752L183.426 36.3729L183.459 41.6539L182.953 41.3651L182.92 36.0752Z" fill="#27DEBF"/>
<path d="M184.117 36.7583L184.41 36.9246L184.443 42.2145L184.15 42.0482L184.117 36.7583Z" fill="#27DEBF"/>
<path d="M185.014 37.2651L185.608 37.6065L185.641 42.8964L185.046 42.5462L185.014 37.2651Z" fill="#27DEBF"/>
<path d="M186.508 38.1235L186.81 38.2897L186.842 43.5797L186.54 43.4046L186.508 38.1235Z" fill="#27DEBF"/>
<path d="M187.376 38.6044L187.998 38.9721L188.03 44.2532L187.4 43.8856L187.376 38.6044Z" fill="#27DEBF"/>
<path d="M188.902 39.4888L189.195 39.655L189.228 44.9361L188.935 44.7698L188.902 39.4888Z" fill="#27DEBF"/>
<path d="M189.586 39.8647L189.737 39.9523L189.77 45.2333L189.619 45.1547L189.586 39.8647Z" fill="#27DEBF"/>
<path d="M188.359 39.2002L188.501 39.2878L188.534 44.5688L188.392 44.4901L188.359 39.2002Z" fill="#27DEBF"/>
<path d="M185.947 37.8081L186.089 37.8868L186.122 43.1767L185.98 43.0892L185.947 37.8081Z" fill="#27DEBF"/>
<path d="M184.623 37.0552L184.774 37.1427L184.807 42.4326L184.656 42.3451L184.623 37.0552Z" fill="#27DEBF"/>
<path d="M183.674 36.54L183.825 36.6276L183.857 41.9175L183.707 41.83L183.674 36.54Z" fill="#27DEBF"/>
<path d="M182.385 35.769L182.536 35.8566L182.568 41.1465L182.417 41.0589L182.385 35.769Z" fill="#27DEBF"/>
<path d="M190.102 40.1626L190.395 40.3289L190.427 45.6188L190.134 45.4525L190.102 40.1626Z" fill="#27DEBF"/>
<path d="M193.295 15.7076L168.045 1.34596L142.984 16.0186L168.225 30.3892L193.295 15.7076Z" fill="#F9D9A9"/>
<path d="M157.402 24.2276L182.471 9.55529L180.021 8.16383L154.961 22.8361L157.402 24.2276Z" fill="#FF5102"/>
<path d="M168.505 76.0277L193.575 61.3549L193.292 15.7067L168.223 30.3883L168.505 76.0277Z" fill="#D3AE80"/>
<path d="M168.505 76.0279L143.265 61.6662L142.982 16.0181L168.223 30.3886L168.505 76.0279Z" fill="#F5CC95"/>
<path d="M147.734 53.3315L148.027 53.5067L148.06 58.7877L147.767 58.6214L147.734 53.3315Z" fill="#D3AE80"/>
<path d="M148.934 54.0146L149.44 54.3123L149.472 59.6022L148.966 59.3046L148.934 54.0146Z" fill="#D3AE80"/>
<path d="M150.123 54.6968L150.425 54.863L150.449 60.153L150.156 59.9867L150.123 54.6968Z" fill="#D3AE80"/>
<path d="M151.027 55.2046L151.613 55.546L151.646 60.8359L151.06 60.4857L151.027 55.2046Z" fill="#D3AE80"/>
<path d="M152.52 56.062L152.812 56.2283L152.845 61.5182L152.552 61.3431L152.52 56.062Z" fill="#D3AE80"/>
<path d="M153.381 56.5444L154.011 56.9121L154.044 62.1931L153.414 61.8255L153.381 56.5444Z" fill="#D3AE80"/>
<path d="M154.918 57.4189L155.211 57.5941L155.244 62.8751L154.951 62.7088L154.918 57.4189Z" fill="#D3AE80"/>
<path d="M155.604 57.8042L155.754 57.8917L155.787 63.1816L155.636 63.0941L155.604 57.8042Z" fill="#D3AE80"/>
<path d="M154.377 57.1387L154.519 57.2263L154.552 62.5073L154.41 62.4286L154.377 57.1387Z" fill="#D3AE80"/>
<path d="M151.961 55.7476L152.103 55.8263L152.136 61.1162L151.994 61.0286L151.961 55.7476Z" fill="#D3AE80"/>
<path d="M150.639 54.9946L150.781 55.0822L150.813 60.3721L150.671 60.2845L150.639 54.9946Z" fill="#D3AE80"/>
<path d="M149.688 54.4785L149.838 54.566L149.871 59.856L149.72 59.7684L149.688 54.4785Z" fill="#D3AE80"/>
<path d="M148.4 53.7085L148.551 53.796L148.584 59.0859L148.433 58.9984L148.4 53.7085Z" fill="#D3AE80"/>
<path d="M156.115 58.1011L156.408 58.2673L156.441 63.5572L156.148 63.391L156.115 58.1011Z" fill="#D3AE80"/>
<path d="M154.995 28.7274L157.437 30.1188L157.4 24.2274L154.959 22.8359L154.995 28.7274Z" fill="#E13D02"/>
<path d="M118.12 63.8926L100.088 53.6355L75.0273 68.3082L93.0588 78.5741L118.12 63.8926Z" fill="#F9D9A9"/>
<path d="M93.3151 120.065L118.376 105.392L118.119 63.8928L93.0586 78.5744L93.3151 120.065Z" fill="#D3AE80"/>
<path d="M93.3134 120.064L75.282 109.807L75.0254 68.3081L93.0569 78.574L93.3134 120.064Z" fill="#F5CC95"/>
<path d="M83.4349 78.9691L85.8762 80.3605L85.8398 74.4691L83.3984 73.0776L83.4349 78.9691Z" fill="#E13D02"/>
<path d="M85.8418 74.4684L110.911 59.7872L108.461 58.3958L83.4004 73.0769L85.8418 74.4684Z" fill="#FF5102"/>
<path d="M85.9956 99.364L53.5461 80.8977L21.3185 99.7639L53.777 118.239L85.9956 99.364Z" fill="#F9D9A9"/>
<path d="M53.9295 143.132L86.1483 124.266L85.9943 99.3631L53.7756 118.238L53.9295 143.132Z" fill="#D3AE80"/>
<path d="M53.9307 143.133L21.4723 124.667L21.3184 99.7637L53.7768 118.239L53.9307 143.133Z" fill="#F5CC95"/>
<path d="M36.3587 114.197L38.8 115.589L38.7636 109.697L36.3223 108.306L36.3587 114.197Z" fill="#E13D02"/>
<path d="M38.762 109.697L70.9896 90.8308L68.548 89.4304L36.3205 108.305L38.762 109.697Z" fill="#FF5102"/>
<path d="M26.5335 115.143L34.2746 119.518C34.7226 119.806 35.0968 120.196 35.367 120.655C35.6372 121.114 35.7958 121.63 35.8302 122.162L35.8597 126.93C35.8657 127.903 35.1782 128.306 34.3259 127.824L26.5849 123.449C26.137 123.161 25.7634 122.772 25.4946 122.312C25.2258 121.853 25.0694 121.336 25.0381 120.805L25.0087 116.045C25.0025 115.055 25.6903 114.697 26.5335 115.143Z" fill="#F5CC95"/>
<path d="M25.9512 116.332L26.2441 116.498L26.2768 121.788L25.9839 121.622L25.9512 116.332Z" fill="#CEAB7D"/>
<path d="M27.1387 117.014L27.6536 117.312L27.6863 122.593L27.1714 122.304L27.1387 117.014Z" fill="#CEAB7D"/>
<path d="M28.3379 117.697L28.6397 117.863L28.6636 123.153L28.3706 122.987L28.3379 117.697Z" fill="#CEAB7D"/>
<path d="M29.2441 118.204L29.839 118.545L29.8628 123.835L29.2768 123.485L29.2441 118.204Z" fill="#CEAB7D"/>
<path d="M30.7344 119.062L31.0273 119.229L31.06 124.519L30.767 124.344L30.7344 119.062Z" fill="#CEAB7D"/>
<path d="M31.5938 119.543L32.2241 119.911L32.2568 125.192L31.6264 124.825L31.5938 119.543Z" fill="#CEAB7D"/>
<path d="M33.1328 120.428L33.4258 120.594L33.4584 125.875L33.1655 125.709L33.1328 120.428Z" fill="#CEAB7D"/>
<path d="M33.8145 120.804L33.9654 120.891L33.998 126.172L33.8472 126.094L33.8145 120.804Z" fill="#CEAB7D"/>
<path d="M32.5898 120.139L32.7319 120.218L32.7646 125.508L32.6226 125.429L32.5898 120.139Z" fill="#CEAB7D"/>
<path d="M30.1738 118.747L30.3159 118.826L30.3486 124.116L30.2065 124.028L30.1738 118.747Z" fill="#CEAB7D"/>
<path d="M28.8535 117.994L29.0044 118.082L29.0371 123.363L28.8862 123.284L28.8535 117.994Z" fill="#CEAB7D"/>
<path d="M27.9023 117.479L28.0533 117.567L28.086 122.856L27.9351 122.769L27.9023 117.479Z" fill="#CEAB7D"/>
<path d="M26.6152 116.708L26.7662 116.796L26.7988 122.077L26.6479 121.998L26.6152 116.708Z" fill="#CEAB7D"/>
<path d="M34.332 121.102L34.625 121.277L34.6577 126.558L34.3647 126.391L34.332 121.102Z" fill="#CEAB7D"/>
<path d="M78.5036 49.6193L53.2631 35.2487L28.1933 49.9303L53.4427 64.2919L78.5036 49.6193Z" fill="#F9D9A9"/>
<path d="M53.7492 114.089L78.8101 99.4078L78.5023 49.6194L53.4413 64.2921L53.7492 114.089Z" fill="#D3AE80"/>
<path d="M53.7486 114.089L28.4993 99.7185L28.1914 49.9302L53.4407 64.2918L53.7486 114.089Z" fill="#F5CC95"/>
<path d="M40.2063 62.6307L42.6565 64.0221L42.6202 58.1395L40.1699 56.7393L40.2063 62.6307Z" fill="#E13D02"/>
<path d="M42.6202 58.1393L67.6804 43.4581L65.239 42.0666L40.1698 56.739L42.6202 58.1393Z" fill="#FF5102"/>
<path d="M33.5639 90.1952L41.305 94.5705C41.7534 94.8577 42.1273 95.2471 42.3962 95.7068C42.665 96.1664 42.8212 96.6832 42.8518 97.2148L42.8812 101.974C42.8872 102.947 42.2085 103.349 41.3563 102.868L33.6152 98.4928C33.1657 98.206 32.7904 97.8169 32.5201 97.3573C32.2497 96.8977 32.0919 96.3807 32.0596 95.8485L32.0302 91.0893C32.033 90.1162 32.7117 89.7139 33.5639 90.1952Z" fill="#F5CC95"/>
<path d="M32.9688 91.3931L33.2617 91.5593L33.2944 96.8492L33.0014 96.6741L32.9688 91.3931Z" fill="#CEAB7D"/>
<path d="M34.168 92.0762L34.674 92.365L34.7067 97.6549L34.2006 97.3572L34.168 92.0762Z" fill="#CEAB7D"/>
<path d="M35.3652 92.749L35.6582 92.9241L35.6909 98.2052L35.3979 98.0389L35.3652 92.749Z" fill="#CEAB7D"/>
<path d="M36.2715 93.2568L36.8575 93.6071L36.8902 98.8881L36.3042 98.5468L36.2715 93.2568Z" fill="#CEAB7D"/>
<path d="M37.7637 94.1143L38.0566 94.2805L38.0893 99.5704L37.7964 99.4042L37.7637 94.1143Z" fill="#CEAB7D"/>
<path d="M38.625 94.5967L39.2554 94.9643L39.2881 100.254L38.6577 99.8866L38.625 94.5967Z" fill="#CEAB7D"/>
<path d="M40.1602 95.4805L40.4531 95.6467L40.4858 100.937L40.1928 100.762L40.1602 95.4805Z" fill="#CEAB7D"/>
<path d="M40.8457 95.8647L40.9877 95.9435L41.0204 101.233L40.8784 101.146L40.8457 95.8647Z" fill="#CEAB7D"/>
<path d="M39.6113 95.1909L39.7623 95.2784L39.795 100.568L39.644 100.481L39.6113 95.1909Z" fill="#CEAB7D"/>
<path d="M37.1953 93.7998L37.3462 93.8873L37.3789 99.1684L37.228 99.0897L37.1953 93.7998Z" fill="#CEAB7D"/>
<path d="M35.873 93.0562L36.0239 93.1348L36.0566 98.4247L35.9057 98.3372L35.873 93.0562Z" fill="#CEAB7D"/>
<path d="M34.9336 92.54L35.0756 92.6188L35.1083 97.9087L34.9662 97.8211L34.9336 92.54Z" fill="#CEAB7D"/>
<path d="M33.6445 91.769L33.7866 91.8478L33.8193 97.1377L33.6772 97.0501L33.6445 91.769Z" fill="#CEAB7D"/>
<path d="M41.3496 96.1626L41.6514 96.3288L41.6841 101.61L41.3823 101.444L41.3496 96.1626Z" fill="#CEAB7D"/>
<path d="M29.276 186.997L126.172 242.133C127.363 242.728 128.677 243.034 130.008 243.026C131.339 243.018 132.65 242.696 133.833 242.086L344.626 118.696C346.732 117.462 346.72 115.48 344.598 114.272L247.702 59.1361C246.513 58.537 245.198 58.2289 243.866 58.2371C242.534 58.2453 241.223 58.5697 240.041 59.1834L29.2486 182.574C27.1419 183.808 27.1541 185.789 29.276 186.997Z" fill="#455A64"/>
<path d="M81.6204 212.553C83.2715 213.374 85.0921 213.795 86.9358 213.784C88.7794 213.772 90.5947 213.328 92.2356 212.488C95.1708 210.771 95.154 208.046 92.1976 206.34C90.5476 205.515 88.7265 205.092 86.8821 205.103C85.0377 205.114 83.222 205.561 81.5824 206.405C78.6473 208.148 78.6643 210.891 81.6204 212.553Z" fill="#263238"/>
<path d="M127.986 242.122L31.0898 186.986C29.1898 185.901 28.9847 184.203 30.4722 182.973C29.5325 183.726 28.7619 184.668 28.2107 185.739C27.6594 186.809 27.3398 187.984 27.2727 189.186L27.2949 192.786C27.3758 194.115 27.7684 195.406 28.441 196.554C29.1136 197.703 30.0474 198.677 31.1665 199.398L128.062 254.534C129.247 255.143 130.567 255.439 131.898 255.395L131.822 243.018C130.487 243.052 129.167 242.744 127.986 242.122V242.122Z" fill="#37474F"/>
<path d="M344.693 131.099C345.806 130.367 346.73 129.382 347.39 128.225C348.05 127.067 348.428 125.771 348.492 124.44L348.47 120.84C348.39 119.637 348.057 118.465 347.49 117.4C346.924 116.336 346.138 115.405 345.185 114.667C346.696 115.879 346.512 117.578 344.625 118.678L133.833 242.086C132.655 242.708 131.339 243.021 130.008 242.995L130.085 255.442C131.416 255.468 132.732 255.155 133.91 254.533L344.693 131.099Z" fill="#263238"/>
<path d="M142.008 230.492L49.2674 177.684C47.9889 176.957 47.9816 175.763 49.251 175.03L227.243 70.7656C227.953 70.3991 228.74 70.2055 229.539 70.2006C230.339 70.1956 231.128 70.3795 231.843 70.7372L324.619 123.537C325.889 124.263 325.896 125.449 324.636 126.191L146.573 230.464C145.867 230.825 145.087 231.015 144.294 231.02C143.502 231.025 142.719 230.844 142.008 230.492V230.492Z" fill="white"/>
<path d="M104.588 200.916L115.333 194.622L111.729 192.574L100.984 198.859L104.588 200.916Z" fill="#00B4D8"/>
<path d="M233.496 125.426L244.241 119.131L240.628 117.084L229.892 123.378L233.496 125.426Z" fill="#00B4D8"/>
<path d="M254.981 112.845L265.725 106.55L262.121 104.503L251.376 110.788L254.981 112.845Z" fill="#00B4D8"/>
<path d="M289.451 90.8246C289.871 91.0314 290.334 91.1376 290.802 91.1347C291.27 91.1318 291.731 91.0199 292.149 90.8079C292.311 90.7514 292.451 90.6457 292.55 90.5055C292.649 90.3653 292.702 90.1976 292.701 90.026C292.7 89.8544 292.645 89.6875 292.544 89.5485C292.444 89.4095 292.302 89.3055 292.139 89.251C291.72 89.0401 291.257 88.9316 290.788 88.9345C290.319 88.9374 289.858 89.0516 289.441 89.2677C289.279 89.3242 289.139 89.43 289.04 89.5702C288.941 89.7104 288.889 89.878 288.89 90.0496C288.891 90.2212 288.945 90.3882 289.046 90.5271C289.147 90.6661 289.288 90.7701 289.451 90.8246V90.8246Z" fill="#263238"/>
<path d="M293.835 103.015C294.673 103.433 295.597 103.647 296.533 103.642C297.469 103.636 298.39 103.41 299.222 102.982C300.703 102.088 300.694 100.717 299.203 99.8681C298.365 99.4504 297.441 99.2358 296.505 99.2416C295.57 99.2474 294.648 99.4734 293.816 99.9014C292.335 100.769 292.344 102.166 293.835 103.015Z" fill="#263238"/>
<path d="M289.998 97.6243C290.985 97.0431 290.926 96.0881 289.87 95.4842L272.114 85.3584C271.543 85.0567 270.908 84.895 270.262 84.8867C269.616 84.8784 268.977 85.0237 268.398 85.3106C267.411 85.8917 267.47 86.8468 268.526 87.4507L286.335 97.5762C286.9 97.8686 287.525 98.0252 288.161 98.0335C288.797 98.0419 289.426 97.9018 289.998 97.6243V97.6243Z" fill="#263238"/>
<path d="M259.544 56.2937L260.144 55.9449C259.738 57.4571 259.545 59.0187 259.571 60.5842L259.584 62.7428C259.632 70.4924 269.052 90.2335 272.519 97.2187C272.878 97.9508 268.211 102.978 268.211 102.978L273.773 99.7235C273.773 99.7235 287.653 88.1367 287.595 78.6886L287.581 76.5301C287.523 67.0377 281.207 55.7793 273.474 51.3771C269.568 49.163 266.056 49.1051 263.536 50.8193L258.247 53.8953L259.544 56.2937ZM266.569 63.5047C266.542 59.0814 269.653 57.2309 273.524 59.4363C273.223 62.2957 278.498 71.1631 280.57 71.4776C280.597 75.9009 277.486 77.7514 273.624 75.5459C271.59 74.2314 269.895 72.4562 268.675 70.3641C267.456 68.272 266.746 65.9219 266.605 63.5045L266.569 63.5047Z" fill="#00B4D8"/>
<path d="M253.866 66.2374C254.084 75.7199 268.655 102.976 268.655 102.976C268.655 102.976 282.348 91.1953 282.139 81.7127L282.126 79.5542C281.908 70.0716 275.407 58.9117 267.595 54.6427C259.784 50.3737 253.635 54.5875 253.853 64.0788L253.866 66.2374ZM260.859 66.8842C260.761 62.4614 263.845 60.5579 267.742 62.6925C269.803 63.9703 271.534 65.716 272.793 67.788C274.052 69.86 274.805 72.1998 274.991 74.6175C275.098 79.0402 272.013 80.9437 268.108 78.8092C266.049 77.5288 264.321 75.7823 263.062 73.7109C261.802 71.6394 261.048 69.3009 260.859 66.8842V66.8842Z" fill="#00B4D8"/>
<path opacity="0.1" d="M253.866 66.2374C254.084 75.7199 268.655 102.976 268.655 102.976C268.655 102.976 282.348 91.1953 282.139 81.7127L282.126 79.5542C281.908 70.0716 275.407 58.9117 267.595 54.6427C259.784 50.3737 253.635 54.5875 253.853 64.0788L253.866 66.2374ZM260.859 66.8842C260.761 62.4614 263.845 60.5579 267.742 62.6925C269.803 63.9703 271.534 65.716 272.793 67.788C274.052 69.86 274.805 72.1998 274.991 74.6175C275.098 79.0402 272.013 80.9437 268.108 78.8092C266.049 77.5288 264.321 75.7823 263.062 73.7109C261.802 71.6394 261.048 69.3009 260.859 66.8842V66.8842Z" fill="black"/>
<path d="M119.725 193.551C128.701 198.644 149.644 194.773 166.507 184.892L212.83 157.773C229.693 147.893 236.076 135.769 227.083 130.685C218.089 125.6 197.129 129.49 180.248 139.361L134.013 166.444C117.159 176.315 110.759 188.484 119.725 193.551Z" fill="#F0F0F0"/>
<path d="M126.078 188.335L136.814 182.041L133.21 179.993L122.474 186.279L126.078 188.335Z" fill="#F3752B"/>
<path d="M147.561 175.756L158.306 169.462L154.692 167.414L143.956 173.699L147.561 175.756Z" fill="#F3752B"/>
<path d="M143.115 173.244C143.147 178.446 139.541 184.767 135.055 187.449C132.666 188.852 130.508 188.91 129.015 187.875C128.413 187.408 127.917 186.818 127.561 186.145C127.204 185.471 126.995 184.729 126.947 183.969C127.249 183.826 127.543 183.667 127.829 183.495C132.316 180.875 135.921 174.527 135.889 169.29C135.891 168.903 135.865 168.515 135.811 168.132C136.484 167.771 137.224 167.553 137.985 167.494C138.746 167.434 139.512 167.534 140.232 167.786C142.006 168.518 143.097 170.431 143.115 173.244Z" fill="#263238"/>
<path d="M143.781 162.553L143.63 162.466C141.358 161.277 138.316 161.517 134.905 163.502C127.985 167.552 122.41 177.336 122.46 185.36C122.485 189.394 123.926 192.207 126.235 193.502C128.543 194.797 131.647 194.557 135.076 192.563C141.995 188.512 147.562 178.72 147.512 170.696C147.496 166.662 146.081 163.849 143.781 162.553ZM135.088 187.432C132.691 188.835 130.532 188.893 129.04 187.849C127.725 186.973 126.918 185.208 126.903 182.776C126.871 177.583 130.485 171.253 134.972 168.571C137.017 167.373 138.882 167.158 140.275 167.759C141.996 168.483 143.087 170.396 143.104 173.227C143.145 178.464 139.54 184.812 135.053 187.449L135.088 187.432Z" fill="#37474F"/>
<path d="M140.692 167.996L140.594 167.943C139.121 167.165 137.132 167.328 134.937 168.606C130.45 171.235 126.835 177.583 126.868 182.811C126.884 185.465 127.78 187.229 129.316 188.104C130.852 188.979 132.859 188.79 135.053 187.485C139.54 184.856 143.146 178.508 143.113 173.28C143.097 170.662 142.175 168.827 140.692 167.996ZM135.042 185.591C133.12 186.718 131.386 186.764 130.178 185.922C129.13 185.194 128.475 183.792 128.463 181.846C128.573 179.571 129.217 177.354 130.344 175.375C131.471 173.396 133.048 171.711 134.948 170.455C135.565 170.019 136.275 169.732 137.023 169.619C137.77 169.505 138.533 169.567 139.252 169.801C140.636 170.385 141.512 171.919 141.527 174.21C141.417 176.483 140.773 178.699 139.646 180.677C138.52 182.655 136.942 184.338 135.042 185.591V185.591Z" fill="#F3752B"/>
<path d="M169.045 163.166L179.79 156.881L176.186 154.824L165.441 161.118L169.045 163.166Z" fill="#F3752B"/>
<path d="M190.534 150.586L201.27 144.301L197.666 142.244L186.921 148.539L190.534 150.586Z" fill="#F3752B"/>
<path d="M212.017 138.005L222.753 131.72L219.148 129.663L208.404 135.958L212.017 138.005Z" fill="#F3752B"/>
<path d="M158.004 80.4552C158.115 80.304 158.272 80.1923 158.452 80.1364C158.631 80.0805 158.824 80.0832 159.002 80.1443C159.18 80.2053 159.334 80.3214 159.441 80.4757C159.548 80.6301 159.604 80.8147 159.599 81.0026C159.672 81.5057 159.623 82.0188 159.459 82.4996C159.294 82.9805 159.018 83.4154 158.652 83.7685C157.948 84.3833 157.23 84.14 157.056 83.2211C156.985 82.718 157.033 82.2052 157.198 81.7245C157.363 81.2437 157.639 80.8088 158.004 80.4552V80.4552Z" fill="#F3752B"/>
<path d="M166.327 84.3138L159.091 80.1919L157.531 84.0143L164.793 88.1449L166.327 84.3138Z" fill="#F3752B"/>
<path d="M165.222 84.5595C165.926 83.9536 166.635 84.1969 166.818 85.1158C166.886 85.6182 166.835 86.1295 166.669 86.6085C166.503 87.0875 166.226 87.5207 165.862 87.8729C165.158 88.4877 164.44 88.2444 164.266 87.3255C164.199 86.8218 164.25 86.3093 164.416 85.829C164.582 85.3487 164.858 84.9139 165.222 84.5595V84.5595Z" fill="#F3752B"/>
<path d="M220.853 119.108C220.854 119.285 220.855 119.444 220.856 119.621C220.858 119.975 220.861 120.338 220.863 120.7C219.426 120.099 217.561 120.314 215.515 121.512C211.029 124.141 207.414 130.489 207.446 135.717C207.461 138.141 208.268 139.888 209.583 140.791C209.217 141.054 208.838 141.299 208.447 141.523L208.032 141.738L206.814 146.443L199.57 142.463C197.28 141.159 195.856 138.354 195.831 134.338C195.781 126.314 201.347 116.53 208.267 112.471C211.687 110.468 214.791 110.246 217.108 111.532L224.21 115.451L224.361 115.539L220.853 119.108Z" fill="#455A64"/>
<path d="M224.352 115.459L224.201 115.371C221.929 114.182 218.887 114.422 215.475 116.407C208.555 120.458 202.98 130.241 203.03 138.265C203.055 142.299 204.497 145.112 206.805 146.407C209.113 147.703 212.217 147.462 215.646 145.468C222.566 141.418 228.132 131.625 228.082 123.601C228.084 119.567 226.642 116.754 224.352 115.459ZM215.659 140.337C213.261 141.741 211.103 141.798 209.61 140.755C208.295 139.878 207.488 138.114 207.473 135.681C207.441 130.488 211.055 124.158 215.542 121.476C217.587 120.278 219.452 120.063 220.889 120.664C222.61 121.388 223.701 123.301 223.719 126.132C223.733 131.369 220.11 137.717 215.623 140.337L215.659 140.337Z" fill="#37474F"/>
<path d="M223.7 126.167C223.733 131.369 220.127 137.69 215.641 140.371C213.252 141.775 211.094 141.833 209.601 140.798C208.999 140.331 208.503 139.741 208.147 139.067C207.79 138.394 207.581 137.652 207.533 136.892C207.835 136.749 208.129 136.59 208.415 136.417C212.902 133.798 216.507 127.45 216.475 122.213C216.477 121.825 216.451 121.438 216.397 121.055C217.07 120.693 217.81 120.476 218.571 120.417C219.332 120.357 220.097 120.456 220.818 120.709C222.574 121.441 223.683 123.336 223.7 126.167Z" fill="#263238"/>
<path d="M221.262 120.901L221.165 120.839C219.691 120.07 217.693 120.224 215.507 121.511C211.02 124.14 207.406 130.479 207.438 135.716C207.455 138.37 208.35 140.134 209.886 141.009C211.422 141.884 213.429 141.686 215.624 140.38C220.11 137.761 223.716 131.413 223.684 126.176C223.685 123.566 222.789 121.741 221.262 120.901ZM215.612 138.487C213.682 139.623 211.948 139.669 210.748 138.827C209.691 138.099 209.045 136.697 209.033 134.751C209.143 132.476 209.788 130.259 210.914 128.28C212.041 126.301 213.618 124.616 215.518 123.36C217.158 122.395 218.661 122.217 219.814 122.706C221.197 123.29 222.074 124.824 222.088 127.115C221.979 129.386 221.336 131.6 220.211 133.576C219.085 135.552 217.51 137.235 215.612 138.487Z" fill="#F3752B"/>
<path d="M208.359 128.908L228.632 117.034C230.986 115.648 223.267 107.69 217.558 107.185C214.414 106.825 211.23 107.147 208.221 108.128C208.221 108.128 212.599 113.665 211.876 116.828C211.152 119.991 208.359 128.908 208.359 128.908Z" fill="#F3752B"/>
<path d="M179.412 95.8835C179.412 95.8835 208.998 110.581 210.278 111.467C211.557 112.352 210.347 122.737 208.36 128.907C206.372 135.077 203.316 144.562 202.085 147.223C200.854 149.885 199.233 150.886 196.253 152.629L175.097 165.031L146.377 168.712L134.926 162.59L137.783 143.896C137.783 143.896 168.23 127.456 172.399 125.015C176.569 122.574 188.875 111.166 179.412 95.8835Z" fill="#F3752B"/>
<path opacity="0.2" d="M179.412 95.8835C179.412 95.8835 208.998 110.581 210.278 111.467C211.557 112.352 210.347 122.737 208.36 128.907C206.372 135.077 203.316 144.562 202.085 147.223C200.854 149.885 199.233 150.886 196.253 152.629L175.097 165.031L146.377 168.712L134.926 162.59L137.783 143.896C137.783 143.896 168.23 127.456 172.399 125.015C176.569 122.574 188.875 111.166 179.412 95.8835Z" fill="black"/>
<path d="M210.929 125.345C213.539 118.198 215.484 112.276 215.123 108.288C214.687 103.558 212.893 99.703 205.079 97.805C197.264 95.907 186.357 96.0098 186.357 96.0098L183.051 97.95C183.051 97.95 205.566 110.816 208.123 112.215C209.685 113.09 211.372 116.981 208.394 128.917L208.918 129.214C209.175 129.372 210.094 127.641 210.929 125.345Z" fill="#F3752B"/>
<path opacity="0.3" d="M210.929 125.345C213.539 118.198 215.484 112.276 215.123 108.288C214.687 103.558 212.893 99.703 205.079 97.805C197.264 95.907 186.357 96.0098 186.357 96.0098L183.051 97.95C183.051 97.95 205.566 110.816 208.123 112.215C209.685 113.09 211.372 116.981 208.394 128.917L208.918 129.214C209.175 129.372 210.094 127.641 210.929 125.345Z" fill="white"/>
<path d="M193.802 104.094L197.417 102.001C197.417 102.001 197.127 89.4315 191.818 86.4121C186.508 83.3928 168.563 85.5828 168.563 85.5828L164.984 87.675L193.802 104.094Z" fill="#F3752B"/>
<path d="M181.945 89.3485C180.226 90.3588 180.236 91.9688 181.967 92.9488C182.937 93.4353 184.009 93.6855 185.094 93.6787C186.18 93.672 187.248 93.4087 188.212 92.9102C189.922 91.9089 189.912 90.2901 188.19 89.3099C187.219 88.8275 186.147 88.5798 185.063 88.5865C183.978 88.5932 182.91 88.8542 181.945 89.3485V89.3485Z" fill="#F0F0F0"/>
<path d="M187.502 95.3205C186.294 96.0356 186.302 97.1768 187.518 97.8681C188.205 98.214 188.964 98.392 189.733 98.3872C190.502 98.3824 191.258 98.1952 191.941 97.8408C193.157 97.1344 193.15 95.9933 191.925 95.2931C191.237 94.9513 190.478 94.7758 189.71 94.7805C188.942 94.7853 188.186 94.9702 187.502 95.3205V95.3205Z" fill="#F0F0F0"/>
<path d="M173.558 87.7991C172.341 88.5054 172.348 89.6466 173.573 90.3467C174.261 90.6885 175.02 90.8641 175.788 90.8593C176.556 90.8546 177.313 90.6696 177.996 90.3194C179.213 89.6041 179.206 88.463 177.981 87.7717C177.294 87.4258 176.535 87.2479 175.766 87.2526C174.997 87.2574 174.24 87.4447 173.558 87.7991V87.7991Z" fill="#F0F0F0"/>
<path d="M194.348 100.445C195.052 99.8303 195.761 100.074 195.943 100.992C196.012 101.496 195.961 102.009 195.795 102.489C195.629 102.97 195.352 103.404 194.987 103.758C194.876 103.91 194.719 104.021 194.539 104.077C194.36 104.133 194.167 104.13 193.989 104.069C193.811 104.008 193.657 103.892 193.55 103.738C193.443 103.584 193.387 103.399 193.392 103.211C193.321 102.707 193.37 102.194 193.536 101.713C193.703 101.232 193.981 100.797 194.348 100.445Z" fill="#F3752B"/>
<path d="M202.623 104.304L195.379 100.182L193.828 104.005L201.081 108.126L202.623 104.304Z" fill="#F3752B"/>
<path d="M201.512 104.55C201.624 104.399 201.781 104.287 201.961 104.232C202.14 104.176 202.333 104.178 202.511 104.239C202.689 104.3 202.842 104.417 202.95 104.571C203.057 104.725 203.113 104.91 203.108 105.098C203.179 105.602 203.129 106.115 202.962 106.596C202.796 107.076 202.519 107.511 202.152 107.864C201.448 108.479 200.739 108.226 200.556 107.316C200.487 106.813 200.538 106.3 200.704 105.819C200.87 105.339 201.147 104.904 201.512 104.55V104.55Z" fill="#F3752B"/>
<path d="M201.512 104.55C201.624 104.399 201.781 104.287 201.961 104.232C202.14 104.176 202.333 104.178 202.511 104.239C202.689 104.3 202.842 104.417 202.95 104.571C203.057 104.725 203.113 104.91 203.108 105.098C203.179 105.602 203.129 106.115 202.962 106.596C202.796 107.076 202.519 107.511 202.152 107.864C201.448 108.479 200.739 108.226 200.556 107.316C200.487 106.813 200.538 106.3 200.704 105.819C200.87 105.339 201.147 104.904 201.512 104.55V104.55Z" fill="black"/>
<path d="M140.285 166.184C140.286 166.361 140.287 166.52 140.288 166.697C140.291 167.051 140.293 167.414 140.295 167.776C138.858 167.175 136.993 167.39 134.992 168.588C130.505 171.216 126.891 177.564 126.923 182.793C126.938 185.217 127.745 186.963 129.06 187.866C128.694 188.13 128.315 188.375 127.923 188.599L127.509 188.814L126.29 193.519L119.047 189.538C116.756 188.234 115.332 185.43 115.307 181.414C115.258 173.39 120.824 163.606 127.744 159.547C131.164 157.544 134.268 157.321 136.585 158.607L143.686 162.527L143.837 162.614L140.285 166.184Z" fill="#455A64"/>
<path d="M118.663 152.278L113.391 170.986L124.213 177.147L129.68 158.553L118.663 152.278Z" fill="#F3752B"/>
<path opacity="0.2" d="M118.663 152.278L113.391 170.986L124.213 177.147L129.68 158.553L118.663 152.278Z" fill="black"/>
<path d="M118.665 152.278C118.665 152.278 124.81 157.433 129.683 158.553C136.079 160.061 146.236 160.167 149.838 160.392C155.343 160.739 159.501 160.704 161.443 159.993C163.959 159.093 170.711 155.114 172.58 154.023C176.159 151.931 177.639 143.774 167.726 141.606C161.024 140.26 154.201 139.606 147.366 139.653L118.665 152.278Z" fill="#F3752B"/>
<path d="M179.611 149.513C179.309 150.284 179.105 151.091 179.007 151.914C178.727 152.77 178.666 153.683 178.829 154.569C179.51 155.68 180.576 156.501 181.824 156.877C182.723 157.071 183.652 157.078 184.553 156.897C185.455 156.717 186.309 156.352 187.064 155.827C188.888 154.719 190.26 153.383 192.856 152.624C194.713 152.219 196.459 151.415 197.973 150.266C199.408 149.098 201.316 145.884 198.552 145.158C195.787 144.432 189.805 147.087 184.34 147.36L179.611 149.513Z" fill="#37474F"/>
<path d="M179.59 146.099L179.615 150.185C179.785 150.644 180.079 151.046 180.463 151.348C180.847 151.65 181.308 151.84 181.793 151.897C182.238 151.959 182.691 151.908 183.11 151.747C183.771 151.49 184.343 151.045 184.754 150.468C185.166 149.89 185.399 149.204 185.426 148.495L185.57 146.062L179.59 146.099Z" fill="#FFA8A7"/>
<path d="M187.22 120.775C187.251 125.862 185.954 147.862 185.954 147.862C185.954 147.862 183.892 150.529 179.355 147.903L177.681 123.337L187.22 120.775Z" fill="#37474F"/>
<path d="M163.645 142.596L177.749 134.352C178.327 134.044 178.81 133.584 179.145 133.021C179.481 132.459 179.656 131.815 179.652 131.16C179.648 130.505 179.465 129.863 179.122 129.305C178.78 128.746 178.292 128.292 177.71 127.991L167.127 121.97C166.531 121.673 165.874 121.52 165.209 121.525C164.543 121.529 163.888 121.689 163.296 121.994L149.192 130.238C148.617 130.548 148.136 131.009 147.803 131.571C147.47 132.134 147.295 132.776 147.299 133.43C147.304 134.084 147.486 134.724 147.826 135.283C148.166 135.841 148.652 136.296 149.232 136.599L159.814 142.62C160.41 142.917 161.067 143.07 161.733 143.066C162.398 143.061 163.053 142.901 163.645 142.596Z" fill="#F3752B"/>
<path d="M163.645 142.596L177.749 134.352C178.327 134.044 178.81 133.584 179.145 133.021C179.481 132.459 179.656 131.815 179.652 131.16C179.648 130.505 179.465 129.863 179.122 129.305C178.78 128.746 178.292 128.292 177.71 127.991L167.127 121.97C166.531 121.673 165.874 121.52 165.209 121.525C164.543 121.529 163.888 121.689 163.296 121.994L149.192 130.238C148.617 130.548 148.136 131.009 147.803 131.571C147.47 132.134 147.295 132.776 147.299 133.43C147.304 134.084 147.486 134.724 147.826 135.283C148.166 135.841 148.652 136.296 149.232 136.599L159.814 142.62C160.41 142.917 161.067 143.07 161.733 143.066C162.398 143.061 163.053 142.901 163.645 142.596Z" fill="white"/>
<path d="M149.205 132.449L159.788 138.47C160.383 138.767 161.04 138.92 161.706 138.916C162.371 138.912 163.026 138.751 163.618 138.446L177.722 130.202C177.952 130.123 178.152 129.973 178.293 129.773C178.434 129.574 178.509 129.336 178.507 129.092C178.506 128.848 178.428 128.61 178.285 128.413C178.141 128.215 177.94 128.068 177.708 127.991L167.126 121.97C166.53 121.673 165.873 121.52 165.208 121.524C164.542 121.528 163.887 121.689 163.295 121.994L149.191 130.237C148.961 130.317 148.761 130.467 148.62 130.666C148.479 130.866 148.404 131.104 148.406 131.348C148.407 131.592 148.485 131.829 148.629 132.027C148.772 132.224 148.974 132.372 149.205 132.449Z" fill="#F3752B"/>
<path d="M157.493 78.2549L155.743 85.6701L148.032 86.1867L149.632 75.915L157.493 78.2549Z" fill="#FFA8A7"/>
<path d="M164.981 72.6349C164.981 72.6349 165.885 75.7609 165.523 75.9401C164.967 76.0285 164.4 76.032 163.843 75.9505L164.981 72.6349Z" fill="#F28F8F"/>
<path d="M163.44 62.6476C164.688 64.0995 165.835 66.4898 164.995 72.3689C164.08 78.797 162.899 79.5474 161.947 80.1726C160.705 80.9941 155.713 80.5915 154.3 79.5741C152.603 78.3549 149.969 74.47 149.326 70.6258C148.573 66.11 150.055 61.0849 153.376 60.2063C158.048 58.9655 162.38 61.4157 163.44 62.6476Z" fill="#FFA8A7"/>
<path d="M148.867 77.9978C150.069 79.2289 152.521 79.5499 154.062 79.8235C155.603 80.097 160.338 80.3774 161.715 76.9983C163.092 73.6192 162.122 71.2012 163.833 70.3768C165.544 69.5523 167.257 69.0109 167.705 68.5835C168.154 68.1561 168.128 62.6094 163.502 59.7628C158.875 56.9163 151.811 56.2965 147.203 62.1549C143.71 66.6794 145.199 74.2164 148.867 77.9978Z" fill="#455A64"/>
<path d="M153.525 79.8706C154.72 79.9694 158.494 79.3533 159.625 77.7894C160.757 76.2254 161.199 73.4361 161.358 71.9755C161.37 71.4005 161.578 70.8468 161.946 70.4055C162.315 69.9642 162.823 69.6617 163.387 69.5479C164.526 69.1781 167.039 67.9241 167.039 67.9241L167.035 67.2341C167.848 67.178 168.663 67.1729 169.476 67.219C170.008 67.313 169.721 68.1021 168.38 68.7916C167.04 69.481 163.359 70.8219 162.796 71.2766C162.233 71.7312 161.979 73.6347 161.54 75.6633C161.102 77.6918 159.723 80.7257 153.525 79.8706Z" fill="#37474F"/>
<path d="M164.192 88.1838L168.599 85.6177C169.016 84.3324 168.331 83.6908 167.128 83.7779C165.926 83.8649 166.29 82.6949 165.554 82.3722C164.587 81.9358 164.04 82.1869 163.605 81.9861C163.171 81.7854 162.982 81.2734 162.415 81.215C159.884 80.9918 158.181 84.6117 158.181 84.6117L164.192 88.1838Z" fill="#F28F8F"/>
<path d="M134.369 120.854C134.369 120.854 153.851 111.046 157.247 109.459C160.643 107.872 165.973 105.566 168.812 105.548C169.923 105.633 170.965 106.115 171.748 106.907C172.532 107.698 173.003 108.746 173.077 109.857C173.124 111.563 173.037 113.27 172.816 114.963C167.458 116.758 161.98 118.172 156.423 119.196C148.301 120.662 134.369 120.854 134.369 120.854Z" fill="#37474F"/>
<path d="M136.456 115.241C136.481 119.258 136.126 123.436 137.817 126.362C139.507 129.289 148.608 136.027 157.127 134.55C162.694 133.578 179.19 125.859 179.19 125.859C179.19 125.859 187.196 122.863 187.218 120.766C187.252 117.679 187.013 113.327 180.017 113.556C173.639 113.764 154.847 117.808 154.847 117.808L136.456 115.241Z" fill="#455A64"/>
<path d="M141.717 83.3861C144.723 80.2092 146.765 79.9312 148.218 80.3115C151.559 81.2451 154.795 82.5176 157.876 84.109C157.876 84.109 156.778 95.4221 162.328 98.6434L162.436 116.266C162.436 116.266 162.28 118.178 159.886 120.095C157.773 121.78 152.98 123.499 147.244 123.057C140.429 122.533 136.456 115.241 136.456 115.241C136.456 115.241 136.19 100.831 137.119 95.1013C138.21 88.4152 140.68 84.4896 141.717 83.3861Z" fill="#455A64"/>
<path d="M162.334 99.5011C162.334 99.5011 158.974 96.868 157.936 93.4243C157.936 93.4243 158.367 98.8356 162.347 101.553L162.334 99.5011Z" fill="#37474F"/>
<path d="M193.337 107.625C194.926 107.681 196.485 107.187 197.752 106.227C197.752 106.227 199.273 103.227 201.167 103.472C201.167 103.472 201.495 102.196 200.714 101.785C199.933 101.374 199.598 101.491 199.277 101.051C198.956 100.611 198.915 99.7884 197.5 99.7971C196.916 99.8007 196.993 99.3845 195.577 99.2252C194.16 99.0658 192.783 102.339 191.748 102.345L193.337 107.625Z" fill="#FFA8A7"/>
<path d="M157.878 84.1091C162.739 84.831 164.509 86.2621 166.288 87.8877C168.067 89.5134 178.963 100.31 178.963 100.31L192.085 102.113C192.777 102.667 193.288 103.416 193.549 104.263C194.09 105.799 193.622 107.483 193.12 107.884C193.12 107.884 180.121 108.743 177.561 108.272C175.001 107.801 162.29 99.4753 162.29 99.4753C161.075 98.5703 160.053 97.4309 159.285 96.1243C158.517 94.8177 158.019 93.3705 157.82 91.8681C156.964 86.5387 157.878 84.1091 157.878 84.1091Z" fill="#455A64"/>
<path d="M146.505 130.908L126.567 155.555C126.344 155.585 126.119 155.601 125.894 155.603C125.098 155.621 124.309 155.44 123.6 155.078L106.572 145.381L105.417 144.725C104.787 144.366 104.256 142.883 104.247 141.414L104.221 137.283C104.194 133.039 105.285 128.863 107.384 125.174C109.482 121.485 112.515 118.414 116.176 116.268L136.362 104.448L157.998 116.762L146.505 130.908Z" fill="#F3752B"/>
<g opacity="0.1">
<path opacity="0.1" d="M146.505 130.908L126.567 155.555C126.344 155.585 126.119 155.601 125.894 155.603C125.098 155.621 124.309 155.44 123.6 155.078L106.572 145.381L105.417 144.725C104.787 144.366 104.256 142.883 104.247 141.414L104.221 137.283C104.194 133.039 105.285 128.863 107.384 125.174C109.482 121.485 112.515 118.414 116.176 116.268L136.362 104.448L157.998 116.762L146.505 130.908Z" fill="black"/>
</g>
<path d="M139.632 139.41L157.973 116.772L136.337 104.458L116.159 116.27C113.549 117.802 111.251 119.812 109.384 122.195L139.632 139.41Z" fill="#F3752B"/>
<path d="M158.084 134.853C158.093 136.322 157.589 137.811 156.954 138.178L155.808 138.848L128.165 155.041C127.661 155.316 127.11 155.491 126.54 155.555C126.317 155.585 126.093 155.601 125.868 155.604L125.831 149.597C125.804 145.352 126.895 141.175 128.995 137.486C131.096 133.797 134.13 130.726 137.794 128.582L140.078 127.25L157.972 116.762L158.084 134.853Z" fill="#F3752B"/>
<g opacity="0.2">
<path opacity="0.2" d="M158.084 134.853C158.093 136.322 157.589 137.811 156.954 138.178L155.808 138.848L128.165 155.041C127.661 155.316 127.11 155.491 126.54 155.555C126.317 155.585 126.093 155.601 125.868 155.604L125.831 149.597C125.804 145.352 126.895 141.175 128.995 137.486C131.096 133.797 134.13 130.726 137.794 128.582L140.078 127.25L157.972 116.762L158.084 134.853Z" fill="black"/>
</g>
<path d="M164.224 165.161L175.078 165.058L190.556 155.992L175.409 167.082L163.954 167.312L164.224 165.161Z" fill="#E0E0E0"/>
<path d="M137.967 180.769C137.967 180.769 157.489 173.27 159.147 172.393C161.091 171.185 162.935 169.821 164.66 168.316C165.011 167.846 165.173 167.261 165.116 166.677C165.058 166.094 164.784 165.552 164.348 165.16C164.348 165.16 156.384 164.846 154.345 165.487C153.206 165.839 134.824 171.862 134.824 171.862L137.967 180.769Z" fill="#E0E0E0"/>
<path d="M137.039 172.53C135.412 171.152 133.787 171.737 133.402 173.827C133.257 174.98 133.386 176.15 133.779 177.244C134.172 178.337 134.817 179.323 135.662 180.12C137.289 181.499 138.913 180.923 139.298 178.824C139.442 177.671 139.313 176.501 138.92 175.407C138.528 174.314 137.883 173.328 137.039 172.53Z" fill="#455A64"/>
</svg>
