<svg width="58" height="49" viewBox="0 0 58 49" fill="none" xmlns="http://www.w3.org/2000/svg">
<path d="M57.3394 35.8087L45.232 48.5722L33.1261 35.8102H33.3525H38.553C39.1418 35.8102 39.7064 35.5764 40.1227 35.1601C40.539 34.7438 40.7729 34.1792 40.7729 33.5905V16.5726C40.7729 15.562 40.3714 14.5927 39.6568 13.8781C38.9421 13.1635 37.9728 12.762 36.9621 12.762C35.9416 12.762 34.9629 13.1674 34.2413 13.889C33.5196 14.6105 33.1143 15.5891 33.1143 16.6096V23.1297L24.2109 12.7709C24.2109 7.88751 29.6497 3.90088 35.9602 3.93491C43.6692 3.42586 49.6718 8.70437 49.6718 14.5896V33.589C49.6718 34.1777 49.9057 34.7423 50.322 35.1586C50.7383 35.5749 51.303 35.8087 51.8917 35.8087H57.3394Z" fill="#A2A2A2"/>
<path d="M0 12.7649L12.1074 0L24.2133 12.7634H23.975H18.7745C18.1857 12.7634 17.6211 12.9973 17.2048 13.4136C16.7885 13.8299 16.5546 14.3945 16.5546 14.9832V32.0011C16.5544 32.5016 16.6528 32.9973 16.8442 33.4598C17.0357 33.9222 17.3163 34.3425 17.6702 34.6965C18.0241 35.0505 18.4443 35.3313 18.9067 35.5229C19.3692 35.7145 19.8648 35.8131 20.3654 35.8131C21.3859 35.8131 22.3646 35.4077 23.0863 34.6862C23.8079 33.9646 24.2133 32.986 24.2133 31.9656V25.4544L33.1166 35.8131C33.1166 40.6965 27.6778 44.6831 21.3673 44.6491C13.6583 45.1567 7.65571 39.8782 7.65571 33.9944V14.9846C7.65571 14.3959 7.42183 13.8313 7.00551 13.4151C6.5892 12.9988 6.02456 12.7649 5.43581 12.7649H0Z" fill="#828282"/>
</svg>
