<svg width="108" height="111" viewBox="0 0 108 111" fill="none" xmlns="http://www.w3.org/2000/svg">
<circle cx="3.54231" cy="24.5046" r="3.43034" transform="rotate(90 3.54231 24.5046)" fill="#DDDDDD"/>
<circle cx="44.7083" cy="24.5046" r="3.43034" transform="rotate(90 44.7083 24.5046)" fill="#DDDDDD"/>
<circle cx="24.1263" cy="24.5046" r="3.43034" transform="rotate(90 24.1263 24.5046)" fill="#DDDDDD"/>
<circle cx="3.69075" cy="45.5295" r="3.43034" transform="rotate(90 3.69075 45.5295)" fill="#DDDDDD"/>
<circle cx="44.8548" cy="45.5295" r="3.43034" transform="rotate(90 44.8548 45.5295)" fill="#DDDDDD"/>
<circle cx="24.2708" cy="45.5295" r="3.43034" transform="rotate(90 24.2708 45.5295)" fill="#DDDDDD"/>
<circle cx="3.69075" cy="3.43034" r="3.43034" transform="rotate(90 3.69075 3.43034)" fill="#DDDDDD"/>
<circle cx="44.8548" cy="3.43034" r="3.43034" transform="rotate(90 44.8548 3.43034)" fill="#DDDDDD"/>
<circle cx="24.2708" cy="3.43034" r="3.43034" transform="rotate(90 24.2708 3.43034)" fill="#DDDDDD"/>
<circle cx="62.7025" cy="85.7038" r="3.43034" transform="rotate(90 62.7025 85.7038)" fill="#DDDDDD"/>
<circle cx="103.868" cy="85.7038" r="3.43034" transform="rotate(90 103.868 85.7038)" fill="#DDDDDD"/>
<circle cx="83.2845" cy="85.7038" r="3.43034" transform="rotate(90 83.2845 85.7038)" fill="#DDDDDD"/>
<circle cx="62.849" cy="106.729" r="3.43034" transform="rotate(90 62.849 106.729)" fill="#DDDDDD"/>
<circle cx="104.015" cy="106.729" r="3.43034" transform="rotate(90 104.015 106.729)" fill="#DDDDDD"/>
<circle cx="83.431" cy="106.729" r="3.43034" transform="rotate(90 83.431 106.729)" fill="#DDDDDD"/>
<circle cx="62.849" cy="64.6296" r="3.43034" transform="rotate(90 62.849 64.6296)" fill="#DDDDDD"/>
<circle cx="104.015" cy="64.6301" r="3.43034" transform="rotate(90 104.015 64.6301)" fill="#DDDDDD"/>
<circle cx="83.431" cy="64.6296" r="3.43034" transform="rotate(90 83.431 64.6296)" fill="#DDDDDD"/>
<circle cx="62.7083" cy="24.5046" r="3.43034" transform="rotate(90 62.7083 24.5046)" fill="#DDDDDD"/>
<circle cx="103.874" cy="24.5046" r="3.43034" transform="rotate(90 103.874 24.5046)" fill="#DDDDDD"/>
<circle cx="83.2923" cy="24.5046" r="3.43034" transform="rotate(90 83.2923 24.5046)" fill="#DDDDDD"/>
<circle cx="62.8568" cy="45.5295" r="3.43034" transform="rotate(90 62.8568 45.5295)" fill="#DDDDDD"/>
<circle cx="104.021" cy="45.5295" r="3.43034" transform="rotate(90 104.021 45.5295)" fill="#DDDDDD"/>
<circle cx="83.4368" cy="45.5295" r="3.43034" transform="rotate(90 83.4368 45.5295)" fill="#DDDDDD"/>
<circle cx="62.8568" cy="3.43034" r="3.43034" transform="rotate(90 62.8568 3.43034)" fill="#DDDDDD"/>
<circle cx="104.021" cy="3.43034" r="3.43034" transform="rotate(90 104.021 3.43034)" fill="#DDDDDD"/>
<circle cx="83.4368" cy="3.43034" r="3.43034" transform="rotate(90 83.4368 3.43034)" fill="#DDDDDD"/>
</svg>
